<svg id="_Group_" data-name="&lt;Group&gt;" xmlns="http://www.w3.org/2000/svg" width="36.75" height="36.031"><defs><style>.cls-1,.cls-2{fill:#fff;stroke:#4b4d4f;stroke-linejoin:round;stroke-width:1px;fill-rule:evenodd}.cls-2{stroke-linecap:round}</style></defs><path id="_Rectangle_" data-name="&lt;Rectangle&gt;" class="cls-1" d="M364.805 60.565h19.889a1.858 1.858 0 0 1 1.858 1.858v31.305a1.857 1.857 0 0 1-1.858 1.858h-19.889a1.858 1.858 0 0 1-1.858-1.858V62.423a1.858 1.858 0 0 1 1.858-1.858Z" transform="translate(-362.438 -60.063)"/><g id="_Group_2" data-name="&lt;Group&gt;"><path id="_Rectangle_2" data-name="&lt;Rectangle&gt;" class="cls-1" d="M372.631 62.6h4.237v6.285h-4.237V62.6Z" transform="translate(-362.438 -60.063)"/><path id="_Rectangle_3" data-name="&lt;Rectangle&gt;" class="cls-1" d="M372.631 70.808h4.237v6.285h-4.237v-6.285Z" transform="translate(-362.438 -60.063)"/><path id="_Rectangle_4" data-name="&lt;Rectangle&gt;" class="cls-1" d="M372.631 79.014h4.237V85.3h-4.237v-6.286Z" transform="translate(-362.438 -60.063)"/><path id="_Rectangle_5" data-name="&lt;Rectangle&gt;" class="cls-1" d="M372.631 87.262h4.237v6.285h-4.237v-6.285Z" transform="translate(-362.438 -60.063)"/></g><g id="_Group_3" data-name="&lt;Group&gt;"><path id="_Rectangle_6" data-name="&lt;Rectangle&gt;" class="cls-1" d="M365.507 62.6h4.237v6.285h-4.237V62.6Z" transform="translate(-362.438 -60.063)"/><path id="_Rectangle_7" data-name="&lt;Rectangle&gt;" class="cls-1" d="M365.507 70.808h4.237v6.285h-4.237v-6.285Z" transform="translate(-362.438 -60.063)"/><path id="_Rectangle_8" data-name="&lt;Rectangle&gt;" class="cls-1" d="M365.507 79.014h4.237V85.3h-4.237v-6.286Z" transform="translate(-362.438 -60.063)"/><path id="_Rectangle_9" data-name="&lt;Rectangle&gt;" class="cls-1" d="M365.507 87.262h4.237v6.285h-4.237v-6.285Z" transform="translate(-362.438 -60.063)"/></g><g id="_Group_4" data-name="&lt;Group&gt;"><path id="_Rectangle_10" data-name="&lt;Rectangle&gt;" class="cls-1" d="M379.938 62.6h4.237v6.285h-4.237V62.6Z" transform="translate(-362.438 -60.063)"/><path id="_Rectangle_11" data-name="&lt;Rectangle&gt;" class="cls-1" d="M379.938 70.808h4.237v6.285h-4.237v-6.285Z" transform="translate(-362.438 -60.063)"/><path id="_Rectangle_12" data-name="&lt;Rectangle&gt;" class="cls-1" d="M379.938 79.014h4.237V85.3h-4.237v-6.286Z" transform="translate(-362.438 -60.063)"/><path id="_Rectangle_13" data-name="&lt;Rectangle&gt;" class="cls-1" d="M379.938 87.262h4.237v6.285h-4.237v-6.285Z" transform="translate(-362.438 -60.063)"/></g><path id="_Path_" data-name="&lt;Path&gt;" class="cls-2" d="M375.875 95.586h22.352" transform="translate(-362.438 -60.063)"/><path id="_Rectangle_14" data-name="&lt;Rectangle&gt;" class="cls-2" d="M394.757 85.527h2.009v10.059h-2.009V85.527Z" transform="translate(-362.438 -60.063)"/><path id="_Path_2" data-name="&lt;Path&gt;" class="cls-2" d="M398.684 85.527h-12.132v-6.5l12.132 2.831v3.665Z" transform="translate(-362.438 -60.063)"/></svg>