<svg id="_Clip_Group_" data-name="&lt;Clip Group&gt;" xmlns="http://www.w3.org/2000/svg" width="465.47" height="461.562"><defs><style>.cls-1{fill:none;stroke:#e30234;stroke-width:.25px;fill-rule:evenodd}</style></defs><g id="_Group_" data-name="&lt;Group&gt;"><g id="_Group_2" data-name="&lt;Group&gt;"><path id="_Path_" data-name="&lt;Path&gt;" class="cls-1" d="M1160.64 845.742c-4.94 1.139-9.59 2.18-14.08 3.148 4.88 5.436 9.96 10.87 15.14 16.177 4.84 4.95 9.87 9.9 14.99 14.76.2-5.244.48-10.6.85-16.243.48-7.175 1.1-14.68 1.85-22.348-6.52 1.617-12.7 3.102-18.75 4.506Z" transform="translate(-1074.53 -526.438)"/><path id="_Path_2" data-name="&lt;Path&gt;" class="cls-1" d="M1222.92 877.627a791.214 791.214 0 0 1-18.4-16.312 797.249 797.249 0 0 1-17.72-16.753c-.63 6.67-1.16 13.223-1.58 19.53-.45 7.017-.77 13.572-.97 19.964 6.25-.831 12.65-1.791 19.49-2.936 6.17-1.035 12.6-2.206 19.18-3.493Z" transform="translate(-1074.53 -526.438)"/><path id="_Path_3" data-name="&lt;Path&gt;" class="cls-1" d="M1176.27 834.086a749.38 749.38 0 0 1-17.06-17.9 692.563 692.563 0 0 1-13.81-15.5c-.61 6.62-1.1 13.173-1.47 19.532-.41 7.3-.66 14.529-.75 21.534 5-1.068 10.19-2.222 15.72-3.5 5.63-1.309 11.36-2.685 17.37-4.166Z" transform="translate(-1074.53 -526.438)"/><path id="_Path_4" data-name="&lt;Path&gt;" class="cls-1" d="M1167.08 786.733c-6.33 2.2-12.29 4.287-18.08 6.335a672.397 672.397 0 0 0 15.87 17.907 759.89 759.89 0 0 0 15.96 16.782 965.72 965.72 0 0 1 2.87-22.326 992.429 992.429 0 0 1 4.01-25.807c-7.09 2.419-14 4.802-20.63 7.109Z" transform="translate(-1074.53 -526.438)"/><path id="_Path_5" data-name="&lt;Path&gt;" class="cls-1" d="M1131.49 743.844a554.681 554.681 0 0 0-14.77 7.451 474.585 474.585 0 0 0 11.77 16.306c3.54 4.675 7.29 9.464 11.2 14.281.87-7.082 1.87-14.263 2.98-21.409 1.23-7.86 2.63-15.866 4.16-23.857a733.962 733.962 0 0 0-15.34 7.228Z" transform="translate(-1074.53 -526.438)"/><path id="_Path_6" data-name="&lt;Path&gt;" class="cls-1" d="M1373.67 935.771a554.844 554.844 0 0 1-19.3 6.151 553.426 553.426 0 0 1-18.61 5.155c3.64 1.889 7.21 3.67 10.82 5.393 5 2.367 9.73 4.456 14.41 6.354 2.42-3.933 4.81-8.072 7.27-12.607a323.72 323.72 0 0 0 5.41-10.446Z" transform="translate(-1074.53 -526.438)"/><path id="_Path_7" data-name="&lt;Path&gt;" class="cls-1" d="M1287.28 870.444c-8.57 2.3-17.08 4.479-25.34 6.484a994.784 994.784 0 0 1-21.93 5.024 751.964 751.964 0 0 0 18.4 14.667 691.037 691.037 0 0 0 19.44 14.422c1.41-5.984 2.87-12.221 4.43-18.917 1.62-6.968 3.29-14.24 5-21.68Z" transform="translate(-1074.53 -526.438)"/><path id="_Path_8" data-name="&lt;Path&gt;" class="cls-1" d="m1377.37 972.686-.51-.147a191.228 191.228 0 0 1-12.77-4.26 175.71 175.71 0 0 1-7.03 9.911c-.13.163-.25.323-.38.482 3.7-.94 7.38-1.942 11.01-2.992q4.86-1.428 9.68-2.994Z" transform="translate(-1074.53 -526.438)"/><path id="_Path_9" data-name="&lt;Path&gt;" class="cls-1" d="M1350.8 962.858a293.003 293.003 0 0 1-7.52-3.44h-.01a363.596 363.596 0 0 1-16.16-8.223 406.215 406.215 0 0 1-5.33 12.466c-.99 2.189-1.96 4.261-2.91 6.24 5.8-1.023 11.65-2.194 17.44-3.488 4.81-1.092 9.66-2.281 14.49-3.555Z" transform="translate(-1074.53 -526.438)"/><path id="_Path_10" data-name="&lt;Path&gt;" class="cls-1" d="M1401.02 954.3c-3.98 1.6-8.01 3.148-12.04 4.629-4.7 1.708-9.47 3.351-14.25 4.9 1.44.467 2.86.9 4.28 1.317 3.77 1.1 7.3 1.972 10.74 2.671 2.86-3.073 5.66-6.335 8.52-9.945.93-1.172 1.84-2.363 2.75-3.572Z" transform="translate(-1074.53 -526.438)"/><path id="_Path_11" data-name="&lt;Path&gt;" class="cls-1" d="M1314.66 944.17a524.457 524.457 0 0 1-13.22-8.014 590.452 590.452 0 0 1-18.72-12.32c-1.27 5.36-2.49 10.411-3.68 15.317-1 4.107-1.95 7.96-2.86 11.645 6.8-.869 13.75-1.924 20.7-3.14a490.97 490.97 0 0 0 17.78-3.488Z" transform="translate(-1074.53 -526.438)"/><path id="_Path_12" data-name="&lt;Path&gt;" class="cls-1" d="M1353.48 970.1a422 422 0 0 1-15.49 3.81q-5.415 1.212-10.9 2.279c1.36.438 2.71.853 4.03 1.251a190.74 190.74 0 0 0 13.64 3.48c2.05-2.253 4.09-4.688 6.19-7.413.85-1.107 1.69-2.238 2.53-3.407Z" transform="translate(-1074.53 -526.438)"/><path id="_Path_13" data-name="&lt;Path&gt;" class="cls-1" d="M1270.77 915.42a745.111 745.111 0 0 1-17.06-12.707 777.86 777.86 0 0 1-19.43-15.508c-.86 6.184-1.63 12.1-2.35 17.919-.7 5.8-1.31 11.218-1.85 16.445 6.94-.764 14.09-1.71 21.3-2.808 6.37-.988 12.87-2.109 19.39-3.341Z" transform="translate(-1074.53 -526.438)"/><path id="_Path_14" data-name="&lt;Path&gt;" class="cls-1" d="M1318.82 951.133c-6.92 1.526-13.84 2.9-20.6 4.1-4.95.863-9.91 1.654-14.82 2.35 3.56 1.859 7.1 3.633 10.58 5.3 5.45 2.6 10.91 5.011 16.25 7.181 1.48-2.966 2.98-6.113 4.54-9.567 1.34-2.997 2.69-6.097 4.05-9.364Z" transform="translate(-1074.53 -526.438)"/><path id="_Path_15" data-name="&lt;Path&gt;" class="cls-1" d="M1185.59 772.219a1083.883 1083.883 0 0 1-17.35-18.31 926.444 926.444 0 0 1-13.93-15.441 729.654 729.654 0 0 0-4.05 23.193 688.654 688.654 0 0 0-3.28 23.961 3990.84 3990.84 0 0 1 38.61-13.403Z" transform="translate(-1074.53 -526.438)"/><path id="_Path_16" data-name="&lt;Path&gt;" class="cls-1" d="M1440.15 759c5.46 5.845 10.8 11.7 15.9 17.417 4.24 4.784 8.22 9.364 12.08 13.918l.08-.352c1.58-7.29 3.05-14.728 4.39-22.115a658.062 658.062 0 0 0 3.67-23.155c-5.08 2.1-10.33 4.222-15.91 6.44-6.55 2.591-13.2 5.174-20.21 7.847Z" transform="translate(-1074.53 -526.438)"/><path id="_Path_17" data-name="&lt;Path&gt;" class="cls-1" d="M1438.55 637.155a579.656 579.656 0 0 0-16.31-15.252c-5.57-4.992-11.28-9.9-17-14.647-.41 5.129-.9 10.41-1.47 15.98-.72 7-1.53 13.992-2.44 21.3 7.26-1.6 14.4-3.093 21.26-4.442a733.423 733.423 0 0 1 15.96-2.939Z" transform="translate(-1074.53 -526.438)"/><path id="_Path_18" data-name="&lt;Path&gt;" class="cls-1" d="M1376.59 607.047a668.812 668.812 0 0 0-20.07 3.64 800.595 800.595 0 0 1 18.15 14.572 830.43 830.43 0 0 1 19.25 16.5c.82-6.629 1.56-13.106 2.2-19.3.66-6.478 1.21-12.546 1.67-18.465a552.64 552.64 0 0 0-21.2 3.053Z" transform="translate(-1074.53 -526.438)"/><path id="_Path_19" data-name="&lt;Path&gt;" class="cls-1" d="M1294.63 581.278a600.957 600.957 0 0 0-22.35 5.9c-7.23 2.072-14.49 4.3-21.63 6.63 4.7 3.213 9.48 6.562 14.51 10.168a971.118 971.118 0 0 1 18.55 13.714c2.02-7.118 4-13.881 6-20.528 1.68-5.568 3.31-10.816 4.92-15.884Z" transform="translate(-1074.53 -526.438)"/><path id="_Path_20" data-name="&lt;Path&gt;" class="cls-1" d="M1145.79 728.643a678.102 678.102 0 0 1-12.96-15.682 523.635 523.635 0 0 1-8.56-10.994q-2.475 10.179-4.51 20.253a528.614 528.614 0 0 0-3.7 20.752c3.81-1.97 7.79-3.96 12.06-6.045a735.522 735.522 0 0 1 17.67-8.284Z" transform="translate(-1074.53 -526.438)"/><path id="_Path_21" data-name="&lt;Path&gt;" class="cls-1" d="M1474.8 736.994a612.007 612.007 0 0 0-14.54-17.532 704.096 704.096 0 0 0-14.49-16.26 878.138 878.138 0 0 1-3.09 22.676c-1.27 8.43-2.7 17.006-4.24 25.541 6.57-2.511 12.97-5 19.08-7.422 6.08-2.415 11.78-4.718 17.28-7.003Z" transform="translate(-1074.53 -526.438)"/><path id="_Path_22" data-name="&lt;Path&gt;" class="cls-1" d="M1466.86 691.594c-5.46 1.549-11.03 3.143-16.87 4.84a731.114 731.114 0 0 1 16.1 18c4.17 4.847 8.24 9.721 12.14 14.541.72-6.614 1.33-13.178 1.8-19.573.54-7.354.91-14.679 1.11-21.807-4.54 1.259-9.26 2.577-14.28 3.999Z" transform="translate(-1074.53 -526.438)"/><path id="_Path_23" data-name="&lt;Path&gt;" class="cls-1" d="M1478.41 680.373a517.41 517.41 0 0 0-14.38-16.739 565.51 565.51 0 0 0-13.81-14.794 596.44 596.44 0 0 1-.9 17.176c-.51 7.52-1.18 15.3-1.98 23.176a3364.9 3364.9 0 0 1 17.42-5c4.81-1.357 9.32-2.62 13.65-3.819Z" transform="translate(-1074.53 -526.438)"/><path id="_Path_24" data-name="&lt;Path&gt;" class="cls-1" d="M1277.53 622.668a924.803 924.803 0 0 0-16.86-12.442c-5.8-4.16-11.32-8.015-16.81-11.737-2.51 6.445-5.02 13.2-7.47 20.123a779.916 779.916 0 0 0-6.78 20.159 896.483 896.483 0 0 1 23.51-8.3 890.954 890.954 0 0 1 24.41-7.803Z" transform="translate(-1074.53 -526.438)"/><path id="_Path_25" data-name="&lt;Path&gt;" class="cls-1" d="M1199.36 706.275a2845.277 2845.277 0 0 1-16.54-16.246c-4.77-4.736-9.25-9.23-13.58-13.621a701.944 701.944 0 0 0-6.42 23.62 744.028 744.028 0 0 0-5.28 22.615l-.19.86c6.13-2.669 12.47-5.353 18.89-8 7.41-3.048 15.17-6.148 23.12-9.228Z" transform="translate(-1074.53 -526.438)"/><path id="_Path_26" data-name="&lt;Path&gt;" class="cls-1" d="M1155.37 698.15c1.84-7.281 3.81-14.6 5.89-21.814-5.51 2.73-10.9 5.515-16.09 8.3a485.247 485.247 0 0 0-17.06 9.646c3.33 4.471 6.86 9.029 10.73 13.874 3.55 4.435 7.19 8.859 11.06 13.439l.13-.591a708.691 708.691 0 0 1 5.34-22.854Z" transform="translate(-1074.53 -526.438)"/><path id="_Path_27" data-name="&lt;Path&gt;" class="cls-1" d="M1217.55 651.571a821.478 821.478 0 0 0-21.72 8.868 729.612 729.612 0 0 0-21.89 9.786c4.57 4.632 9.28 9.359 14.3 14.341a2686.57 2686.57 0 0 0 15.97 15.7c2.17-8.744 4.43-17.4 6.73-25.776a961.574 961.574 0 0 1 6.61-22.919Z" transform="translate(-1074.53 -526.438)"/><path id="_Path_28" data-name="&lt;Path&gt;" class="cls-1" d="M1216.08 643.887c-5.1-4.281-9.97-8.326-14.75-12.267-4.56-3.753-8.86-7.258-13.02-10.617-2.75 6.8-5.43 13.862-7.99 21.022-2.28 6.442-4.52 13.1-6.66 19.848a756.85 756.85 0 0 1 19.15-8.511 817.25 817.25 0 0 1 23.27-9.475Z" transform="translate(-1074.53 -526.438)"/><path id="_Path_29" data-name="&lt;Path&gt;" class="cls-1" d="M1235.4 599.03a600.69 600.69 0 0 0-20.36 7.705 579.247 579.247 0 0 0-21.07 8.955c3.92 3.166 7.96 6.465 12.25 10 5.01 4.124 10.08 8.341 15.39 12.8a833.97 833.97 0 0 1 7.52-22.435 678.665 678.665 0 0 1 6.27-17.025Z" transform="translate(-1074.53 -526.438)"/><path id="_Path_30" data-name="&lt;Path&gt;" class="cls-1" d="M1424.07 647.64a932.645 932.645 0 0 0-19.18 3.988 853.382 853.382 0 0 1 18.4 17.4 827.041 827.041 0 0 1 16.65 16.777c.68-6.9 1.25-13.711 1.7-20.309.48-7.282.83-14.418 1.04-21.24a753.435 753.435 0 0 0-18.61 3.384Z" transform="translate(-1074.53 -526.438)"/><path id="_Path_31" data-name="&lt;Path&gt;" class="cls-1" d="M1380.81 568.049c-4.5.238-9.15.573-13.88.99 4.7 3.146 9.41 6.407 14.05 9.738a551.353 551.353 0 0 1 17.62 13.245c.23-4.233.41-8.264.53-12.2.12-4.392.17-8.408.15-12.217-5.94-.02-12.15.126-18.47.444Z" transform="translate(-1074.53 -526.438)"/><path id="_Path_32" data-name="&lt;Path&gt;" class="cls-1" d="M1337.69 543.372c-3.98.321-8.03.716-12.11 1.18q4.875 2.5 9.73 5.172c5.81 3.22 11.74 6.686 17.65 10.328.65-3.508 1.25-6.828 1.83-10.039.48-2.712.93-5.222 1.34-7.588-6.03.144-12.22.463-18.44.947Z" transform="translate(-1074.53 -526.438)"/><path id="_Path_33" data-name="&lt;Path&gt;" class="cls-1" d="M1390.42 560a395.095 395.095 0 0 0-10.71-6.648c-5.35-3.175-10.75-6.2-16.1-9.019-.39 2.214-.8 4.545-1.24 7.034-.6 3.345-1.24 6.837-1.93 10.562 6.79-.689 13.5-1.214 19.97-1.561 3.37-.168 6.72-.291 10.01-.368Z" transform="translate(-1074.53 -526.438)"/><path id="_Path_34" data-name="&lt;Path&gt;" class="cls-1" d="M1392.38 596.925c-5.29-4.109-10.62-8.1-15.89-11.906-6-4.3-12.06-8.457-18.06-12.38-.82 4.328-1.69 8.845-2.62 13.684-1.08 5.565-2.23 11.378-3.41 17.338a676.382 676.382 0 0 1 22.94-4.2c5.77-.946 11.48-1.794 17.04-2.536Z" transform="translate(-1074.53 -526.438)"/><path id="_Path_35" data-name="&lt;Path&gt;" class="cls-1" d="M1425.35 601.418c-4.58.274-9.13.623-13.82 1.065a566.345 566.345 0 0 1 15.84 13.7c5.2 4.668 10.39 9.516 15.5 14.452 0-4.721-.08-9.256-.23-13.752-.21-5.677-.52-10.93-.96-16-5.21.033-10.57.21-16.33.535Z" transform="translate(-1074.53 -526.438)"/><path id="_Path_36" data-name="&lt;Path&gt;" class="cls-1" d="M1466.97 640.757c-3.99.473-8.05 1-12.3 1.622a570.817 570.817 0 0 1 15.09 16.114c3.94 4.4 7.8 8.865 11.53 13.31-.05-4.758-.17-9.442-.37-13.984-.3-6.253-.75-12.4-1.35-18.3-4 .314-8.14.721-12.6 1.238Z" transform="translate(-1074.53 -526.438)"/><path id="_Path_37" data-name="&lt;Path&gt;" class="cls-1" d="M1475 632.192c-4.15-4.609-8.47-9.2-12.87-13.682a452.034 452.034 0 0 0-12.31-11.994c.22 3.243.39 6.58.51 10.091.21 6.03.28 12.139.22 18.607 5.43-.816 10.54-1.507 15.53-2.1 3.11-.358 6.07-.664 8.92-.922Z" transform="translate(-1074.53 -526.438)"/><path id="_Path_38" data-name="&lt;Path&gt;" class="cls-1" d="M1252.33 559.8c-5.98 1.8-11.94 3.718-17.76 5.731-6.06 2.1-12.12 4.349-18.08 6.7 2.95 1.682 5.93 3.441 9.05 5.325 4.81 2.924 9.64 5.97 14.69 9.276a482.97 482.97 0 0 1 7.38-17.072c1.6-3.499 3.16-6.789 4.72-9.96Z" transform="translate(-1074.53 -526.438)"/><path id="_Path_39" data-name="&lt;Path&gt;" class="cls-1" d="M1299.04 540.691q-3.72-1.545-7.37-2.931a228.956 228.956 0 0 0-14.71-4.985c-1.91 2.663-3.8 5.5-5.75 8.615a221.962 221.962 0 0 0-3.7 6.2 465.764 465.764 0 0 1 18.08-4.266c4.47-.944 8.97-1.824 13.45-2.633Z" transform="translate(-1074.53 -526.438)"/><path id="_Path_40" data-name="&lt;Path&gt;" class="cls-1" d="M1233.41 591.573a510.676 510.676 0 0 0-11.87-7.443 360.394 360.394 0 0 0-12.46-7.24c-2.87 5.2-5.74 10.729-8.53 16.462-2.16 4.451-4.3 9.091-6.41 13.843a601.782 601.782 0 0 1 18.04-7.6 609.56 609.56 0 0 1 21.23-8.022Z" transform="translate(-1074.53 -526.438)"/><path id="_Path_41" data-name="&lt;Path&gt;" class="cls-1" d="M1198.86 579.657a440.14 440.14 0 0 0-13.93 6.535c-5.85 2.893-11.6 5.91-17.14 8.986 2.2 1.655 4.51 3.408 6.95 5.293 3.32 2.571 6.76 5.255 10.4 8.147a435.72 435.72 0 0 1 8.5-18.634c1.71-3.523 3.46-6.979 5.22-10.327Z" transform="translate(-1074.53 -526.438)"/><path id="_Path_42" data-name="&lt;Path&gt;" class="cls-1" d="M1506.93 672.8c-3.41-5.035-7.04-10.1-10.81-15.1a413.09 413.09 0 0 0-8.14-10.349c.25 3.323.46 6.7.62 10.106.29 6.446.42 13.166.39 20.019 3.86-1.036 7.44-1.988 10.86-2.877 2.51-.639 4.85-1.239 7.08-1.799Z" transform="translate(-1074.53 -526.438)"/><path id="_Path_43" data-name="&lt;Path&gt;" class="cls-1" d="M1306.42 547.221a435.597 435.597 0 0 0-19.23 3.625 453.188 453.188 0 0 0-16.46 3.858c3.32 1.691 6.7 3.474 10.21 5.394 5.6 3.078 11.42 6.45 17.33 10.039 1.66-4.974 3.27-9.616 4.87-14.087 1.13-3.111 2.21-6.037 3.28-8.829Z" transform="translate(-1074.53 -526.438)"/><path id="_Path_44" data-name="&lt;Path&gt;" class="cls-1" d="M1179.47 613.943c-3.27-2.6-6.39-5.033-9.43-7.386-2.85-2.191-5.5-4.206-8.02-6.089-2.94 5.517-5.84 11.3-8.61 17.2a428.7 428.7 0 0 0-5.77 13c4.07-2.349 8.24-4.673 12.47-6.935a506.158 506.158 0 0 1 19.36-9.79Z" transform="translate(-1074.53 -526.438)"/><path id="_Path_45" data-name="&lt;Path&gt;" class="cls-1" d="M1520 807.964a198.703 198.703 0 0 0-5.68-11.934c-1.32-2.535-2.69-5.06-4.13-7.631-.67 3.417-1.37 6.827-2.1 10.207-.53 2.424-1.08 4.872-1.64 7.3a468.462 468.462 0 0 1-4.22 16.576c2.4-1.773 4.73-3.55 7.03-5.375a214.57 214.57 0 0 0 10.74-9.143Z" transform="translate(-1074.53 -526.438)"/><path id="_Path_46" data-name="&lt;Path&gt;" class="cls-1" d="M1471.38 880.944a836.39 836.39 0 0 0-7.32-7.839c-2.8-2.962-5.71-6-8.81-9.19a521.795 521.795 0 0 1-7.82 20.641c-1.9 4.688-3.87 9.33-5.88 13.85 4.5-2.377 8.91-4.8 13.15-7.245a388.217 388.217 0 0 0 16.68-10.217Z" transform="translate(-1074.53 -526.438)"/><path id="_Path_47" data-name="&lt;Path&gt;" class="cls-1" d="M1488.64 841.1a408.099 408.099 0 0 1-10.5 6.47 469.544 469.544 0 0 1-18.13 10.2c3.4 3.507 6.58 6.816 9.63 10.041a934.57 934.57 0 0 1 6.45 6.891 421.247 421.247 0 0 0 7.26-18.337 426.721 426.721 0 0 0 5.29-15.265Z" transform="translate(-1074.53 -526.438)"/><path id="_Path_48" data-name="&lt;Path&gt;" class="cls-1" d="M1468.16 892.079a410.6 410.6 0 0 1-9.62 5.745 442.135 442.135 0 0 1-17.83 9.7c2.55 1.876 4.96 3.63 7.31 5.3 2.28 1.616 4.4 3.089 6.42 4.455 3.03-4.992 6-10.241 8.86-15.63 1.64-3.111 3.27-6.309 4.86-9.57Z" transform="translate(-1074.53 -526.438)"/><path id="_Path_49" data-name="&lt;Path&gt;" class="cls-1" d="M1425.04 915.2a516.116 516.116 0 0 1-15.44 6.887 537.411 537.411 0 0 1-19.51 7.809c3.25 1.875 6.38 3.622 9.5 5.293 3.82 2.033 7.4 3.84 10.88 5.487a295.93 295.93 0 0 0 8.85-14.776 359.11 359.11 0 0 0 5.72-10.7Z" transform="translate(-1074.53 -526.438)"/><path id="_Path_50" data-name="&lt;Path&gt;" class="cls-1" d="M1448.46 922.515a498.912 498.912 0 0 1-4.89-3.422 526.61 526.61 0 0 1-8.7-6.33 379.184 379.184 0 0 1-8.84 16.891c-1.33 2.38-2.69 4.72-4.05 7.007 3.71-1.789 7.36-3.623 10.91-5.475a354.734 354.734 0 0 0 15.57-8.671Z" transform="translate(-1074.53 -526.438)"/><path id="_Path_51" data-name="&lt;Path&gt;" class="cls-1" d="M1505.29 855.239c-1.35-2.581-2.85-5.25-4.56-8.124a207.78 207.78 0 0 0-3.92-6.292 443.574 443.574 0 0 1-6.24 18.206 426.226 426.226 0 0 1-4.56 11.808q3.48-2.55 6.71-5.078c4.42-3.459 8.64-6.997 12.57-10.52Z" transform="translate(-1074.53 -526.438)"/><path id="_Path_52" data-name="&lt;Path&gt;" class="cls-1" d="M1508.64 722.06a387.224 387.224 0 0 0-10.86-16.294c-2.91-4.115-5.97-8.29-9.14-12.452-.22 5.494-.54 11.074-.94 16.652a573.428 573.428 0 0 1-2.12 22.482c4.25-1.826 8.28-3.6 12.19-5.355 3.88-1.749 7.47-3.411 10.87-5.033Z" transform="translate(-1074.53 -526.438)"/><path id="_Path_53" data-name="&lt;Path&gt;" class="cls-1" d="M1487.06 740.183c4.27 5.582 8.34 11.13 12.12 16.522 2.43 3.483 4.71 6.848 6.89 10.185.85-5.742 1.59-11.476 2.21-17.1.71-6.621 1.28-13.281 1.69-19.845a615.442 615.442 0 0 1-9.04 4.165 870.436 870.436 0 0 1-13.87 6.073Z" transform="translate(-1074.53 -526.438)"/><path id="_Path_54" data-name="&lt;Path&gt;" class="cls-1" d="M1517.79 820.076c-1.2 1-2.45 2.015-3.74 3.051-4.2 3.326-8.53 6.552-13.2 9.828 2.35 3.516 4.48 6.874 6.48 10.212.73 1.225 1.43 2.415 2.09 3.582 1.75-4.908 3.41-9.883 4.95-14.841 1.19-3.882 2.34-7.846 3.42-11.832Z" transform="translate(-1074.53 -526.438)"/><path id="_Path_55" data-name="&lt;Path&gt;" class="cls-1" d="M1501.79 682.055c-3.19.828-6.52 1.705-10.07 2.658a448.965 448.965 0 0 1 12.35 16.621c2.26 3.212 4.47 6.455 6.6 9.692.06-4.2.04-8.361-.04-12.433-.14-6.282-.45-12.513-.91-18.557-2.49.62-5.11 1.288-7.93 2.019Z" transform="translate(-1074.53 -526.438)"/><path id="_Path_56" data-name="&lt;Path&gt;" class="cls-1" d="M1528.13 758.667a245.94 245.94 0 0 0-6.8-14.409c-1.29-2.51-2.67-5.077-4.11-7.679a481.79 481.79 0 0 1-1.29 14.047c-.69 6.246-1.52 12.6-2.48 18.943 2.22-1.5 4.35-2.992 6.41-4.492 3.03-2.214 5.75-4.322 8.27-6.41Z" transform="translate(-1074.53 -526.438)"/><path id="_Path_57" data-name="&lt;Path&gt;" class="cls-1" d="M1372.26 928.126c-3.95-2.48-8.02-5.107-12.34-7.967a702.416 702.416 0 0 1-17.24-11.852 800.286 800.286 0 0 1-6.4 18.744 626.914 626.914 0 0 1-4.86 13.2c6.93-1.754 13.9-3.665 20.75-5.7a546.32 546.32 0 0 0 20.09-6.425Z" transform="translate(-1074.53 -526.438)"/><path id="_Path_58" data-name="&lt;Path&gt;" class="cls-1" d="M1524.39 771.3c-3.42 2.483-7 4.936-10.9 7.47a266.86 266.86 0 0 1 7.66 13.727c.75 1.469 1.48 2.9 2.17 4.319.89-4.354 1.7-8.743 2.43-13.1.82-4.986 1.55-10.033 2.17-15.051a262.72 262.72 0 0 1-3.53 2.635Z" transform="translate(-1074.53 -526.438)"/><path id="_Path_59" data-name="&lt;Path&gt;" class="cls-1" d="M1290.42 574.39a445 445 0 0 0-13.18-7.546 355.531 355.531 0 0 0-15.74-8.14c-2.3 4.488-4.56 9.17-6.89 14.254-1.98 4.339-3.9 8.75-5.84 13.375 7.12-2.319 14.3-4.519 21.39-6.553a628.211 628.211 0 0 1 20.26-5.39Z" transform="translate(-1074.53 -526.438)"/><path id="_Path_60" data-name="&lt;Path&gt;" class="cls-1" d="M1179.16 722.617a1037.24 1037.24 0 0 0-20.78 8.831 887.13 887.13 0 0 0 15.51 17.242 1016.66 1016.66 0 0 0 16.24 17.158c1.57-8.607 3.26-17.273 5.03-25.811 1.81-8.71 3.75-17.453 5.77-26.123a1196.4 1196.4 0 0 0-21.77 8.703Z" transform="translate(-1074.53 -526.438)"/><path id="_Path_61" data-name="&lt;Path&gt;" class="cls-1" d="M1247.06 751.628c-6.84-6.38-13.62-12.74-20.2-18.968a3348.314 3348.314 0 0 1-18.32-17.5c-2.05 8.789-4.01 17.642-5.84 26.448-1.83 8.837-3.57 17.755-5.17 26.555 7.65-2.593 15.57-5.259 23.62-7.942 8.48-2.838 17.17-5.721 25.91-8.593Z" transform="translate(-1074.53 -526.438)"/><path id="_Path_62" data-name="&lt;Path&gt;" class="cls-1" d="M1380.8 780.513c6.53 6.131 12.93 12.187 19.08 18.056a2711.39 2711.39 0 0 1 16.79 16.128 901.52 901.52 0 0 0 6.21-25.552 964.88 964.88 0 0 0 5.45-25.7c-7.23 2.692-14.7 5.428-22.29 8.158-8.19 2.943-16.65 5.931-25.24 8.91Z" transform="translate(-1074.53 -526.438)"/><path id="_Path_63" data-name="&lt;Path&gt;" class="cls-1" d="M1338.45 606.613a710.398 710.398 0 0 0-17.28-12.4c-6.3-4.344-12.56-8.5-18.65-12.371-1.79 5.581-3.59 11.36-5.45 17.536a1214.91 1214.91 0 0 0-5.61 19.176c8.25-2.354 16.59-4.6 24.81-6.688a837.217 837.217 0 0 1 22.18-5.253Z" transform="translate(-1074.53 -526.438)"/><path id="_Path_64" data-name="&lt;Path&gt;" class="cls-1" d="M1464.1 797.483c-4.37-5.2-8.91-10.445-13.8-15.957a985.322 985.322 0 0 0-14.54-15.963c-1.1 5.564-2.26 11.14-3.46 16.66-.62 2.864-1.26 5.763-1.91 8.629a979.603 979.603 0 0 1-5.97 24.652c6.86-2.9 13.57-5.833 19.99-8.734a703.09 703.09 0 0 0 19.69-9.287Z" transform="translate(-1074.53 -526.438)"/><path id="_Path_65" data-name="&lt;Path&gt;" class="cls-1" d="M1332.07 900.658a972.05 972.05 0 0 1-17.13-12.867h-.01c-6.6-5.089-13.35-10.414-20.09-15.86-1.74 7.581-3.41 14.808-5.06 21.938-1.51 6.473-2.94 12.607-4.35 18.593 7.9-1.706 15.87-3.572 23.72-5.563a742.992 742.992 0 0 0 22.92-6.241Z" transform="translate(-1074.53 -526.438)"/><path id="_Path_66" data-name="&lt;Path&gt;" class="cls-1" d="M1334.72 907.9a746.654 746.654 0 0 1-23.67 6.454 691.74 691.74 0 0 1-21.22 5.018 578.36 578.36 0 0 0 15.71 10.27 476.947 476.947 0 0 0 17.66 10.577 650.75 650.75 0 0 0 5.84-15.747c1.92-5.43 3.79-10.883 5.68-16.572Z" transform="translate(-1074.53 -526.438)"/><path id="_Path_67" data-name="&lt;Path&gt;" class="cls-1" d="M1368.27 784.825c-8.71 2.967-17.59 5.944-26.48 8.875-9.03 2.969-18.19 5.939-27.32 8.838 6.99 6.213 13.97 12.357 20.79 18.323 6.72 5.869 13.42 11.668 19.96 17.283 2.27-8.627 4.52-17.469 6.69-26.34 2.16-8.853 4.3-17.913 6.36-26.979Z" transform="translate(-1074.53 -526.438)"/><path id="_Path_68" data-name="&lt;Path&gt;" class="cls-1" d="M1379.73 709.423c-6.72-6.316-13.59-12.65-20.46-18.86a1425.686 1425.686 0 0 0-20.82-18.412c-1.77 8.513-3.6 17.228-5.45 25.991-1.92 9.111-3.9 18.393-5.88 27.67 9.06-2.862 18.15-5.717 27.1-8.5 8.63-2.694 17.19-5.337 25.51-7.889Z" transform="translate(-1074.53 -526.438)"/><path id="_Path_69" data-name="&lt;Path&gt;" class="cls-1" d="M1344.44 563.873c-4.3-2.582-8.6-5.066-12.85-7.414a373.864 373.864 0 0 0-17.08-8.837 452.58 452.58 0 0 0-4.13 11.033 637.274 637.274 0 0 0-4.2 12.069 557.665 557.665 0 0 1 21.94-4.3c5.43-.941 10.9-1.794 16.32-2.551Z" transform="translate(-1074.53 -526.438)"/><path id="_Path_70" data-name="&lt;Path&gt;" class="cls-1" d="M1377.01 744.01c1.83-9.138 3.59-18.311 5.25-27.318a7208.7 7208.7 0 0 0-25.76 7.962c-8.88 2.769-17.93 5.608-26.99 8.468 7.12 6.474 14.26 13.008 21.3 19.488 6.89 6.349 13.74 12.7 20.42 18.929l.52-2.393c1.81-8.335 3.58-16.797 5.26-25.136Z" transform="translate(-1074.53 -526.438)"/><path id="_Path_71" data-name="&lt;Path&gt;" class="cls-1" d="M1304.31 678.255c-8.79 2.687-17.77 5.515-26.72 8.42 6.8 5.994 13.71 12.111 20.6 18.246 7.07 6.313 14.25 12.758 21.41 19.229 1.97-9.235 3.94-18.491 5.87-27.6 1.85-8.793 3.69-17.565 5.48-26.157-8.82 2.52-17.77 5.157-26.64 7.862Z" transform="translate(-1074.53 -526.438)"/><path id="_Path_72" data-name="&lt;Path&gt;" class="cls-1" d="M1366.23 777.4a4356.622 4356.622 0 0 0-41.9-38.588c-1.4 6.531-2.83 13.139-4.26 19.724l-1.87 8.637c-2.06 9.447-4.12 18.857-6.15 28.064 9.12-2.9 18.29-5.865 27.33-8.839 8.99-2.967 18-5.985 26.85-8.998Z" transform="translate(-1074.53 -526.438)"/><path id="_Path_73" data-name="&lt;Path&gt;" class="cls-1" d="M1349.73 843.57c-6.41-5.5-12.95-11.174-19.53-16.92a3407.168 3407.168 0 0 1-21-18.508c-2.02 9.107-4.03 18.1-5.98 26.82-1.87 8.329-3.74 16.6-5.57 24.651 8.62-2.433 17.39-5.021 26.1-7.7s17.43-5.489 25.98-8.343Z" transform="translate(-1074.53 -526.438)"/><path id="_Path_74" data-name="&lt;Path&gt;" class="cls-1" d="M1329.44 574c-6.29 1.1-12.71 2.342-19.13 3.7a582.226 582.226 0 0 1 15.23 10.187h.01a699.899 699.899 0 0 1 19.37 13.942c1.17-5.918 2.27-11.519 3.33-16.981.97-4.99 1.86-9.644 2.7-14.09-7.05.908-14.27 1.991-21.51 3.242Z" transform="translate(-1074.53 -526.438)"/><path id="_Path_75" data-name="&lt;Path&gt;" class="cls-1" d="M1314.42 729.834a4549.5 4549.5 0 0 0-21.35-19.169c-7-6.24-13.99-12.429-20.85-18.458-2.17 9.007-4.32 18.194-6.42 27.4-1.92 8.407-3.82 16.952-5.65 25.393l-.54 2.509c8.97-2.928 18.08-5.886 27.19-8.831 9.15-2.946 18.41-5.911 27.62-8.844Z" transform="translate(-1074.53 -526.438)"/><path id="_Path_76" data-name="&lt;Path&gt;" class="cls-1" d="M1498.38 631.19a336.541 336.541 0 0 0-9.21-11.4q-2.865-3.377-5.85-6.715c.16.74.31 1.491.46 2.245.99 5.107 1.86 10.5 2.59 16.063 3.47-.162 6.71-.237 9.85-.227.74.006 1.46.02 2.16.034Z" transform="translate(-1074.53 -526.438)"/><path id="_Path_77" data-name="&lt;Path&gt;" class="cls-1" d="M1304.93 979.845a330.78 330.78 0 0 1-16.99 2.779c-1.59.215-3.2.42-4.81.608.62.226 1.23.452 1.84.673a191.29 191.29 0 0 0 14.91 4.678 118.04 118.04 0 0 0 3.29-5.485c.58-1.05 1.17-2.131 1.76-3.253Z" transform="translate(-1074.53 -526.438)"/><path id="_Path_78" data-name="&lt;Path&gt;" class="cls-1" d="M1297.56 973.013q-3.42-1.533-6.9-3.189c-5.64-2.7-11.36-5.642-17.06-8.75-.77 3.042-1.51 5.909-2.23 8.675-.49 1.878-.96 3.637-1.4 5.3 5.74-.176 11.61-.516 17.52-1.015 3.31-.289 6.68-.629 10.07-1.021Z" transform="translate(-1074.53 -526.438)"/><path id="_Path_79" data-name="&lt;Path&gt;" class="cls-1" d="M1328.11 984.974c-4.65-1.5-9.43-3.261-14.27-5.244a190.378 190.378 0 0 1-4.65 9.063c4.54-.752 9.13-1.624 13.69-2.613 1.74-.38 3.49-.78 5.23-1.206Z" transform="translate(-1074.53 -526.438)"/><path id="_Path_80" data-name="&lt;Path&gt;" class="cls-1" d="M1447.27 855.749c-3.92-3.975-8-8.068-12.36-12.415a2064.47 2064.47 0 0 0-14.18-13.968c-2.28 8.292-4.67 16.5-7.11 24.44a808.373 808.373 0 0 1-6.63 20.5c6.69-2.8 13.3-5.7 19.72-8.629a592.84 592.84 0 0 0 20.56-9.928Z" transform="translate(-1074.53 -526.438)"/><path id="_Path_81" data-name="&lt;Path&gt;" class="cls-1" d="M1394.05 887.8a747.949 747.949 0 0 1-21.7 8.025 764.636 764.636 0 0 1-23.13 7.678c5.07 3.57 10 6.939 14.96 10.245a553.454 553.454 0 0 0 15.29 9.8 521.26 521.26 0 0 0 7.84-18.288 606.594 606.594 0 0 0 6.74-17.46Z" transform="translate(-1074.53 -526.438)"/><path id="_Path_82" data-name="&lt;Path&gt;" class="cls-1" d="M1284.26 863.288a1323.96 1323.96 0 0 1-19.94-16.872c-6.91-5.985-13.83-12.1-20.61-18.22-1.46 8.229-2.84 16.311-4.12 24.106-1.26 7.723-2.45 15.315-3.54 22.636a951.348 951.348 0 0 0 24.08-5.488c7.88-1.912 15.98-3.982 24.13-6.162Z" transform="translate(-1074.53 -526.438)"/><path id="_Path_83" data-name="&lt;Path&gt;" class="cls-1" d="M1233.49 818.859a1343.547 1343.547 0 0 1-20-18.844c-6.24-6.022-12.4-12.1-18.36-18.088a1035.85 1035.85 0 0 0-3.81 24.582 914.319 914.319 0 0 0-3.12 24.579c7.05-1.806 14.38-3.732 21.85-5.746 7.6-2.055 15.46-4.227 23.44-6.483Z" transform="translate(-1074.53 -526.438)"/><path id="_Path_84" data-name="&lt;Path&gt;" class="cls-1" d="M1212.06 832.77c-7.07 1.9-14.02 3.729-20.74 5.457a803.223 803.223 0 0 0 18.4 17.418 807.4 807.4 0 0 0 18.93 16.768c1.04-6.922 2.16-14.077 3.35-21.356 1.33-8.094 2.77-16.474 4.28-24.992a2166.7 2166.7 0 0 1-24.22 6.705Z" transform="translate(-1074.53 -526.438)"/><path id="_Path_85" data-name="&lt;Path&gt;" class="cls-1" d="M1262.4 683.587a3446.761 3446.761 0 0 0-19.15-16.605c-6.04-5.2-11.99-10.28-17.74-15.148a965.786 965.786 0 0 0-7.15 24.693c-2.24 8.181-4.43 16.568-6.53 24.991 7.97-2.992 16.12-5.966 24.27-8.867 8.53-3.028 17.36-6.068 26.3-9.064Z" transform="translate(-1074.53 -526.438)"/><path id="_Path_86" data-name="&lt;Path&gt;" class="cls-1" d="M1223.58 767.514c-8.15 2.723-16.17 5.422-23.93 8.051 6.21 6.262 12.65 12.609 19.18 18.908 6.4 6.166 13.05 12.435 19.79 18.665 1.6-8.654 3.29-17.479 5.02-26.313a2481.04 2481.04 0 0 1 5.67-27.843c-8.72 2.872-17.35 5.733-25.73 8.532Z" transform="translate(-1074.53 -526.438)"/><path id="_Path_87" data-name="&lt;Path&gt;" class="cls-1" d="M1312.76 755.908c1.35-6.232 2.71-12.518 4.05-18.764a7486.083 7486.083 0 0 0-54.95 17.724c7.02 6.488 14.14 13.008 21.22 19.455s14.28 12.943 21.43 19.34c2.05-9.317 4.12-18.753 6.16-28.129Z" transform="translate(-1074.53 -526.438)"/><path id="_Path_88" data-name="&lt;Path&gt;" class="cls-1" d="M1464.54 805.825a738.51 738.51 0 0 1-16.96 7.953 907.298 907.298 0 0 1-21.99 9.58c5.14 5.016 9.99 9.8 14.74 14.524 4.13 4.1 7.99 7.975 11.69 11.725a586.803 586.803 0 0 0 6.82-22.226c2-7.051 3.92-14.281 5.7-21.556Z" transform="translate(-1074.53 -526.438)"/><path id="_Path_89" data-name="&lt;Path&gt;" class="cls-1" d="M1490.14 830.946c-2.76-3.918-5.68-7.9-8.9-12.132-2.9-3.794-5.9-7.619-9.12-11.6a641.85 641.85 0 0 1-5.88 22.278 607.154 607.154 0 0 1-5.89 19.359c4.76-2.6 9.4-5.246 13.86-7.886a393.83 393.83 0 0 0 15.93-10.019Z" transform="translate(-1074.53 -526.438)"/><path id="_Path_90" data-name="&lt;Path&gt;" class="cls-1" d="M1502.95 785.317a425.935 425.935 0 0 1-10.1 5.824 535.01 535.01 0 0 1-16.65 8.886 573.17 573.17 0 0 1 11.16 14.124c2.38 3.129 4.59 6.112 6.7 9.037 1.76-6.291 3.4-12.679 4.89-19.042a479.45 479.45 0 0 0 4-18.829Z" transform="translate(-1074.53 -526.438)"/><path id="_Path_91" data-name="&lt;Path&gt;" class="cls-1" d="M1280.31 629.863c-8.23 2.5-16.54 5.149-24.73 7.9s-16.43 5.677-24.54 8.676c5.59 4.738 11.36 9.671 17.23 14.715 6.34 5.464 12.88 11.137 19.49 16.906 2.16-8.738 4.35-17.363 6.52-25.706 2.01-7.679 4.03-15.217 6.03-22.491Z" transform="translate(-1074.53 -526.438)"/><path id="_Path_92" data-name="&lt;Path&gt;" class="cls-1" d="M1446.85 864.567a608.107 608.107 0 0 1-16.93 8.1 675.905 675.905 0 0 1-21.88 9.527c4.4 3.534 8.59 6.862 12.7 10.091 3.96 3.1 7.66 5.96 11.22 8.676a460.853 460.853 0 0 0 8.34-19.294 513.69 513.69 0 0 0 6.55-17.1Z" transform="translate(-1074.53 -526.438)"/><path id="_Path_93" data-name="&lt;Path&gt;" class="cls-1" d="M1502.97 776.31c-3.12-4.965-6.44-9.952-10.09-15.2a490.278 490.278 0 0 0-9.35-12.85c-1 6.991-2.13 14.021-3.37 20.96a642.527 642.527 0 0 1-4.43 22.37l-.01.034c4.64-2.411 9.05-4.783 13.38-7.2a387.99 387.99 0 0 0 13.87-8.114Z" transform="translate(-1074.53 -526.438)"/><path id="_Path_94" data-name="&lt;Path&gt;" class="cls-1" d="M1426.12 906.178a920.665 920.665 0 0 1-10.12-7.836c-4.42-3.469-8.92-7.044-13.64-10.85a624.902 624.902 0 0 1-7.92 20.664c-1.96 4.816-3.96 9.55-5.98 14.13a518.865 518.865 0 0 0 18.13-7.28 500.853 500.853 0 0 0 19.53-8.828Z" transform="translate(-1074.53 -526.438)"/><path id="_Path_95" data-name="&lt;Path&gt;" class="cls-1" d="M1264.61 690.958c-8.76 2.936-17.47 5.938-25.93 8.94-8.43 3-16.93 6.1-25.29 9.249 6.06 5.84 12.35 11.85 18.77 17.929 6.5 6.156 13.19 12.442 19.95 18.744l.56-2.569c1.83-8.449 3.72-16.978 5.63-25.355 2.07-9.06 4.19-18.089 6.31-26.938Z" transform="translate(-1074.53 -526.438)"/><path id="_Path_96" data-name="&lt;Path&gt;" class="cls-1" d="M1328.04 663.23c-6.72-5.7-13.44-11.285-20.02-16.639-6.7-5.447-13.41-10.775-19.97-15.871-2.1 7.617-4.22 15.522-6.33 23.578-2.12 8.133-4.25 16.521-6.35 25.01 8.93-2.895 17.89-5.721 26.7-8.41 8.74-2.664 17.46-5.24 25.97-7.668Z" transform="translate(-1074.53 -526.438)"/><path id="_Path_97" data-name="&lt;Path&gt;" class="cls-1" d="M1412.98 828.533a1071.24 1071.24 0 0 1-22.69 8.821c-8.34 3.122-16.84 6.19-25.31 9.137 6.01 5.108 11.92 10.086 17.62 14.84 5.6 4.679 10.92 9.068 16.13 13.324a769.323 769.323 0 0 0 7.54-23.114c2.3-7.49 4.55-15.213 6.71-23.008Z" transform="translate(-1074.53 -526.438)"/><path id="_Path_98" data-name="&lt;Path&gt;" class="cls-1" d="M1351.77 850.994a1206.42 1206.42 0 0 1-25.75 8.269c-8.4 2.584-16.92 5.1-25.36 7.49 6.35 5.113 12.71 10.124 18.96 14.938 6.4 4.915 12.77 9.688 18.97 14.21 2.23-7.061 4.47-14.415 6.67-21.9 2.17-7.429 4.36-15.15 6.51-23.007Z" transform="translate(-1074.53 -526.438)"/><path id="_Path_99" data-name="&lt;Path&gt;" class="cls-1" d="M1393.05 879.944a1988.02 1988.02 0 0 1-15.38-12.7c-5.86-4.892-11.96-10.03-18.18-15.325-2.24 8.214-4.54 16.359-6.85 24.247-2.02 6.87-4.07 13.621-6.11 20.132a745.926 745.926 0 0 0 23.27-7.724 747.916 747.916 0 0 0 23.25-8.63Z" transform="translate(-1074.53 -526.438)"/><path id="_Path_100" data-name="&lt;Path&gt;" class="cls-1" d="M1301.66 806.571c-9.09 2.837-18.21 5.636-27.18 8.336a2508.81 2508.81 0 0 1-25.64 7.56 1365.73 1365.73 0 0 0 20.51 18.131c6.83 5.9 13.8 11.785 20.74 17.527 1.83-8.063 3.72-16.4 5.61-24.852a8716.43 8716.43 0 0 0 5.96-26.702Z" transform="translate(-1074.53 -526.438)"/><path id="_Path_101" data-name="&lt;Path&gt;" class="cls-1" d="M1299.24 799.267c-7.1-6.35-14.25-12.808-21.34-19.252-7.06-6.42-14.13-12.908-21.09-19.34-1.94 9.274-3.83 18.544-5.62 27.632-1.79 9.069-3.51 18.112-5.14 26.965 8.58-2.482 17.37-5.074 26.22-7.732a2837.51 2837.51 0 0 0 26.97-8.273Z" transform="translate(-1074.53 -526.438)"/><path id="_Path_102" data-name="&lt;Path&gt;" class="cls-1" d="M1411.82 820.706c-5.55-5.372-11.33-10.93-17.24-16.568a3596.422 3596.422 0 0 0-18.78-17.773c-2.08 9.157-4.24 18.312-6.42 27.267-2.1 8.573-4.27 17.112-6.45 25.43 8.32-2.9 16.59-5.891 24.66-8.91a1046.26 1046.26 0 0 0 24.23-9.446Z" transform="translate(-1074.53 -526.438)"/><path id="_Path_103" data-name="&lt;Path&gt;" class="cls-1" d="M1388.71 647.407a847.35 847.35 0 0 0-18.95-16.218c-6.52-5.4-13.13-10.7-19.7-15.782-1.34 6.679-2.73 13.565-4.15 20.536-1.55 7.6-3.17 15.523-4.85 23.633 8.65-2.38 17.22-4.651 25.49-6.759 7.49-1.902 14.93-3.717 22.16-5.41Z" transform="translate(-1074.53 -526.438)"/><path id="_Path_104" data-name="&lt;Path&gt;" class="cls-1" d="M1368.45 660.273c-7.98 2.031-16.19 4.21-24.48 6.483 6.84 5.938 13.71 12.015 20.45 18.1a1403.09 1403.09 0 0 1 20.2 18.617c1.47-8.432 2.86-16.8 4.13-24.933s2.45-16.2 3.52-24.064c-7.78 1.806-15.78 3.753-23.82 5.797Z" transform="translate(-1074.53 -526.438)"/><path id="_Path_105" data-name="&lt;Path&gt;" class="cls-1" d="M1318.16 619.326a881.828 881.828 0 0 0-23.95 6.443c6.15 4.8 12.42 9.779 18.66 14.85 6.83 5.563 13.78 11.342 20.69 17.208 1.68-8.113 3.26-15.826 4.81-23.421 1.48-7.29 2.87-14.153 4.21-20.824a802.451 802.451 0 0 0-24.42 5.744Z" transform="translate(-1074.53 -526.438)"/><path id="_Path_106" data-name="&lt;Path&gt;" class="cls-1" d="M1426.62 755.877a1163.411 1163.411 0 0 0-18.1-18.522c-6.1-6.1-12.42-12.3-18.85-18.474-1.63 8.849-3.35 17.794-5.12 26.639-1.69 8.354-3.46 16.831-5.27 25.189l-.52 2.374c8.36-2.906 16.64-5.832 24.68-8.717 7.91-2.844 15.68-5.692 23.18-8.489Z" transform="translate(-1074.53 -526.438)"/><path id="_Path_107" data-name="&lt;Path&gt;" class="cls-1" d="M1417.67 705.958c-7.43 2.222-15.17 4.558-23.09 6.969a1382.16 1382.16 0 0 1 19.38 18.988 1229.64 1229.64 0 0 1 17.03 17.406 891.743 891.743 0 0 0 4.08-24.594 825.135 825.135 0 0 0 3.35-24.922c-6.7 1.969-13.66 4.034-20.75 6.153Z" transform="translate(-1074.53 -526.438)"/><path id="_Path_108" data-name="&lt;Path&gt;" class="cls-1" d="M1435.77 692.566a802.278 802.278 0 0 0-17.86-18.031 827.866 827.866 0 0 0-18.26-17.279c-1 7.272-2.11 14.807-3.3 22.466-1.33 8.464-2.77 17.175-4.3 25.933a4693.072 4693.072 0 0 1 43.72-13.089Z" transform="translate(-1074.53 -526.438)"/><path id="_Path_109" data-name="&lt;Path&gt;" class="cls-1" d="M1098.9 856.9q-.63.054-1.23.1c2.56 4.11 5.26 8.21 8.04 12.229q1.245 1.786 2.53 3.588c0-.021-.01-.042-.01-.063-1.02-5.3-1.91-10.857-2.64-16.554-2.38.284-4.59.517-6.69.7Z" transform="translate(-1074.53 -526.438)"/><path id="_Path_110" data-name="&lt;Path&gt;" class="cls-1" d="M1125.59 894.524c2.94 3.366 5.97 6.7 9.04 9.959 2.27 2.4 4.6 4.789 6.96 7.146-.12-.575-.25-1.154-.38-1.741a228.806 228.806 0 0 1-2.63-14.814c-3.95-.03-7.64-.164-11.23-.412h-.01c-.59-.046-1.17-.089-1.75-.138Z" transform="translate(-1074.53 -526.438)"/><path id="_Path_111" data-name="&lt;Path&gt;" class="cls-1" d="M1209.45 952.963a408.994 408.994 0 0 1-9.14-6.271c-4.66-3.3-9.32-6.761-13.93-10.312.25 1.756.52 3.453.82 5.127.57 3.19 1.2 6.1 1.9 8.847 4.79.856 9.8 1.569 14.91 2.111 1.78.184 3.6.352 5.44.498Z" transform="translate(-1074.53 -526.438)"/><path id="_Path_112" data-name="&lt;Path&gt;" class="cls-1" d="M1163.27 930.145h-.01c-.61-.074-1.22-.146-1.82-.225q3.99 3.4 8.02 6.643c3.44 2.741 6.95 5.438 10.49 8.053-.11-.583-.22-1.178-.33-1.777-.64-3.67-1.18-7.459-1.64-11.541-5.13-.234-9.96-.615-14.71-1.153Z" transform="translate(-1074.53 -526.438)"/><path id="_Path_113" data-name="&lt;Path&gt;" class="cls-1" d="M1132.95 887.257a406.925 406.925 0 0 1-11.51-13.095q-3.36-4.014-6.64-8.136c.31 1.765.63 3.506.97 5.21 1.04 5.107 2.23 10.1 3.54 14.837 2.66.389 5.47.687 8.58.915 1.66.112 3.34.205 5.06.269Z" transform="translate(-1074.53 -526.438)"/><path id="_Path_114" data-name="&lt;Path&gt;" class="cls-1" d="M1159.72 894.33c-3.09.215-6.02.384-8.88.506 4.2 4.194 8.51 8.338 12.86 12.352a448.89 448.89 0 0 0 13.23 11.659 330.91 330.91 0 0 1-.41-9.011c-.17-5.51-.22-11.11-.16-17.061-5.81.655-11.27 1.168-16.64 1.555Z" transform="translate(-1074.53 -526.438)"/><path id="_Path_115" data-name="&lt;Path&gt;" class="cls-1" d="M1170.05 923.087a439.146 439.146 0 0 1-11.56-10.241 436.627 436.627 0 0 1-10.92-10.42c.36 1.974.75 3.91 1.16 5.847.95 4.408 1.99 8.464 3.15 12.353 3.88.755 7.91 1.371 12.26 1.882 1.95.22 3.91.411 5.91.579Z" transform="translate(-1074.53 -526.438)"/><path id="_Path_116" data-name="&lt;Path&gt;" class="cls-1" d="M1202.34 931.356c-3.3.118-6.48.191-9.59.214 3.95 3.019 7.97 5.982 12 8.842 5.06 3.572 10.22 7.04 15.39 10.339.1-2.39.23-4.885.39-7.515.27-4.179.6-8.5 1-13.1-6.56.572-13.01.983-19.19 1.22Z" transform="translate(-1074.53 -526.438)"/><path id="_Path_117" data-name="&lt;Path&gt;" class="cls-1" d="M1203.22 960.115c-.12-.014-.24-.024-.36-.038 1.46.9 2.93 1.787 4.39 2.656 4.25 2.5 8.55 4.9 12.83 7.152l-.06-1.286c-.09-2.293-.13-4.706-.13-7.311-5.73-.228-11.33-.621-16.67-1.173Z" transform="translate(-1074.53 -526.438)"/><path id="_Path_118" data-name="&lt;Path&gt;" class="cls-1" d="M1092.91 834.421c-.58-.974-1.16-1.954-1.72-2.934.1.8.21 1.585.32 2.371.74 5.279 1.65 10.493 2.69 15.516 1.27-.062 2.62-.162 4.12-.3 1.16-.105 2.36-.233 3.61-.382a338.562 338.562 0 0 1-9.02-14.271Z" transform="translate(-1074.53 -526.438)"/><path id="_Path_119" data-name="&lt;Path&gt;" class="cls-1" d="M1133.82 639.016a503.717 503.717 0 0 1-6.66-7.605c-1.21-1.417-2.35-2.77-3.43-4.072a352.656 352.656 0 0 0-7.12 15.924 388.56 388.56 0 0 0-4.17 10.475q2.865-2.148 5.81-4.26a357.353 357.353 0 0 1 15.57-10.462Z" transform="translate(-1074.53 -526.438)"/><path id="_Path_120" data-name="&lt;Path&gt;" class="cls-1" d="M1170.09 572q-2.6 1.508-5.12 3.03a310.69 310.69 0 0 0-13.32 8.578c.69.463 1.41.947 2.16 1.463a337.49 337.49 0 0 1 5.72 4.029 289.698 289.698 0 0 1 9.18-15.012q.69-1.058 1.38-2.088Z" transform="translate(-1074.53 -526.438)"/><path id="_Path_121" data-name="&lt;Path&gt;" class="cls-1" d="M1150.92 605.19q-4.2 2.649-8.2 5.343a311.22 311.22 0 0 0-14.35 10.339c1.42 1.74 2.96 3.568 4.63 5.535 1.73 2.012 3.54 4.087 5.48 6.267a424.17 424.17 0 0 1 7.96-18.256c1.46-3.108 2.96-6.195 4.48-9.228Z" transform="translate(-1074.53 -526.438)"/><path id="_Path_122" data-name="&lt;Path&gt;" class="cls-1" d="M1153.74 594.414c-1.49-1.065-2.91-2.06-4.29-3-1.31-.9-2.52-1.713-3.66-2.461a275.57 275.57 0 0 0-8.91 13.841c-.79 1.339-1.59 2.7-2.38 4.072q1.95-1.368 3.92-2.7a350.542 350.542 0 0 1 15.32-9.752Z" transform="translate(-1074.53 -526.438)"/><path id="_Path_123" data-name="&lt;Path&gt;" class="cls-1" d="M1100.78 802.55a345.95 345.95 0 0 1-9.97-16.025q-1.71-2.943-3.36-5.916c-.07 3.276-.1 6.534-.09 9.731.05 5.808.24 11.61.58 17.285q2.19-.894 4.63-1.868c2.58-1.026 5.29-2.085 8.21-3.207Z" transform="translate(-1074.53 -526.438)"/><path id="_Path_124" data-name="&lt;Path&gt;" class="cls-1" d="M1095.41 812.9a705.99 705.99 0 0 0-5.54 2.242c2.75 5 5.72 10.054 8.86 15.058 1.56 2.481 3.2 5 4.89 7.53q-.285-4.1-.5-8.295c-.28-6.3-.41-12.815-.38-19.4-2.58.997-5.01 1.947-7.33 2.865Z" transform="translate(-1074.53 -526.438)"/><g id="_Group_3" data-name="&lt;Group&gt;"><path id="_Path_125" data-name="&lt;Path&gt;" class="cls-1" d="m1111.93 634.645-1.14 1.311a216.015 216.015 0 0 0-8.92 11.065c.45 1.911 1 3.9 1.68 6.061.27.835.54 1.673.84 2.526a482.152 482.152 0 0 1 5.36-15.251q1.065-2.851 2.18-5.712Z" transform="translate(-1074.53 -526.438)"/><path id="_Path_126" data-name="&lt;Path&gt;" class="cls-1" d="M1092.42 667.407q-1.155 2.832-2.25 5.722c3.16-2.982 6.56-5.982 10.13-8.947a132.26 132.26 0 0 1-3.01-8.179 351.02 351.02 0 0 0-4.87 11.404Z" transform="translate(-1074.53 -526.438)"/><path id="_Path_127" data-name="&lt;Path&gt;" class="cls-1" d="M1096.33 677.345c-.89.814-1.78 1.636-2.66 2.469a159.27 159.27 0 0 0-9.16 9.449c.99 3.262 2.17 6.6 3.6 10.159.47 1.14.94 2.275 1.44 3.418 1.08-4.705 2.26-9.42 3.5-14.08 1.04-3.814 2.13-7.63 3.28-11.415Z" transform="translate(-1074.53 -526.438)"/><path id="_Path_128" data-name="&lt;Path&gt;" class="cls-1" d="M1078.3 776.088c-1.28 1.559-1.32 1.773-2.45 3.063 1.27 5.362 2.09 9.063 3.49 14.492a6.017 6.017 0 0 0 .39.884q-.045-2.067-.06-4.142c-.02-5.38.08-10.88.3-16.4-.74.874-1.09 1.396-1.67 2.103Z" transform="translate(-1074.53 -526.438)"/><path id="_Path_129" data-name="&lt;Path&gt;" class="cls-1" d="M1074.72 751.81c-.03 1.618-.08 6.7-.03 8.194.18 5.752.21 5.924.37 9.96a136.28 136.28 0 0 1 4.31-5.159c-1.09-3.348-1.21-3.653-4.65-12.995Z" transform="translate(-1074.53 -526.438)"/><path id="_Path_130" data-name="&lt;Path&gt;" class="cls-1" d="M1082.27 727.668c-2.44 2.41-4.6 4.714-6.57 7.023a173.26 173.26 0 0 0 5.62 16.059c.36-3.5.77-7.009 1.22-10.489.66-4.978 1.42-10.01 2.27-15.014-.87.804-1.71 1.609-2.54 2.421Z" transform="translate(-1074.53 -526.438)"/><path id="_Path_131" data-name="&lt;Path&gt;" class="cls-1" d="M1081.15 702.1c-.7 3.107-1.47 6.546-2.09 9.637-.67 3.424-1.24 6.841-1.82 10.3 2.66-2.681 5.82-5.176 8.91-7.883-1.78-4.029-3.63-8.254-5-12.054Z" transform="translate(-1074.53 -526.438)"/></g><g id="_Group_4" data-name="&lt;Group&gt;"><path id="_Path_132" data-name="&lt;Path&gt;" class="cls-1" d="M1538.67 728.1c.06.511 1.05 10 1.28 14.136-1.23 2.184-2.9 5.341-3.63 6.564 1.16-4.8 2.2-17.26 2.35-20.7Z" transform="translate(-1074.53 -526.438)"/><path id="_Path_133" data-name="&lt;Path&gt;" class="cls-1" d="M1501.7 884.4c.29-.429 5.43-8.344 7.49-11.948-.13-2.5-.23-6.073-.34-7.492-1.09 4.816-5.75 16.296-7.15 19.44Z" transform="translate(-1074.53 -526.438)"/><path id="_Path_134" data-name="&lt;Path&gt;" class="cls-1" d="M1540.21 763.056c-.05 2.031-.27 5.764-.35 7.819-1.38-3.911-2.81-7.9-4.49-11.94 1.8-2.249 3.42-4.4 4.93-6.536.02 4.116.01 6.551-.09 10.657Z" transform="translate(-1074.53 -526.438)"/><path id="_Path_135" data-name="&lt;Path&gt;" class="cls-1" d="M1518.26 855.587c.89-1.823 1.51-3.483 2.39-5.341-3.04 2.82-3.97 3.077-7.34 5.87a87.3 87.3 0 0 1 .06 8.941c1.93-3.634 3.06-5.791 4.89-9.47Z" transform="translate(-1074.53 -526.438)"/><path id="_Path_136" data-name="&lt;Path&gt;" class="cls-1" d="M1533.67 772.181c.34 1.082.68 2.172 1.01 3.267 1.23 4.113 2.29 8.186 3.15 12.118a129.38 129.38 0 0 1-6.45 7.98c-.76.873-1.53 1.737-2.33 2.6.98-4.727 1.89-9.5 2.73-14.248.67-3.892 1.31-7.809 1.89-11.717Z" transform="translate(-1074.53 -526.438)"/><path id="_Path_137" data-name="&lt;Path&gt;" class="cls-1" d="M1524.37 819.95c.2 1.121.38 2.247.56 3.377.65 4.243 1.13 8.423 1.44 12.436-2.29 2.33-4.75 4.633-7.48 7.014q-1.32 1.138-2.67 2.254a514.87 514.87 0 0 0 4.67-13.736 494.95 494.95 0 0 0 3.48-11.345Z" transform="translate(-1074.53 -526.438)"/><path id="_Path_138" data-name="&lt;Path&gt;" class="cls-1" d="M1535.46 800.617c-.65 3.12-1.5 7.46-2.21 10.531-.79 3.4-1.19 5.934-2.07 9.322-.93-3.459-2.65-7.015-3.88-10.658 2.8-3.029 5.74-6.222 8.16-9.195Z" transform="translate(-1074.53 -526.438)"/></g><path id="_Path_139" data-name="&lt;Path&gt;" class="cls-1" d="M1198.59 571.367a222.164 222.164 0 0 0-6.02-2.876 146.04 146.04 0 0 0-8.1-3.41c-3.15 4.159-6.29 8.6-9.33 13.221a293.81 293.81 0 0 0-4.01 6.311c3.43-1.815 6.91-3.6 10.4-5.322a448.377 448.377 0 0 1 17.06-7.924Z" transform="translate(-1074.53 -526.438)"/><path id="_Path_140" data-name="&lt;Path&gt;" class="cls-1" d="M1462.48 598.479c-2.13-.135-4.27-.224-6.45-.277a445.08 445.08 0 0 1 11.88 13.513c3.21 3.822 6.4 7.743 9.51 11.72q-.435-3.945-.95-7.716c-.8-5.694-1.7-10.963-2.76-16.052-3.52-.536-7.21-.924-11.23-1.188Z" transform="translate(-1074.53 -526.438)"/><path id="_Path_141" data-name="&lt;Path&gt;" class="cls-1" d="M1217 549.515a393.89 393.89 0 0 0-10.56 4.3c-4.65 2-9.29 4.1-13.83 6.279 1.02.445 2.07.906 3.15 1.4 3.3 1.506 6.7 3.171 10.35 5.066 2.86-4.87 5.69-9.385 8.63-13.761.75-1.12 1.51-2.214 2.26-3.284Z" transform="translate(-1074.53 -526.438)"/><path id="_Path_142" data-name="&lt;Path&gt;" class="cls-1" d="M1268 981.647c-.33 1.139-.64 2.209-.95 3.245-.04.135-.08.265-.11.392 3.87.241 7.78.392 11.68.459a273.452 273.452 0 0 1-10.62-4.096Z" transform="translate(-1074.53 -526.438)"/><path id="_Path_143" data-name="&lt;Path&gt;" class="cls-1" d="M1260.38 980.277c-4.07-.022-8.1-.126-12.04-.314 3.64 1.407 7.31 2.732 10.97 3.952.11-.383.24-.789.36-1.217.24-.779.47-1.581.71-2.421Z" transform="translate(-1074.53 -526.438)"/><path id="_Path_144" data-name="&lt;Path&gt;" class="cls-1" d="M1258.89 952.614c-4.08-2.46-8.18-5.018-12.23-7.642a498.893 498.893 0 0 1-17.65-12.017c-.32 3.748-.58 7.308-.8 10.759-.22 3.59-.38 6.918-.49 10.073 6.01.059 12.21-.056 18.46-.34 4.15-.201 8.41-.48 12.71-.833Z" transform="translate(-1074.53 -526.438)"/><path id="_Path_145" data-name="&lt;Path&gt;" class="cls-1" d="M1242.94 972.829a360.805 360.805 0 0 1-15.34-8.494c.02 1.365.05 2.674.1 3.943.08 1.75.18 3.326.31 4.8 5.19.679 10.55 1.207 15.95 1.566q1.41.086 2.85.161c-1.29-.648-2.59-1.305-3.87-1.976Z" transform="translate(-1074.53 -526.438)"/><path id="_Path_146" data-name="&lt;Path&gt;" class="cls-1" d="M1266.01 959.688c-6.59.65-13.13 1.136-19.47 1.446q-4.335.192-8.55.28c2.84 1.587 5.68 3.12 8.49 4.591a317.14 317.14 0 0 0 15.88 7.685c.5-1.838 1.01-3.788 1.56-5.887.67-2.568 1.36-5.254 2.09-8.115Z" transform="translate(-1074.53 -526.438)"/><path id="_Path_147" data-name="&lt;Path&gt;" class="cls-1" d="M1460.93 930.276c-1.42-.828-2.87-1.713-4.43-2.693-2.52 3.88-5.1 7.636-7.69 11.211.2-.124.39-.251.59-.379 4.01-2.567 7.96-5.243 11.8-7.981-.09-.052-.18-.107-.27-.158Z" transform="translate(-1074.53 -526.438)"/><path id="_Path_148" data-name="&lt;Path&gt;" class="cls-1" d="M1275.15 922.412c-7.59 1.476-15.17 2.8-22.6 3.953-5.48.835-10.96 1.584-16.37 2.242 4.92 3.454 9.84 6.777 14.66 9.91 5.88 3.8 11.84 7.462 17.75 10.9.94-3.78 1.92-7.772 2.97-12.087 1.16-4.794 2.35-9.717 3.59-14.918Z" transform="translate(-1074.53 -526.438)"/><path id="_Path_149" data-name="&lt;Path&gt;" class="cls-1" d="M1464.81 923.632c.9.524 1.73 1 2.52 1.424 2.92-3.791 5.79-7.769 8.56-11.864a319.6 319.6 0 0 1-13.36 9.081q1.17.714 2.28 1.359Z" transform="translate(-1074.53 -526.438)"/><path id="_Path_150" data-name="&lt;Path&gt;" class="cls-1" d="M1485.34 896.863c-.97-1.177-2.01-2.425-3.16-3.783-1.21-1.425-2.49-2.9-3.86-4.442a367.2 367.2 0 0 1-8.21 16.6q-1.41 2.648-2.85 5.246 2.46-1.694 4.84-3.416c4.57-3.303 9.01-6.73 13.24-10.205Z" transform="translate(-1074.53 -526.438)"/><path id="_Path_151" data-name="&lt;Path&gt;" class="cls-1" d="M1443.03 934.463c-2.16 1.2-4.36 2.374-6.57 3.534a382.808 382.808 0 0 1-15.01 7.431c1.15.447 2.27.865 3.38 1.261a93.04 93.04 0 0 0 6.81 2.131c3.23-3.715 6.44-7.7 9.56-11.862q.915-1.23 1.83-2.495Z" transform="translate(-1074.53 -526.438)"/><path id="_Path_152" data-name="&lt;Path&gt;" class="cls-1" d="M1422.74 954.109c-.16-.054-.32-.112-.47-.167h-.01c-2.9-1.032-5.85-2.2-8.99-3.551a224.488 224.488 0 0 1-8.94 12.226 311.66 311.66 0 0 0 6.73-2.942c3.9-1.767 7.82-3.631 11.68-5.566Z" transform="translate(-1074.53 -526.438)"/><path id="_Path_153" data-name="&lt;Path&gt;" class="cls-1" d="M1402.55 945.371a328.48 328.48 0 0 1-6.59-3.4c-4.26-2.28-8.57-4.716-13.14-7.4a353.246 353.246 0 0 1-7.79 15.321c-1.34 2.462-2.64 4.8-3.95 7.045 5.15-1.654 10.26-3.4 15.26-5.221 5.43-2 10.87-4.126 16.21-6.345Z" transform="translate(-1074.53 -526.438)"/><path id="_Path_154" data-name="&lt;Path&gt;" class="cls-1" d="M1097.98 761.782a233.885 233.885 0 0 0-8.82 5.586c2.52 5.01 5.31 10.144 8.29 15.286 1.82 3.112 3.75 6.292 5.78 9.5.24-4.868.55-9.785.95-14.69.55-6.737 1.27-13.623 2.13-20.528-2.9 1.639-5.65 3.237-8.33 4.846Z" transform="translate(-1074.53 -526.438)"/><path id="_Path_155" data-name="&lt;Path&gt;" class="cls-1" d="M1105.61 748.532a335.293 335.293 0 0 1-9.29-15 299.84 299.84 0 0 1-3.67-6.532 414.1 414.1 0 0 0-2.16 14.336 411.923 411.923 0 0 0-1.84 17.188q2.55-1.629 5.36-3.327c3.66-2.206 7.47-4.397 11.6-6.665Z" transform="translate(-1074.53 -526.438)"/><path id="_Path_156" data-name="&lt;Path&gt;" class="cls-1" d="M1215.42 922.915a549.141 549.141 0 0 1-15.1-11.961 576.761 576.761 0 0 1-16.29-13.95c0 4.318.05 8.472.18 12.593.16 5.065.42 9.743.79 14.241 5.45.1 11.05.046 17.05-.168 4.29-.164 8.77-.418 13.37-.755Z" transform="translate(-1074.53 -526.438)"/><path id="_Path_157" data-name="&lt;Path&gt;" class="cls-1" d="M1107.24 707.7a249.371 249.371 0 0 0-11.53 8.571c2.18 4.336 4.56 8.733 7.26 13.4 1.88 3.228 3.82 6.425 5.88 9.687a523.78 523.78 0 0 1 3.37-18.642q1.935-9.616 4.24-19.2c-3.18 2.05-6.23 4.095-9.22 6.184Z" transform="translate(-1074.53 -526.438)"/><path id="_Path_158" data-name="&lt;Path&gt;" class="cls-1" d="M1160.93 667.922c-4.06-4.177-7.88-8.154-11.59-12.067-2.91-3.088-5.64-6-8.23-8.813a493.623 493.623 0 0 0-6.94 19.884c-1.92 5.935-3.74 12-5.46 18.094 4.13-2.389 8.42-4.786 12.82-7.159a582.813 582.813 0 0 1 19.4-9.939Z" transform="translate(-1074.53 -526.438)"/><path id="_Path_159" data-name="&lt;Path&gt;" class="cls-1" d="M1132.08 649.316c-3.23 2.14-6.37 4.289-9.37 6.427a280.187 280.187 0 0 0-13.51 10.282c1.82 3.152 3.82 6.4 6.07 9.889 1.79 2.747 3.65 5.515 5.65 8.388a495.06 495.06 0 0 1 5.93-19.746 476.64 476.64 0 0 1 5.23-15.24Z" transform="translate(-1074.53 -526.438)"/><path id="_Path_160" data-name="&lt;Path&gt;" class="cls-1" d="M1116.98 692.063a331.198 331.198 0 0 1-8.16-11.963 255.277 255.277 0 0 1-3.56-5.646 433.741 433.741 0 0 0-4.74 16.3c-1.3 4.917-2.54 9.934-3.67 14.951 1.91-1.414 3.89-2.845 5.98-4.311a337.8 337.8 0 0 1 14.15-9.331Z" transform="translate(-1074.53 -526.438)"/><path id="_Path_161" data-name="&lt;Path&gt;" class="cls-1" d="M1171.56 885.561a569.207 569.207 0 0 1-15.36-15.113 567.26 567.26 0 0 1-12.94-13.737c.11 4.566.29 9.052.54 13.392.37 5.931.88 11.718 1.52 17.224 4.35-.1 8.9-.322 13.85-.669 4.04-.291 8.12-.658 12.39-1.097Z" transform="translate(-1074.53 -526.438)"/><path id="_Path_162" data-name="&lt;Path&gt;" class="cls-1" d="M1123.03 853.539c-2.55.447-4.96.845-7.26 1.206 3.68 4.841 7.56 9.7 11.55 14.466 3.06 3.631 6.25 7.281 9.52 10.9-.27-3.1-.51-6.252-.71-9.549-.37-6.187-.59-12.693-.66-19.368-4.38.873-8.48 1.645-12.44 2.345Z" transform="translate(-1074.53 -526.438)"/><path id="_Path_163" data-name="&lt;Path&gt;" class="cls-1" d="M1205.01 888.706a598.31 598.31 0 0 1-15.97 2.458 568.299 568.299 0 0 0 16.17 13.845 546.08 546.08 0 0 0 17.43 13.737 926.68 926.68 0 0 1 1.66-14.555c.78-6.317 1.63-12.742 2.57-19.506a745.958 745.958 0 0 1-21.86 4.021Z" transform="translate(-1074.53 -526.438)"/><path id="_Path_164" data-name="&lt;Path&gt;" class="cls-1" d="M1132.1 844.022a487.254 487.254 0 0 1-13.38-16.459c-2.82-3.65-5.58-7.348-8.26-11.043.05 4.263.17 8.466.35 12.56.31 6.29.77 12.48 1.39 18.426 2.98-.442 6.11-.952 9.5-1.543 3.33-.587 6.77-1.229 10.4-1.941Z" transform="translate(-1074.53 -526.438)"/><path id="_Path_165" data-name="&lt;Path&gt;" class="cls-1" d="M1121.43 794.809c4.66-1.706 9.47-3.448 14.57-5.277-4.75-5.791-9.33-11.6-13.65-17.287a491.95 491.95 0 0 1-8.7-11.909 470.92 470.92 0 0 0-1.8 17.76c-.56 6.963-.96 13.914-1.2 20.706 3.41-1.276 6.97-2.6 10.78-3.989Z" transform="translate(-1074.53 -526.438)"/><path id="_Path_166" data-name="&lt;Path&gt;" class="cls-1" d="M1124.07 802.035c-4.06 1.491-7.85 2.891-11.46 4.25 3.85 5.5 7.94 11.063 12.19 16.562 3.46 4.451 7.07 8.936 10.79 13.383.13-5.378.35-10.891.66-16.449a609.83 609.83 0 0 1 1.77-22.8c-4.88 1.749-9.48 3.419-13.95 5.054Z" transform="translate(-1074.53 -526.438)"/><path id="_Path_167" data-name="&lt;Path&gt;" class="cls-1" d="M1379.68 536.8c-4.66-2.052-9.38-4-14.06-5.789-.06.448-.12.915-.19 1.4-.18 1.3-.38 2.635-.6 4.071 5.57.2 11.04.517 16.3.964-.48-.214-.97-.429-1.45-.646Z" transform="translate(-1074.53 -526.438)"/><path id="_Path_168" data-name="&lt;Path&gt;" class="cls-1" d="M1382.21 540.913q-2.55-.093-5.19-.122c2.31 1.5 4.62 3.035 6.91 4.609a350.788 350.788 0 0 1 15.01 10.976c-.02-2.1-.06-4.123-.13-6.091-.11-2.927-.26-5.6-.48-8.1-5.17-.63-10.59-1.058-16.12-1.272Z" transform="translate(-1074.53 -526.438)"/><path id="_Path_169" data-name="&lt;Path&gt;" class="cls-1" d="m1342.48 528.468-1.11-.014c.03.01.05.024.08.034 5.14 2.133 10.4 4.5 15.69 7.054.21-1.372.41-2.665.6-3.925.13-.845.25-1.637.36-2.383-5.09-.402-10.34-.658-15.62-.766Z" transform="translate(-1074.53 -526.438)"/><path id="_Path_170" data-name="&lt;Path&gt;" class="cls-1" d="M1422.79 567.421q-3.285-.272-6.69-.458a417.5 417.5 0 0 1 10.85 8.881c4.42 3.755 8.85 7.671 13.2 11.684-.27-2.305-.57-4.547-.9-6.77a165.86 165.86 0 0 0-2.12-11.529c-4.59-.772-9.3-1.364-14.34-1.808Z" transform="translate(-1074.53 -526.438)"/><path id="_Path_171" data-name="&lt;Path&gt;" class="cls-1" d="M1425.82 559.283c-2.27-1.725-4.55-3.41-6.82-5.041a315.738 315.738 0 0 0-12.36-8.411c.06.736.11 1.488.16 2.256.21 3.217.33 6.57.39 10.193 5.7.091 11.23.361 16.48.8.72.066 1.44.131 2.15.203Z" transform="translate(-1074.53 -526.438)"/><path id="_Path_172" data-name="&lt;Path&gt;" class="cls-1" d="M1466.01 590.15c-3.02-2.876-6.1-5.7-9.2-8.46a353.442 353.442 0 0 0-9.74-8.314c.17.849.34 1.716.5 2.6.77 4.207 1.41 8.533 1.97 13.183 4.81.115 9.35.357 13.79.737h.01c.91.079 1.79.165 2.67.254Z" transform="translate(-1074.53 -526.438)"/><path id="_Path_173" data-name="&lt;Path&gt;" class="cls-1" d="M1500.32 869.545c-.94.763-1.9 1.523-2.86 2.276-4.55 3.55-9.39 7.1-14.41 10.56 1.8 2.015 3.44 3.9 4.98 5.713.73.847 1.41 1.657 2.05 2.431 2.53-4.715 4.97-9.572 7.28-14.47q1.5-3.193 2.96-6.51Z" transform="translate(-1074.53 -526.438)"/><path id="_Path_174" data-name="&lt;Path&gt;" class="cls-1" d="M1435.07 593.3a447.39 447.39 0 0 0-13.03-10.721c-4.96-3.9-10.02-7.7-15.07-11.333a394.99 394.99 0 0 1-.15 8.8c-.16 4.913-.39 9.92-.72 15.236 6.43-.666 12.74-1.187 18.8-1.547 3.54-.195 6.9-.342 10.17-.435Z" transform="translate(-1074.53 -526.438)"/><path id="_Path_175" data-name="&lt;Path&gt;" class="cls-1" d="M1248.66 552.877a231.072 231.072 0 0 0-7.32-2.952c-4.2-1.591-8.15-2.948-12.04-4.125-2.75 3.518-5.43 7.227-8.18 11.3a230.64 230.64 0 0 0-4.4 6.794 465.635 465.635 0 0 1 15.33-5.628c5.44-1.88 11.01-3.684 16.61-5.389Z" transform="translate(-1074.53 -526.438)"/><path id="_Path_176" data-name="&lt;Path&gt;" class="cls-1" d="M1344.68 535.191c-1.87-.827-3.73-1.624-5.56-2.385a259.724 259.724 0 0 0-15.56-5.855c-.86 1.678-1.74 3.49-2.66 5.469-.77 1.67-1.54 3.407-2.33 5.235a390.78 390.78 0 0 1 18.5-1.949q3.83-.295 7.61-.515Z" transform="translate(-1074.53 -526.438)"/><path id="_Path_177" data-name="&lt;Path&gt;" class="cls-1" d="M1315.15 526.584c-5.18.419-10.44.969-15.67 1.639-2.73.364-5.48.76-8.23 1.187 1.05.377 2.09.763 3.14 1.157a295.79 295.79 0 0 1 16.02 6.654c1.2-2.877 2.36-5.528 3.51-8.028q.63-1.351 1.23-2.609Z" transform="translate(-1074.53 -526.438)"/><path id="_Path_178" data-name="&lt;Path&gt;" class="cls-1" d="M1266.69 534.166c-4.7 1.089-9.43 2.279-14.09 3.553-4.08 1.123-8.2 2.335-12.31 3.621 1.24.448 2.51.913 3.79 1.4h.01c4.6 1.766 9.2 3.693 14.03 5.882 2.19-4.022 4.35-7.732 6.55-11.295.68-1.084 1.35-2.14 2.02-3.161Z" transform="translate(-1074.53 -526.438)"/><path id="_Path_179" data-name="&lt;Path&gt;" class="cls-1" d="M1529.13 711.378a269.415 269.415 0 0 0-7.69-15q-1.635-2.962-3.38-5.947c.11 2.647.2 5.321.27 8 .12 6.17.09 12.507-.09 18.89q2.91-1.5 5.54-2.919a184.56 184.56 0 0 0 5.35-3.024Z" transform="translate(-1074.53 -526.438)"/><path id="_Path_180" data-name="&lt;Path&gt;" class="cls-1" d="M1522.98 669.1c-2.42-4.408-5.01-8.83-7.72-13.178-.43-.688-.86-1.378-1.3-2.068.91 5.41 1.68 11.024 2.3 16.732 1.81-.417 3.5-.8 5.11-1.145.56-.126 1.1-.241 1.61-.341Z" transform="translate(-1074.53 -526.438)"/><path id="_Path_181" data-name="&lt;Path&gt;" class="cls-1" d="M1496.18 638.847q-2.52-.01-5.19.061a424.31 424.31 0 0 1 11.26 14.159c1.77 2.344 3.52 4.718 5.23 7.1-.27-1.814-.56-3.605-.85-5.356a239.815 239.815 0 0 0-3.25-15.706 119.47 119.47 0 0 0-7.2-.258Z" transform="translate(-1074.53 -526.438)"/><path id="_Path_182" data-name="&lt;Path&gt;" class="cls-1" d="M1522.99 676.955c-1.26.271-2.57.562-3.95.878 3.14 4.988 6.11 10 8.84 14.923.17.3.33.607.5.909-.06-.557-.13-1.107-.19-1.66-.65-5.3-1.46-10.55-2.4-15.633-.87.175-1.8.367-2.8.583Z" transform="translate(-1074.53 -526.438)"/><path id="_Path_183" data-name="&lt;Path&gt;" class="cls-1" d="M1179.43 622.506c-5.35 2.612-10.61 5.3-15.7 8.011-6.16 3.3-12.2 6.724-17.99 10.194 2.87 3.119 5.9 6.371 9.19 9.854 3.43 3.623 6.97 7.309 10.71 11.168a646.957 646.957 0 0 1 7.44-22.286 568.84 568.84 0 0 1 6.35-16.941Z" transform="translate(-1074.53 -526.438)"/><path id="_Path_184" data-name="&lt;Path&gt;" class="cls-1" d="M1527.46 721.159h-.01a277.954 277.954 0 0 1-7.85 4.1 302.581 302.581 0 0 1 8.57 15.481q.96 1.881 1.89 3.761c.16-2.961.28-5.906.36-8.811.14-5.421.14-10.854.02-16.188-.95.542-1.94 1.098-2.98 1.657Z" transform="translate(-1074.53 -526.438)"/><path id="_Path_185" data-name="&lt;Path&gt;" class="cls-1" d="M1485.11 906.793c1.14-1.321 3.67-4.423 6.06-7.481 1.93-2.473 3.68-4.8 4.66-6.205-3.99 2.327-4.4 2.584-6.16 3.679a318.132 318.132 0 0 0-4.24 9.267c-.1.247-.21.493-.32.74Z" transform="translate(-1074.53 -526.438)"/><path id="_Path_186" data-name="&lt;Path&gt;" class="cls-1" d="M1534.19 702.515c.4 1.7 1.24 5.611 1.97 9.423.59 3.081 1.08 5.949 1.32 7.646-2.5-3.893-2.74-4.307-3.81-6.084.1-3.392.25-6.8.46-10.179Z" transform="translate(-1074.53 -526.438)"/><path id="_Path_187" data-name="&lt;Path&gt;" class="cls-1" d="M1126.38 609.892c-1.2 1.447-3.88 4.838-6.4 8.178-2.03 2.7-3.86 5.24-4.88 6.769 4.4-2.61 4.85-2.9 6.78-4.122 1.46-3.314 2.86-6.667 4.19-10.024.1-.267.21-.534.31-.801Z" transform="translate(-1074.53 -526.438)"/><path id="_Path_188" data-name="&lt;Path&gt;" class="cls-1" d="M1084.99 825.258c-.56-1.8-1.74-5.954-2.79-10-.85-3.272-1.57-6.319-1.94-8.123 3.08 4.094 3.38 4.53 4.7 6.4.08 3.618.1 7.252.05 10.863-.01.287-.01.573-.02.86Z" transform="translate(-1074.53 -526.438)"/></g></g></svg>