<svg id="_Clip_Group_" data-name="&lt;Clip Group&gt;" xmlns="http://www.w3.org/2000/svg" width="283.094" height="262.938"><defs><style>.cls-1{fill:none;stroke:#e30234;stroke-width:.25px;fill-rule:evenodd}</style></defs><g id="_Group_" data-name="&lt;Group&gt;"><path id="_Path_" data-name="&lt;Path&gt;" class="cls-1" d="M448.7 758.486h.01v-.01h-.01v.01Z" transform="translate(-206.312 -516.031)"/><path id="_Path_2" data-name="&lt;Path&gt;" class="cls-1" d="m408.309 718.084-20.2 20.2h-.009l.009.01 20.191 20.182.01.01v-40.4Z" transform="translate(-206.312 -516.031)"/><path id="_Path_3" data-name="&lt;Path&gt;" class="cls-1" d="M367.916 758.486v-.01h-.01Z" transform="translate(-206.312 -516.031)"/><path id="_Path_4" data-name="&lt;Path&gt;" class="cls-1" d="M367.916 718.093v-.009h-.01Z" transform="translate(-206.312 -516.031)"/><path id="_Path_5" data-name="&lt;Path&gt;" class="cls-1" d="M428.505 657.485v.01h.009l20.186 20.187v-40.393l-20.2-20.2v40.392Z" transform="translate(-206.312 -516.031)"/><path id="_Path_6" data-name="&lt;Path&gt;" class="cls-1" d="m428.505 738.28 20.2-20.2h-20.2v-20.2l-20.2 20.2Z" transform="translate(-206.312 -516.031)"/><path id="_Path_7" data-name="&lt;Path&gt;" class="cls-1" d="M367.906 718.084 347.72 697.9v20.187h20.186Z" transform="translate(-206.312 -516.031)"/><path id="_Path_8" data-name="&lt;Path&gt;" class="cls-1" d="M468.907 738.29v-.01h-.007v.01h.01Z" transform="translate(-206.312 -516.031)"/><path id="_Path_9" data-name="&lt;Path&gt;" class="cls-1" d="M468.9 677.691V657.5l-20.186 20.2 20.186 20.178v-20.187Z" transform="translate(-206.312 -516.031)"/><path id="_Path_10" data-name="&lt;Path&gt;" class="cls-1" d="M347.72 738.29v-.01h-.01Z" transform="translate(-206.312 -516.031)"/><path id="_Path_11" data-name="&lt;Path&gt;" class="cls-1" d="M468.9 516.155h-20.2l20.2 20.2v-20.2Z" transform="translate(-206.312 -516.031)"/><path id="_Path_12" data-name="&lt;Path&gt;" class="cls-1" d="M367.916 556.505V596.9l20.2-20.2Z" transform="translate(-206.312 -516.031)"/><path id="_Path_13" data-name="&lt;Path&gt;" class="cls-1" d="M212.107 630.284v34.207l17.1-17.1Z" transform="translate(-206.312 -516.031)"/><path id="_Path_14" data-name="&lt;Path&gt;" class="cls-1" d="M206.447 727.305v34.207l17.1-17.1Z" transform="translate(-206.312 -516.031)"/><path id="_Path_15" data-name="&lt;Path&gt;" class="cls-1" d="m388.112 617.093 20.2 20.2v-20.2h-20.2Z" transform="translate(-206.312 -516.031)"/><path id="_Path_16" data-name="&lt;Path&gt;" class="cls-1" d="M266.926 677.691v20.2l20.2-20.2-20.2-20.2v20.2Z" transform="translate(-206.312 -516.031)"/><path id="_Path_17" data-name="&lt;Path&gt;" class="cls-1" d="M468.9 556.505h-20.2l20.2 20.2 20.2-20.2h-20.2Z" transform="translate(-206.312 -516.031)"/><path id="_Path_18" data-name="&lt;Path&gt;" class="cls-1" d="M468.9 596.9h-20.2l20.2 20.2v-20.2Z" transform="translate(-206.312 -516.031)"/><path id="_Path_19" data-name="&lt;Path&gt;" class="cls-1" d="M327.514 637.289 307.328 617.1h-.01v20.2h20.2v-.01Z" transform="translate(-206.312 -516.031)"/><path id="_Path_20" data-name="&lt;Path&gt;" class="cls-1" d="M388.112 637.3v20.186L408.3 637.3h-20.188Z" transform="translate(-206.312 -516.031)"/><path id="_Path_21" data-name="&lt;Path&gt;" class="cls-1" d="m468.9 617.093-20.2-20.2-20.2-20.2v40.392h40.4Z" transform="translate(-206.312 -516.031)"/><path id="_Path_22" data-name="&lt;Path&gt;" class="cls-1" d="M468.9 596.9v20.2l20.2-20.2-20.2-20.2v20.2Z" transform="translate(-206.312 -516.031)"/><path id="_Path_23" data-name="&lt;Path&gt;" class="cls-1" d="M468.9 657.5v40.392h.01l20.186-20.2v-.009L468.907 657.5h-.007Z" transform="translate(-206.312 -516.031)"/><path id="_Path_24" data-name="&lt;Path&gt;" class="cls-1" d="M468.9 697.887v-.009l-20.186-20.187h-.014v-.009L428.514 657.5h-.009v60.589h60.588v-.01l-20.186-20.187h-.007Z" transform="translate(-206.312 -516.031)"/><path id="_Path_25" data-name="&lt;Path&gt;" class="cls-1" d="M489.093 778.672v-20.186l-20.186 20.186h20.186Z" transform="translate(-206.312 -516.031)"/><path id="_Path_26" data-name="&lt;Path&gt;" class="cls-1" d="M468.9 738.28h.01v.01l20.186 20.186v-40.392H468.9v20.2Z" transform="translate(-206.312 -516.031)"/><path id="_Path_27" data-name="&lt;Path&gt;" class="cls-1" d="M489.093 718.074v-40.383l-20.186 20.2Z" transform="translate(-206.312 -516.031)"/><path id="_Path_28" data-name="&lt;Path&gt;" class="cls-1" d="M489.093 677.682V637.3l-20.186 20.2Z" transform="translate(-206.312 -516.031)"/><path id="_Path_29" data-name="&lt;Path&gt;" class="cls-1" d="m468.9 738.29-20.186 20.186h40.382l-20.189-20.186h-.007Z" transform="translate(-206.312 -516.031)"/><path id="_Path_30" data-name="&lt;Path&gt;" class="cls-1" d="M448.7 758.476h.01l20.19-20.186v-.01l-20.2-20.2v40.392Z" transform="translate(-206.312 -516.031)"/><path id="_Path_31" data-name="&lt;Path&gt;" class="cls-1" d="M448.711 758.476v.01l20.189 20.186h.01l20.186-20.186v-.01h-40.385Z" transform="translate(-206.312 -516.031)"/><path id="_Path_32" data-name="&lt;Path&gt;" class="cls-1" d="M468.9 718.084h-20.2l20.2 20.2v-20.2Z" transform="translate(-206.312 -516.031)"/><path id="_Path_33" data-name="&lt;Path&gt;" class="cls-1" d="M448.711 637.3h-.011v40.392h.01L468.9 657.5h.01l20.186-20.2h-40.385Z" transform="translate(-206.312 -516.031)"/><path id="_Path_34" data-name="&lt;Path&gt;" class="cls-1" d="M448.7 637.289v.01h40.392V596.9l-20.2 20.2Z" transform="translate(-206.312 -516.031)"/><path id="_Path_35" data-name="&lt;Path&gt;" class="cls-1" d="M468.9 617.093h-40.395l20.2 20.2Z" transform="translate(-206.312 -516.031)"/><path id="_Path_36" data-name="&lt;Path&gt;" class="cls-1" d="M448.7 758.486v-.01l-20.2-20.2-20.2 20.2v.01l20.2 20.186h40.4l-20.186-20.186h-.014Z" transform="translate(-206.312 -516.031)"/><path id="_Path_37" data-name="&lt;Path&gt;" class="cls-1" d="M448.7 758.476v-40.392l-20.2 20.2Z" transform="translate(-206.312 -516.031)"/><path id="_Path_38" data-name="&lt;Path&gt;" class="cls-1" d="M428.505 697.887v-80.794l-20.2 20.2v.01h-.005l-20.187 20.186v.01l20.187 20.2h.01Z" transform="translate(-206.312 -516.031)"/><path id="_Path_39" data-name="&lt;Path&gt;" class="cls-1" d="M408.309 697.887v20.2l20.2-20.2-20.2-20.2v20.2Z" transform="translate(-206.312 -516.031)"/><path id="_Path_40" data-name="&lt;Path&gt;" class="cls-1" d="M408.309 738.28v20.2l20.2-20.2-20.2-20.2v20.2Z" transform="translate(-206.312 -516.031)"/><path id="_Path_41" data-name="&lt;Path&gt;" class="cls-1" d="M388.112 778.672H428.5l-20.186-20.186Z" transform="translate(-206.312 -516.031)"/><path id="_Path_42" data-name="&lt;Path&gt;" class="cls-1" d="M388.112 697.887h-.012l-20.187 20.187v.01h40.393v-40.393h-.006l-20.187 20.187v.009Z" transform="translate(-206.312 -516.031)"/><path id="_Path_43" data-name="&lt;Path&gt;" class="cls-1" d="m408.3 758.476-20.188-20.186v40.382l20.2-20.186Z" transform="translate(-206.312 -516.031)"/><path id="_Path_44" data-name="&lt;Path&gt;" class="cls-1" d="m388.112 738.29-20.2 20.186v.01l-20.2 20.186h40.392V738.29Z" transform="translate(-206.312 -516.031)"/><path id="_Path_45" data-name="&lt;Path&gt;" class="cls-1" d="M388.112 697.887v-.009l20.188-20.187h-40.384l20.187 20.2h.009Z" transform="translate(-206.312 -516.031)"/><path id="_Path_46" data-name="&lt;Path&gt;" class="cls-1" d="m367.916 718.074 20.184-20.187-20.187-20.2v40.383Z" transform="translate(-206.312 -516.031)"/><path id="_Path_47" data-name="&lt;Path&gt;" class="cls-1" d="M367.916 718.084v-40.393h-.01l-20.186 20.187v.022l20.186 20.187h.01Z" transform="translate(-206.312 -516.031)"/><path id="_Path_48" data-name="&lt;Path&gt;" class="cls-1" d="M367.916 677.682 388.1 657.5h-40.38l20.186 20.2h.01v-.009Z" transform="translate(-206.312 -516.031)"/><path id="_Path_49" data-name="&lt;Path&gt;" class="cls-1" d="M367.906 758.476h.01l20.2-20.186-.009-.01h.009l20.2-20.2h-40.4v.009l-.01-.009H347.72v60.588l20.2-20.186Z" transform="translate(-206.312 -516.031)"/><path id="_Path_50" data-name="&lt;Path&gt;" class="cls-1" d="M347.72 617.1v40.382l20.186-20.182Z" transform="translate(-206.312 -516.031)"/><path id="_Path_51" data-name="&lt;Path&gt;" class="cls-1" d="m347.72 738.29-.01-.01-20.2 20.2-20.2 20.2h40.4v-40.39Z" transform="translate(-206.312 -516.031)"/><path id="_Path_52" data-name="&lt;Path&gt;" class="cls-1" d="M327.514 738.28v20.2l20.2-20.2h-20.2Z" transform="translate(-206.312 -516.031)"/><path id="_Path_53" data-name="&lt;Path&gt;" class="cls-1" d="M327.514 677.691v40.393l20.2-20.2Z" transform="translate(-206.312 -516.031)"/><path id="_Path_54" data-name="&lt;Path&gt;" class="cls-1" d="M347.71 738.28h.01V697.9l-.01-.01-20.2 20.2-20.2 20.2h40.4Z" transform="translate(-206.312 -516.031)"/><path id="_Path_55" data-name="&lt;Path&gt;" class="cls-1" d="m307.318 738.28 20.2 20.2v-20.2h-20.2Z" transform="translate(-206.312 -516.031)"/><path id="_Path_56" data-name="&lt;Path&gt;" class="cls-1" d="m287.122 677.691 20.2 20.2 20.2-20.2h-40.4Z" transform="translate(-206.312 -516.031)"/><path id="_Path_57" data-name="&lt;Path&gt;" class="cls-1" d="M287.122 738.28v-20.2l-20.2 20.2h20.2Z" transform="translate(-206.312 -516.031)"/><path id="_Path_58" data-name="&lt;Path&gt;" class="cls-1" d="M246.729 718.084v-20.2h-20.2Z" transform="translate(-206.312 -516.031)"/></g></svg>