<svg id="_Clip_Group_" data-name="&lt;Clip Group&gt;" xmlns="http://www.w3.org/2000/svg" width="299.75" height="268.562"><defs><style>.cls-1{fill:none;stroke:#e30234;stroke-width:.25px;fill-rule:evenodd}</style></defs><g id="_Group_" data-name="&lt;Group&gt;"><g id="_Group_2" data-name="&lt;Group&gt;"><g id="_Group_3" data-name="&lt;Group&gt;"><g id="_Group_4" data-name="&lt;Group&gt;"><path id="_Path_" data-name="&lt;Path&gt;" class="cls-1" d="m754.412 712.953-4.84-7.17-4.978 7.17h9.818Z" transform="translate(-637.562 -444.5)"/></g><g id="_Group_5" data-name="&lt;Group&gt;"><path id="_Path_2" data-name="&lt;Path&gt;" class="cls-1" d="M773.8 712.953 769.1 706l-19.53-.215 4.84 7.17h19.39Z" transform="translate(-637.562 -444.5)"/></g></g></g><g id="_Group_6" data-name="&lt;Group&gt;"><g id="_Group_7" data-name="&lt;Group&gt;"><path id="_Path_3" data-name="&lt;Path&gt;" class="cls-1" d="m812.685 712.953-4.52-6.7-4.649 6.7h9.169Z" transform="translate(-637.562 -444.5)"/></g><g id="_Group_8" data-name="&lt;Group&gt;"><path id="_Path_4" data-name="&lt;Path&gt;" class="cls-1" d="m832.07 712.953-4.375-6.481-19.53-.215 4.52 6.7h19.385Z" transform="translate(-637.562 -444.5)"/></g></g><g id="_Group_9" data-name="&lt;Group&gt;"><g id="_Group_10" data-name="&lt;Group&gt;"><path id="_Path_5" data-name="&lt;Path&gt;" class="cls-1" d="m783.836 712.953 4.8-6.912-9.65-14.3-9.886 14.235 4.709 6.977h10.024Z" transform="translate(-637.562 -444.5)"/></g><g id="_Group_11" data-name="&lt;Group&gt;"><path id="_Path_6" data-name="&lt;Path&gt;" class="cls-1" d="m778.984 691.745 19.53.215 9.651 14.3-19.531-.216Z" transform="translate(-637.562 -444.5)"/></g><g id="_Group_12" data-name="&lt;Group&gt;"><path id="_Path_7" data-name="&lt;Path&gt;" class="cls-1" d="m803.516 712.953 4.649-6.7-19.531-.216-4.8 6.912h19.68Z" transform="translate(-637.562 -444.5)"/></g></g><g id="_Group_13" data-name="&lt;Group&gt;"><g id="_Group_14" data-name="&lt;Group&gt;"><path id="_Path_8" data-name="&lt;Path&gt;" class="cls-1" d="m759.453 691.53-9.881 14.231-9.65-14.3Z" transform="translate(-637.562 -444.5)"/></g><g id="_Group_15" data-name="&lt;Group&gt;"><path id="_Path_9" data-name="&lt;Path&gt;" class="cls-1" d="m749.8 677.233 19.53.216 9.651 14.3-19.531-.215Z" transform="translate(-637.562 -444.5)"/></g><g id="_Group_16" data-name="&lt;Group&gt;"><path id="_Path_10" data-name="&lt;Path&gt;" class="cls-1" d="m769.333 677.449 9.651 14.3-19.531-.215Z" transform="translate(-637.562 -444.5)"/></g><g id="_Group_17" data-name="&lt;Group&gt;"><path id="_Path_11" data-name="&lt;Path&gt;" class="cls-1" d="m759.453 691.53 19.531.215-9.884 14.231-19.531-.215Z" transform="translate(-637.562 -444.5)"/></g><g id="_Group_18" data-name="&lt;Group&gt;"><path id="_Path_12" data-name="&lt;Path&gt;" class="cls-1" d="m759.453 691.53 19.531.215-9.884 14.231Z" transform="translate(-637.562 -444.5)"/></g></g><g id="_Group_19" data-name="&lt;Group&gt;"><g id="_Group_20" data-name="&lt;Group&gt;"><path id="_Path_13" data-name="&lt;Path&gt;" class="cls-1" d="m926.732 536.262 9.65 14.3-9.882 14.228-9.65-14.3Z" transform="translate(-637.562 -444.5)"/></g></g><g id="_Group_21" data-name="&lt;Group&gt;"><g id="_Group_22" data-name="&lt;Group&gt;"><path id="_Path_14" data-name="&lt;Path&gt;" class="cls-1" d="m870.965 712.953-4.207-6.241-4.328 6.241h8.535Z" transform="translate(-637.562 -444.5)"/></g><g id="_Group_23" data-name="&lt;Group&gt;"><path id="_Path_15" data-name="&lt;Path&gt;" class="cls-1" d="m890.343 712.953-4.055-6.007-19.53-.234 4.207 6.241h19.378Z" transform="translate(-637.562 -444.5)"/></g></g><g id="_Group_24" data-name="&lt;Group&gt;"><g id="_Group_25" data-name="&lt;Group&gt;"><path id="_Path_16" data-name="&lt;Path&gt;" class="cls-1" d="m842.757 712.953 4.47-6.438-9.651-14.3-9.876 14.235 4.39 6.5h10.672Z" transform="translate(-637.562 -444.5)"/></g><g id="_Group_26" data-name="&lt;Group&gt;"><path id="_Path_17" data-name="&lt;Path&gt;" class="cls-1" d="m837.576 692.219 19.531.215 9.651 14.278-19.531-.2Z" transform="translate(-637.562 -444.5)"/></g><g id="_Group_27" data-name="&lt;Group&gt;"><path id="_Path_18" data-name="&lt;Path&gt;" class="cls-1" d="m862.43 712.953 4.328-6.241-19.531-.2-4.47 6.438h19.673Z" transform="translate(-637.562 -444.5)"/></g></g><g id="_Group_28" data-name="&lt;Group&gt;"><g id="_Group_29" data-name="&lt;Group&gt;"><path id="_Path_19" data-name="&lt;Path&gt;" class="cls-1" d="m808.4 677.707 9.651 14.3-9.881 14.232-9.651-14.3Z" transform="translate(-637.562 -444.5)"/></g><g id="_Group_30" data-name="&lt;Group&gt;"><path id="_Path_20" data-name="&lt;Path&gt;" class="cls-1" d="m808.4 677.707 19.531.215 9.65 14.3-19.535-.222Z" transform="translate(-637.562 -444.5)"/></g><g id="_Group_31" data-name="&lt;Group&gt;"><path id="_Path_21" data-name="&lt;Path&gt;" class="cls-1" d="m818.046 692 19.53.216-9.876 14.234-19.53-.215Z" transform="translate(-637.562 -444.5)"/></g></g><g id="_Group_32" data-name="&lt;Group&gt;"><g id="_Group_33" data-name="&lt;Group&gt;"><g id="_Group_34" data-name="&lt;Group&gt;"><path id="_Path_22" data-name="&lt;Path&gt;" class="cls-1" d="m779.214 663.217 9.651 14.3-9.881 14.231-9.651-14.3Z" transform="translate(-637.562 -444.5)"/></g><g id="_Group_35" data-name="&lt;Group&gt;"><path id="_Path_23" data-name="&lt;Path&gt;" class="cls-1" d="m779.214 663.217 19.531.216 9.65 14.3-19.53-.215Z" transform="translate(-637.562 -444.5)"/></g><g id="_Group_36" data-name="&lt;Group&gt;"><path id="_Path_24" data-name="&lt;Path&gt;" class="cls-1" d="m788.865 677.514 19.53.215-9.881 14.231-19.53-.215Z" transform="translate(-637.562 -444.5)"/></g></g><g id="_Group_37" data-name="&lt;Group&gt;"><g id="_Group_38" data-name="&lt;Group&gt;"><path id="_Path_25" data-name="&lt;Path&gt;" class="cls-1" d="m750.033 648.706 9.651 14.3-9.884 14.227-9.651-14.3Z" transform="translate(-637.562 -444.5)"/></g><g id="_Group_39" data-name="&lt;Group&gt;"><path id="_Path_26" data-name="&lt;Path&gt;" class="cls-1" d="m759.684 663-9.884 14.233-9.651-14.3Z" transform="translate(-637.562 -444.5)"/></g><g id="_Group_40" data-name="&lt;Group&gt;"><path id="_Path_27" data-name="&lt;Path&gt;" class="cls-1" d="m750.033 648.706 19.531.215 9.65 14.3-19.53-.221Z" transform="translate(-637.562 -444.5)"/></g><g id="_Group_41" data-name="&lt;Group&gt;"><path id="_Path_28" data-name="&lt;Path&gt;" class="cls-1" d="m759.684 663 19.53.215-9.881 14.232-19.53-.216Z" transform="translate(-637.562 -444.5)"/></g></g><g id="_Group_42" data-name="&lt;Group&gt;"><g id="_Group_43" data-name="&lt;Group&gt;"><path id="_Path_29" data-name="&lt;Path&gt;" class="cls-1" d="m740.383 634.352 19.531.215 9.65 14.3-19.53-.216Z" transform="translate(-637.562 -444.5)"/></g></g></g><g id="_Group_44" data-name="&lt;Group&gt;"><g id="_Group_45" data-name="&lt;Group&gt;"><g id="_Group_46" data-name="&lt;Group&gt;"><path id="_Path_30" data-name="&lt;Path&gt;" class="cls-1" d="m901.664 712.953 4.156-5.986-9.651-14.3-9.881 14.233 4.085 6.051h11.291Z" transform="translate(-637.562 -444.5)"/></g></g><g id="_Group_47" data-name="&lt;Group&gt;"><g id="_Group_48" data-name="&lt;Group&gt;"><path id="_Path_31" data-name="&lt;Path&gt;" class="cls-1" d="m866.988 678.159 9.651 14.3-9.881 14.257-9.651-14.322Z" transform="translate(-637.562 -444.5)"/></g><g id="_Group_49" data-name="&lt;Group&gt;"><path id="_Path_32" data-name="&lt;Path&gt;" class="cls-1" d="m866.988 678.159 19.531.215 9.65 14.3-19.53-.216Z" transform="translate(-637.562 -444.5)"/></g><g id="_Group_50" data-name="&lt;Group&gt;"><path id="_Path_33" data-name="&lt;Path&gt;" class="cls-1" d="m886.519 678.374 9.65 14.3-19.53-.216Z" transform="translate(-637.562 -444.5)"/></g><g id="_Group_51" data-name="&lt;Group&gt;"><path id="_Path_34" data-name="&lt;Path&gt;" class="cls-1" d="m876.639 692.455 19.53.216-9.881 14.229Z" transform="translate(-637.562 -444.5)"/></g><g id="_Group_52" data-name="&lt;Group&gt;"><path id="_Path_35" data-name="&lt;Path&gt;" class="cls-1" d="m876.639 692.455 9.649 14.447-19.53-.19Z" transform="translate(-637.562 -444.5)"/></g></g></g><g id="_Group_53" data-name="&lt;Group&gt;"><g id="_Group_54" data-name="&lt;Group&gt;"><path id="_Path_36" data-name="&lt;Path&gt;" class="cls-1" d="m837.807 663.669 9.651 14.3-9.881 14.231-9.651-14.3Z" transform="translate(-637.562 -444.5)"/></g><g id="_Group_55" data-name="&lt;Group&gt;"><path id="_Path_37" data-name="&lt;Path&gt;" class="cls-1" d="m847.458 677.966-9.881 14.234-9.651-14.3Z" transform="translate(-637.562 -444.5)"/></g><g id="_Group_56" data-name="&lt;Group&gt;"><path id="_Path_38" data-name="&lt;Path&gt;" class="cls-1" d="m838.037 635.213 9.881-14.232 9.65 14.354Z" transform="translate(-637.562 -444.5)"/></g><g id="_Group_57" data-name="&lt;Group&gt;"><path id="_Path_39" data-name="&lt;Path&gt;" class="cls-1" d="m837.807 663.669 19.531.216 9.65 14.3-19.53-.215Z" transform="translate(-637.562 -444.5)"/></g><g id="_Group_58" data-name="&lt;Group&gt;"><path id="_Path_40" data-name="&lt;Path&gt;" class="cls-1" d="m847.458 677.966 19.53.215-9.881 14.231Z" transform="translate(-637.562 -444.5)"/></g><g id="_Group_59" data-name="&lt;Group&gt;"><path id="_Path_41" data-name="&lt;Path&gt;" class="cls-1" d="m847.458 677.966 19.53.215-9.881 14.231-19.53-.215Z" transform="translate(-637.562 -444.5)"/></g></g><g id="_Group_60" data-name="&lt;Group&gt;"><g id="_Group_61" data-name="&lt;Group&gt;"><path id="_Path_42" data-name="&lt;Path&gt;" class="cls-1" d="m808.626 649.158 9.651 14.3-9.877 14.227-9.651-14.3Z" transform="translate(-637.562 -444.5)"/></g><g id="_Group_62" data-name="&lt;Group&gt;"><path id="_Path_43" data-name="&lt;Path&gt;" class="cls-1" d="m808.626 649.158 19.53.215 9.651 14.3-19.53-.215Z" transform="translate(-637.562 -444.5)"/></g><g id="_Group_63" data-name="&lt;Group&gt;"><path id="_Path_44" data-name="&lt;Path&gt;" class="cls-1" d="m818.277 663.454 19.53.215-9.881 14.231-19.53-.216Z" transform="translate(-637.562 -444.5)"/></g></g><g id="_Group_64" data-name="&lt;Group&gt;"><g id="_Group_65" data-name="&lt;Group&gt;"><path id="_Path_45" data-name="&lt;Path&gt;" class="cls-1" d="m779.445 634.646 9.651 14.3-9.881 14.232-9.651-14.3Z" transform="translate(-637.562 -444.5)"/></g><g id="_Group_66" data-name="&lt;Group&gt;"><path id="_Path_46" data-name="&lt;Path&gt;" class="cls-1" d="m779.445 634.646 19.53.215 9.651 14.3-19.53-.216Z" transform="translate(-637.562 -444.5)"/></g><g id="_Group_67" data-name="&lt;Group&gt;"><path id="_Path_47" data-name="&lt;Path&gt;" class="cls-1" d="m789.1 648.942 19.53.216-9.881 14.231-19.53-.215Z" transform="translate(-637.562 -444.5)"/></g></g><g id="_Group_68" data-name="&lt;Group&gt;"><g id="_Group_69" data-name="&lt;Group&gt;"><path id="_Path_48" data-name="&lt;Path&gt;" class="cls-1" d="m759.915 634.431 19.53.215-9.881 14.231-19.53-.215Z" transform="translate(-637.562 -444.5)"/></g></g><g id="_Group_70" data-name="&lt;Group&gt;"><g id="_Group_71" data-name="&lt;Group&gt;"><path id="_Path_49" data-name="&lt;Path&gt;" class="cls-1" d="m896.4 664.165 9.65 14.3-9.881 14.231-9.651-14.3Z" transform="translate(-637.562 -444.5)"/></g></g><g id="_Group_72" data-name="&lt;Group&gt;"><g id="_Group_73" data-name="&lt;Group&gt;"><path id="_Path_50" data-name="&lt;Path&gt;" class="cls-1" d="m906.05 678.461 9.651 14.3-9.881 14.232-9.651-14.3Z" transform="translate(-637.562 -444.5)"/></g></g><g id="_Group_74" data-name="&lt;Group&gt;"><g id="_Group_75" data-name="&lt;Group&gt;"><path id="_Path_51" data-name="&lt;Path&gt;" class="cls-1" d="m867.219 649.653 9.65 14.3-9.881 14.232-9.65-14.3Z" transform="translate(-637.562 -444.5)"/></g><g id="_Group_76" data-name="&lt;Group&gt;"><path id="_Path_52" data-name="&lt;Path&gt;" class="cls-1" d="m867.219 649.653 19.53.215 9.651 14.3-19.531-.216Z" transform="translate(-637.562 -444.5)"/></g><g id="_Group_77" data-name="&lt;Group&gt;"><path id="_Path_53" data-name="&lt;Path&gt;" class="cls-1" d="m847.918 621.039 19.531.136 9.65 14.375-19.531-.215Z" transform="translate(-637.562 -444.5)"/></g><g id="_Group_78" data-name="&lt;Group&gt;"><path id="_Path_54" data-name="&lt;Path&gt;" class="cls-1" d="m876.869 663.949 19.531.216-9.882 14.235-19.53-.215Z" transform="translate(-637.562 -444.5)"/></g></g><g id="_Group_79" data-name="&lt;Group&gt;"><g id="_Group_80" data-name="&lt;Group&gt;"><g id="_Group_81" data-name="&lt;Group&gt;"><path id="_Path_55" data-name="&lt;Path&gt;" class="cls-1" d="m819.2 549.464 19.532.1 9.88-14.138-19.531-.1Z" transform="translate(-637.562 -444.5)"/></g></g><g id="_Group_82" data-name="&lt;Group&gt;"><g id="_Group_83" data-name="&lt;Group&gt;"><path id="_Path_56" data-name="&lt;Path&gt;" class="cls-1" d="m789.787 563.5 9.88-14.139-19.53-.251Z" transform="translate(-637.562 -444.5)"/></g><g id="_Group_84" data-name="&lt;Group&gt;"><path id="_Path_57" data-name="&lt;Path&gt;" class="cls-1" d="m789.787 563.5 19.531.1 9.88-14.138-19.531-.1Z" transform="translate(-637.562 -444.5)"/></g><g id="_Group_85" data-name="&lt;Group&gt;"><path id="_Path_58" data-name="&lt;Path&gt;" class="cls-1" d="m789.787 563.5 9.88-14.139-9.65-14.389-9.88 14.138Z" transform="translate(-637.562 -444.5)"/></g><g id="_Group_86" data-name="&lt;Group&gt;"><path id="_Path_59" data-name="&lt;Path&gt;" class="cls-1" d="m799.667 549.363 19.531.1-9.649-14.39-19.532-.1Z" transform="translate(-637.562 -444.5)"/></g><g id="_Group_87" data-name="&lt;Group&gt;"><path id="_Path_60" data-name="&lt;Path&gt;" class="cls-1" d="m819.2 549.521 9.882-14.289-19.532-.1Z" transform="translate(-637.562 -444.5)"/></g></g><g id="_Group_88" data-name="&lt;Group&gt;"><g id="_Group_89" data-name="&lt;Group&gt;"><path id="_Path_61" data-name="&lt;Path&gt;" class="cls-1" d="m760.375 577.54 9.88-14.139-9.649-14.389-9.881 14.138Z" transform="translate(-637.562 -444.5)"/></g><g id="_Group_90" data-name="&lt;Group&gt;"><path id="_Path_62" data-name="&lt;Path&gt;" class="cls-1" d="m760.375 577.54 19.531.1 9.881-14.138-19.532-.1Z" transform="translate(-637.562 -444.5)"/></g><g id="_Group_91" data-name="&lt;Group&gt;"><path id="_Path_63" data-name="&lt;Path&gt;" class="cls-1" d="m770.255 563.4 19.532.1-9.65-14.39-19.531-.1Z" transform="translate(-637.562 -444.5)"/></g></g></g><g id="_Group_92" data-name="&lt;Group&gt;"><g id="_Group_93" data-name="&lt;Group&gt;"><path id="_Path_64" data-name="&lt;Path&gt;" class="cls-1" d="m877.791 549.937 19.532.1L907.2 535.9l-19.531-.1Z" transform="translate(-637.562 -444.5)"/></g></g><g id="_Group_94" data-name="&lt;Group&gt;"><g id="_Group_95" data-name="&lt;Group&gt;"><path id="_Path_65" data-name="&lt;Path&gt;" class="cls-1" d="m818.968 578.013 9.88-14.138-9.65-14.389-9.88 14.138Z" transform="translate(-637.562 -444.5)"/></g><g id="_Group_96" data-name="&lt;Group&gt;"><path id="_Path_66" data-name="&lt;Path&gt;" class="cls-1" d="m818.968 578.013 19.531.1 9.88-14.139-19.531-.1Z" transform="translate(-637.562 -444.5)"/></g><g id="_Group_97" data-name="&lt;Group&gt;"><path id="_Path_67" data-name="&lt;Path&gt;" class="cls-1" d="m828.848 563.875 19.531.1-9.649-14.389-19.532-.1Z" transform="translate(-637.562 -444.5)"/></g></g><g id="_Group_98" data-name="&lt;Group&gt;"><g id="_Group_99" data-name="&lt;Group&gt;"><path id="_Path_68" data-name="&lt;Path&gt;" class="cls-1" d="m760.144 606.089 9.88-14.138-9.649-14.39-9.881 14.139Z" transform="translate(-637.562 -444.5)"/></g><g id="_Group_100" data-name="&lt;Group&gt;"><path id="_Path_69" data-name="&lt;Path&gt;" class="cls-1" d="m770.024 591.951-9.649-14.39-9.881 14.139Z" transform="translate(-637.562 -444.5)"/></g><g id="_Group_101" data-name="&lt;Group&gt;"><path id="_Path_70" data-name="&lt;Path&gt;" class="cls-1" d="m760.144 606.089 19.531.1 9.881-14.138-19.532-.1Z" transform="translate(-637.562 -444.5)"/></g><g id="_Group_102" data-name="&lt;Group&gt;"><path id="_Path_71" data-name="&lt;Path&gt;" class="cls-1" d="m779.675 606.189 9.881-14.138-19.532-.1Z" transform="translate(-637.562 -444.5)"/></g><g id="_Group_103" data-name="&lt;Group&gt;"><path id="_Path_72" data-name="&lt;Path&gt;" class="cls-1" d="m760.375 577.539 19.531.1-9.649-14.389-19.532-.1Z" transform="translate(-637.562 -444.5)"/></g></g><g id="_Group_104" data-name="&lt;Group&gt;"><g id="_Group_105" data-name="&lt;Group&gt;"><path id="_Path_73" data-name="&lt;Path&gt;" class="cls-1" d="m906.972 564.449 9.881-14.138-9.65-14.39-9.881 14.139Z" transform="translate(-637.562 -444.5)"/></g></g><g id="_Group_106" data-name="&lt;Group&gt;"><g id="_Group_107" data-name="&lt;Group&gt;"><path id="_Path_74" data-name="&lt;Path&gt;" class="cls-1" d="m877.56 578.506 9.881-14.157-9.65-14.39-9.88 14.139Z" transform="translate(-637.562 -444.5)"/></g><g id="_Group_108" data-name="&lt;Group&gt;"><path id="_Path_75" data-name="&lt;Path&gt;" class="cls-1" d="m877.791 549.956 9.881-14.157-19.53-.251Z" transform="translate(-637.562 -444.5)"/></g><g id="_Group_109" data-name="&lt;Group&gt;"><path id="_Path_76" data-name="&lt;Path&gt;" class="cls-1" d="m877.56 578.506 19.532.081 9.88-14.138-19.531-.1Z" transform="translate(-637.562 -444.5)"/></g><g id="_Group_110" data-name="&lt;Group&gt;"><path id="_Path_77" data-name="&lt;Path&gt;" class="cls-1" d="m887.441 564.349 19.531.1-9.65-14.389-19.531-.1Z" transform="translate(-637.562 -444.5)"/></g></g><g id="_Group_111" data-name="&lt;Group&gt;"><g id="_Group_112" data-name="&lt;Group&gt;"><path id="_Path_78" data-name="&lt;Path&gt;" class="cls-1" d="m848.148 592.525 9.881-14.139-9.65-14.386-9.88 14.139Z" transform="translate(-637.562 -444.5)"/></g><g id="_Group_113" data-name="&lt;Group&gt;"><path id="_Path_79" data-name="&lt;Path&gt;" class="cls-1" d="m848.148 592.525 19.532.1 9.88-14.119-19.531-.12Z" transform="translate(-637.562 -444.5)"/></g><g id="_Group_114" data-name="&lt;Group&gt;"><path id="_Path_80" data-name="&lt;Path&gt;" class="cls-1" d="m858.029 578.386 19.531.12-9.649-14.406-19.532-.1Z" transform="translate(-637.562 -444.5)"/></g></g><g id="_Group_115" data-name="&lt;Group&gt;"><g id="_Group_116" data-name="&lt;Group&gt;"><path id="_Path_81" data-name="&lt;Path&gt;" class="cls-1" d="m818.737 606.563 9.88-14.139-9.65-14.389-9.88 14.138Z" transform="translate(-637.562 -444.5)"/></g><g id="_Group_117" data-name="&lt;Group&gt;"><path id="_Path_82" data-name="&lt;Path&gt;" class="cls-1" d="m818.737 606.563 19.531.1 9.88-14.138-19.531-.1Z" transform="translate(-637.562 -444.5)"/></g><g id="_Group_118" data-name="&lt;Group&gt;"><path id="_Path_83" data-name="&lt;Path&gt;" class="cls-1" d="m828.617 592.424 19.531.1-9.648-14.388-19.532-.1Z" transform="translate(-637.562 -444.5)"/></g></g><g id="_Group_119" data-name="&lt;Group&gt;"><g id="_Group_120" data-name="&lt;Group&gt;"><path id="_Path_84" data-name="&lt;Path&gt;" class="cls-1" d="m789.325 620.579 9.88-14.139-9.649-14.389-9.881 14.138Z" transform="translate(-637.562 -444.5)"/></g><g id="_Group_121" data-name="&lt;Group&gt;"><path id="_Path_85" data-name="&lt;Path&gt;" class="cls-1" d="m808.625 649.251 9.881-14.139-9.65-14.389-9.881 14.138Z" transform="translate(-637.562 -444.5)"/></g><g id="_Group_122" data-name="&lt;Group&gt;"><path id="_Path_86" data-name="&lt;Path&gt;" class="cls-1" d="m789.325 620.579 19.531.1 9.881-14.138-19.532-.1Z" transform="translate(-637.562 -444.5)"/></g><g id="_Group_123" data-name="&lt;Group&gt;"><path id="_Path_87" data-name="&lt;Path&gt;" class="cls-1" d="m799.205 606.44 19.532.1-9.65-14.389-19.531-.1Z" transform="translate(-637.562 -444.5)"/></g></g><g id="_Group_124" data-name="&lt;Group&gt;"><g id="_Group_125" data-name="&lt;Group&gt;"><path id="_Path_88" data-name="&lt;Path&gt;" class="cls-1" d="m759.913 634.617 9.881-14.139-9.65-14.389-9.88 14.138Z" transform="translate(-637.562 -444.5)"/></g><g id="_Group_126" data-name="&lt;Group&gt;"><path id="_Path_89" data-name="&lt;Path&gt;" class="cls-1" d="m769.794 620.478-9.65-14.389-9.88 14.138Z" transform="translate(-637.562 -444.5)"/></g><g id="_Group_127" data-name="&lt;Group&gt;"><path id="_Path_90" data-name="&lt;Path&gt;" class="cls-1" d="m759.913 634.617 19.531.1 9.881-14.138-19.531-.1Z" transform="translate(-637.562 -444.5)"/></g><g id="_Group_128" data-name="&lt;Group&gt;"><path id="_Path_91" data-name="&lt;Path&gt;" class="cls-1" d="m769.794 620.478 19.531.1-9.65-14.39-19.531-.1Z" transform="translate(-637.562 -444.5)"/></g></g><g id="_Group_129" data-name="&lt;Group&gt;"><g id="_Group_130" data-name="&lt;Group&gt;"><path id="_Path_92" data-name="&lt;Path&gt;" class="cls-1" d="m779.444 634.761 19.531.1 9.881-14.138-19.531-.1Z" transform="translate(-637.562 -444.5)"/></g></g><g id="_Group_131" data-name="&lt;Group&gt;"><g id="_Group_132" data-name="&lt;Group&gt;"><path id="_Path_93" data-name="&lt;Path&gt;" class="cls-1" d="m730.963 591.617 9.651 14.3-9.881 14.232-9.651-14.3Z" transform="translate(-637.562 -444.5)"/></g><g id="_Group_133" data-name="&lt;Group&gt;"><path id="_Path_94" data-name="&lt;Path&gt;" class="cls-1" d="m730.963 591.617 19.53.215 9.651 14.3-19.53-.216Z" transform="translate(-637.562 -444.5)"/></g><g id="_Group_134" data-name="&lt;Group&gt;"><path id="_Path_95" data-name="&lt;Path&gt;" class="cls-1" d="m740.614 605.913 19.53.216-9.881 14.231-19.53-.215Z" transform="translate(-637.562 -444.5)"/></g></g><g id="_Group_135" data-name="&lt;Group&gt;"><path id="_Path_96" data-name="&lt;Path&gt;" class="cls-1" d="m686.994 594.29-9.881 14.231-9.651-14.3Z" transform="translate(-637.562 -444.5)"/></g><g id="_Group_136" data-name="&lt;Group&gt;"><path id="_Path_97" data-name="&lt;Path&gt;" class="cls-1" d="m687.109 548.962-9.881 14.231-9.65-14.3Z" transform="translate(-637.562 -444.5)"/></g><g id="_Group_137" data-name="&lt;Group&gt;"><path id="_Path_98" data-name="&lt;Path&gt;" class="cls-1" d="m701.782 577.038 19.531.216 9.65 14.3-19.53-.215Z" transform="translate(-637.562 -444.5)"/></g><g id="_Group_138" data-name="&lt;Group&gt;"><path id="_Path_99" data-name="&lt;Path&gt;" class="cls-1" d="m686.994 594.29 19.53.215-9.881 14.231-19.53-.215Z" transform="translate(-637.562 -444.5)"/></g><g id="_Group_139" data-name="&lt;Group&gt;"><g id="_Group_140" data-name="&lt;Group&gt;"><path id="_Path_100" data-name="&lt;Path&gt;" class="cls-1" d="m638.348 571.447 11.261.124 5.564 8.243-11.261-.124Z" transform="translate(-637.562 -444.5)"/></g></g><g id="_Group_141" data-name="&lt;Group&gt;"><g id="_Group_142" data-name="&lt;Group&gt;"><path id="_Path_101" data-name="&lt;Path&gt;" class="cls-1" d="m705.224 712.953 5.287-7.614-9.651-14.3-9.881 14.232 5.184 7.679h9.061Z" transform="translate(-637.562 -444.5)"/></g><g id="_Group_143" data-name="&lt;Group&gt;"><path id="_Path_102" data-name="&lt;Path&gt;" class="cls-1" d="m665.2 691.105 11.717.129 5.79 8.577-11.717-.129Z" transform="translate(-637.562 -444.5)"/></g><g id="_Group_144" data-name="&lt;Group&gt;"><path id="_Path_103" data-name="&lt;Path&gt;" class="cls-1" d="m724.9 712.953 5.137-7.4-19.53-.215-5.287 7.614h19.68Z" transform="translate(-637.562 -444.5)"/></g></g><g id="_Group_145" data-name="&lt;Group&gt;"><g id="_Group_146" data-name="&lt;Group&gt;"><path id="_Path_104" data-name="&lt;Path&gt;" class="cls-1" d="m687.225 565.718 19.53.215-9.881 14.232-19.53-.215Z" transform="translate(-637.562 -444.5)"/></g></g><g id="_Group_147" data-name="&lt;Group&gt;"><g id="_Group_148" data-name="&lt;Group&gt;"><path id="_Path_105" data-name="&lt;Path&gt;" class="cls-1" d="m751.813 712.953.425-.612-19.531-.215-.574.827h19.68Z" transform="translate(-637.562 -444.5)"/></g></g><g id="_Group_149" data-name="&lt;Group&gt;"><path id="_Path_106" data-name="&lt;Path&gt;" class="cls-1" d="m644.672 662.05 7.138-10.166-6.973-10.346L637.7 651.7Z" transform="translate(-637.562 -444.5)"/></g><g id="_Group_150" data-name="&lt;Group&gt;"><path id="_Path_107" data-name="&lt;Path&gt;" class="cls-1" d="m683.563 648.214-5.758-8.544-5.895 8.4Z" transform="translate(-637.562 -444.5)"/></g><g id="_Group_151" data-name="&lt;Group&gt;"><path id="_Path_108" data-name="&lt;Path&gt;" class="cls-1" d="m681.56 662.349 19.532.1 9.88-14.07-19.532-.1Z" transform="translate(-637.562 -444.5)"/></g><g id="_Group_152" data-name="&lt;Group&gt;"><path id="_Path_109" data-name="&lt;Path&gt;" class="cls-1" d="m701.092 662.449 9.88-14.07-19.532-.1Z" transform="translate(-637.562 -444.5)"/></g><g id="_Group_153" data-name="&lt;Group&gt;"><path id="_Path_110" data-name="&lt;Path&gt;" class="cls-1" d="m691.44 648.278 19.532.1-9.651-14.321-19.531-.1Z" transform="translate(-637.562 -444.5)"/></g><g id="_Group_154" data-name="&lt;Group&gt;"><path id="_Path_111" data-name="&lt;Path&gt;" class="cls-1" d="m720.852 634.253 19.531.1-9.65-14.32Z" transform="translate(-637.562 -444.5)"/></g><g id="_Group_155" data-name="&lt;Group&gt;"><path id="_Path_112" data-name="&lt;Path&gt;" class="cls-1" d="m710.74 676.975 9.881-14.138-9.65-14.39-9.88 14.139Z" transform="translate(-637.562 -444.5)"/></g><g id="_Group_156" data-name="&lt;Group&gt;"><path id="_Path_113" data-name="&lt;Path&gt;" class="cls-1" d="m730.04 705.647 9.881-14.139-9.65-14.389-9.88 14.139Z" transform="translate(-637.562 -444.5)"/></g><g id="_Group_157" data-name="&lt;Group&gt;"><path id="_Path_114" data-name="&lt;Path&gt;" class="cls-1" d="m710.74 676.975 19.532.1 9.88-14.139-19.531-.1Z" transform="translate(-637.562 -444.5)"/></g><g id="_Group_158" data-name="&lt;Group&gt;"><path id="_Path_115" data-name="&lt;Path&gt;" class="cls-1" d="m720.621 662.837 19.531.1-9.65-14.389-19.531-.1Z" transform="translate(-637.562 -444.5)"/></g><g id="_Group_159" data-name="&lt;Group&gt;"><path id="_Path_116" data-name="&lt;Path&gt;" class="cls-1" d="m702.011 548.768 19.531.1 9.88-14.138-19.531-.1Z" transform="translate(-637.562 -444.5)"/></g><g id="_Group_160" data-name="&lt;Group&gt;"><path id="_Path_117" data-name="&lt;Path&gt;" class="cls-1" d="m711.661 563.064 19.532.1 9.88-14.139-19.531-.1Z" transform="translate(-637.562 -444.5)"/></g><g id="_Group_161" data-name="&lt;Group&gt;"><path id="_Path_118" data-name="&lt;Path&gt;" class="cls-1" d="m733.825 571.27 11.222.058 5.678-8.124-11.223-.058Z" transform="translate(-637.562 -444.5)"/></g><g id="_Group_162" data-name="&lt;Group&gt;"><g id="_Group_163" data-name="&lt;Group&gt;"><path id="_Path_119" data-name="&lt;Path&gt;" class="cls-1" d="m700.86 691.157 19.531.1 9.88-14.139-19.531-.1Z" transform="translate(-637.562 -444.5)"/></g></g><g id="_Group_164" data-name="&lt;Group&gt;"><g id="_Group_165" data-name="&lt;Group&gt;"><path id="_Path_120" data-name="&lt;Path&gt;" class="cls-1" d="m847.917 621.074 9.881-14.138-9.65-14.389-9.88 14.138Z" transform="translate(-637.562 -444.5)"/></g><g id="_Group_166" data-name="&lt;Group&gt;"><path id="_Path_121" data-name="&lt;Path&gt;" class="cls-1" d="m857.8 606.936-9.65-14.389-9.88 14.138Z" transform="translate(-637.562 -444.5)"/></g><g id="_Group_167" data-name="&lt;Group&gt;"><path id="_Path_122" data-name="&lt;Path&gt;" class="cls-1" d="m847.917 621.074 19.532.1 9.88-14.139-19.531-.1Z" transform="translate(-637.562 -444.5)"/></g><g id="_Group_168" data-name="&lt;Group&gt;"><path id="_Path_123" data-name="&lt;Path&gt;" class="cls-1" d="m857.8 606.936 19.531.1-9.649-14.389Z" transform="translate(-637.562 -444.5)"/></g><g id="_Group_169" data-name="&lt;Group&gt;"><path id="_Path_124" data-name="&lt;Path&gt;" class="cls-1" d="m857.8 606.936 19.531.1-9.649-14.389-19.532-.1Z" transform="translate(-637.562 -444.5)"/></g></g><g id="_Group_170" data-name="&lt;Group&gt;"><g id="_Group_171" data-name="&lt;Group&gt;"><path id="_Path_125" data-name="&lt;Path&gt;" class="cls-1" d="m818.506 635.112 9.88-14.138-9.649-14.39-9.881 14.139Z" transform="translate(-637.562 -444.5)"/></g><g id="_Group_172" data-name="&lt;Group&gt;"><path id="_Path_126" data-name="&lt;Path&gt;" class="cls-1" d="m818.506 635.112 19.531.1 9.88-14.139-19.531-.1Z" transform="translate(-637.562 -444.5)"/></g><g id="_Group_173" data-name="&lt;Group&gt;"><path id="_Path_127" data-name="&lt;Path&gt;" class="cls-1" d="m828.386 620.974 19.531.1-9.649-14.389-19.531-.1Z" transform="translate(-637.562 -444.5)"/></g></g><g id="_Group_174" data-name="&lt;Group&gt;"><g id="_Group_175" data-name="&lt;Group&gt;"><path id="_Path_128" data-name="&lt;Path&gt;" class="cls-1" d="m906.51 621.526 9.881-14.138-9.65-14.388-9.88 14.139Z" transform="translate(-637.562 -444.5)"/></g></g><g id="_Group_176" data-name="&lt;Group&gt;"><g id="_Group_177" data-name="&lt;Group&gt;"><path id="_Path_129" data-name="&lt;Path&gt;" class="cls-1" d="m877.1 635.564 9.88-14.138-9.65-14.39-9.88 14.139Z" transform="translate(-637.562 -444.5)"/></g><g id="_Group_178" data-name="&lt;Group&gt;"><path id="_Path_130" data-name="&lt;Path&gt;" class="cls-1" d="m877.1 635.564 19.531.1 9.88-14.139-19.531-.1Z" transform="translate(-637.562 -444.5)"/></g><g id="_Group_179" data-name="&lt;Group&gt;"><path id="_Path_131" data-name="&lt;Path&gt;" class="cls-1" d="m886.979 621.426 19.531.1-9.649-14.389-19.532-.1Z" transform="translate(-637.562 -444.5)"/></g></g><g id="_Group_180" data-name="&lt;Group&gt;"><g id="_Group_181" data-name="&lt;Group&gt;"><path id="_Path_132" data-name="&lt;Path&gt;" class="cls-1" d="m809.779 506.626 9.65 14.3-9.881 14.232-9.65-14.3Z" transform="translate(-637.562 -444.5)"/></g><g id="_Group_182" data-name="&lt;Group&gt;"><path id="_Path_133" data-name="&lt;Path&gt;" class="cls-1" d="m809.779 506.626 19.53.215 9.651 14.3-19.531-.216Z" transform="translate(-637.562 -444.5)"/></g><g id="_Group_183" data-name="&lt;Group&gt;"><path id="_Path_134" data-name="&lt;Path&gt;" class="cls-1" d="m819.429 520.922 19.531.216-9.881 14.231-19.531-.215Z" transform="translate(-637.562 -444.5)"/></g></g><g id="_Group_184" data-name="&lt;Group&gt;"><g id="_Group_185" data-name="&lt;Group&gt;"><path id="_Path_135" data-name="&lt;Path&gt;" class="cls-1" d="m839.19 492.588 9.651 14.3-9.881 14.232-9.651-14.3Z" transform="translate(-637.562 -444.5)"/></g><g id="_Group_186" data-name="&lt;Group&gt;"><path id="_Path_136" data-name="&lt;Path&gt;" class="cls-1" d="m848.841 506.884-9.881 14.232-9.651-14.3Z" transform="translate(-637.562 -444.5)"/></g><g id="_Group_187" data-name="&lt;Group&gt;"><path id="_Path_137" data-name="&lt;Path&gt;" class="cls-1" d="m839.19 492.588 19.531.215 9.65 14.3-19.53-.216Z" transform="translate(-637.562 -444.5)"/></g><g id="_Group_188" data-name="&lt;Group&gt;"><path id="_Path_138" data-name="&lt;Path&gt;" class="cls-1" d="m848.841 506.884 19.53.216-9.881 14.231Z" transform="translate(-637.562 -444.5)"/></g><g id="_Group_189" data-name="&lt;Group&gt;"><path id="_Path_139" data-name="&lt;Path&gt;" class="cls-1" d="m848.841 506.884 19.53.216-9.881 14.231-19.53-.215Z" transform="translate(-637.562 -444.5)"/></g></g><g id="_Group_190" data-name="&lt;Group&gt;"><g id="_Group_191" data-name="&lt;Group&gt;"><path id="_Path_140" data-name="&lt;Path&gt;" class="cls-1" d="m897.783 493.084 9.65 14.3-9.881 14.231-9.65-14.3Z" transform="translate(-637.562 -444.5)"/></g></g><g id="_Group_192" data-name="&lt;Group&gt;"><g id="_Group_193" data-name="&lt;Group&gt;"><path id="_Path_141" data-name="&lt;Path&gt;" class="cls-1" d="m868.6 478.572 9.65 14.3-9.879 14.228-9.65-14.3Z" transform="translate(-637.562 -444.5)"/></g><g id="_Group_194" data-name="&lt;Group&gt;"><path id="_Path_142" data-name="&lt;Path&gt;" class="cls-1" d="m868.6 478.572 19.53.215 9.651 14.3-19.531-.216Z" transform="translate(-637.562 -444.5)"/></g><g id="_Group_195" data-name="&lt;Group&gt;"><path id="_Path_143" data-name="&lt;Path&gt;" class="cls-1" d="m878.252 492.868 19.531.216-9.883 14.231-19.531-.215Z" transform="translate(-637.562 -444.5)"/></g></g><g id="_Group_196" data-name="&lt;Group&gt;"><g id="_Group_197" data-name="&lt;Group&gt;"><path id="_Path_144" data-name="&lt;Path&gt;" class="cls-1" d="m838.038 635.142 9.65 14.3-9.881 14.231-9.651-14.3Z" transform="translate(-637.562 -444.5)"/></g><g id="_Group_198" data-name="&lt;Group&gt;"><path id="_Path_145" data-name="&lt;Path&gt;" class="cls-1" d="m838.038 635.142 19.53.215-9.88 14.081Z" transform="translate(-637.562 -444.5)"/></g><g id="_Group_199" data-name="&lt;Group&gt;"><path id="_Path_146" data-name="&lt;Path&gt;" class="cls-1" d="m857.568 635.357 9.651 14.3-19.531-.215Z" transform="translate(-637.562 -444.5)"/></g><g id="_Group_200" data-name="&lt;Group&gt;"><path id="_Path_147" data-name="&lt;Path&gt;" class="cls-1" d="m847.688 649.438 9.65 14.447-19.531-.216Z" transform="translate(-637.562 -444.5)"/></g><g id="_Group_201" data-name="&lt;Group&gt;"><path id="_Path_148" data-name="&lt;Path&gt;" class="cls-1" d="m847.688 649.438 19.531.215-9.881 14.232Z" transform="translate(-637.562 -444.5)"/></g></g><g id="_Group_202" data-name="&lt;Group&gt;"><g id="_Group_203" data-name="&lt;Group&gt;"><path id="_Path_149" data-name="&lt;Path&gt;" class="cls-1" d="m818.507 634.926 19.531.216-9.882 14.231-19.53-.215Z" transform="translate(-637.562 -444.5)"/></g></g><g id="_Group_204" data-name="&lt;Group&gt;"><g id="_Group_205" data-name="&lt;Group&gt;"><g id="_Group_206" data-name="&lt;Group&gt;"><path id="_Path_150" data-name="&lt;Path&gt;" class="cls-1" d="m896.63 635.615 9.651 14.3-9.881 14.228-9.651-14.3Z" transform="translate(-637.562 -444.5)"/></g><g id="_Group_207" data-name="&lt;Group&gt;"><path id="_Path_151" data-name="&lt;Path&gt;" class="cls-1" d="m906.281 649.912-9.881 14.231-9.651-14.3Z" transform="translate(-637.562 -444.5)"/></g></g><g id="_Group_208" data-name="&lt;Group&gt;"><g id="_Group_209" data-name="&lt;Group&gt;"><path id="_Path_152" data-name="&lt;Path&gt;" class="cls-1" d="m877.1 635.4-9.881 14.231-9.651-14.3Z" transform="translate(-637.562 -444.5)"/></g><g id="_Group_210" data-name="&lt;Group&gt;"><path id="_Path_153" data-name="&lt;Path&gt;" class="cls-1" d="m877.1 635.4 19.53.215-9.881 14.232-19.53-.216Z" transform="translate(-637.562 -444.5)"/></g></g></g><g id="_Group_211" data-name="&lt;Group&gt;"><g id="_Group_212" data-name="&lt;Group&gt;"><g id="_Group_213" data-name="&lt;Group&gt;"><path id="_Path_154" data-name="&lt;Path&gt;" class="cls-1" d="m917.082 521.826-9.65-14.3 9.881-14.231 9.65 14.3Z" transform="translate(-637.562 -444.5)"/></g></g><g id="_Group_214" data-name="&lt;Group&gt;"><g id="_Group_215" data-name="&lt;Group&gt;"><path id="_Path_155" data-name="&lt;Path&gt;" class="cls-1" d="m926.733 536.123-9.651-14.3 19.532.153Z" transform="translate(-637.562 -444.5)"/></g><g id="_Group_216" data-name="&lt;Group&gt;"><path id="_Path_156" data-name="&lt;Path&gt;" class="cls-1" d="m936.614 521.979-19.532-.153 9.881-14.231Z" transform="translate(-637.562 -444.5)"/></g></g></g><g id="_Group_217" data-name="&lt;Group&gt;"><g id="_Group_218" data-name="&lt;Group&gt;"><path id="_Path_157" data-name="&lt;Path&gt;" class="cls-1" d="m916.851 550.494-9.651-14.458 9.881-14.231 9.649 14.386Z" transform="translate(-637.562 -444.5)"/></g></g><g id="_Group_219" data-name="&lt;Group&gt;"><g id="_Group_220" data-name="&lt;Group&gt;"><path id="_Path_158" data-name="&lt;Path&gt;" class="cls-1" d="m907.2 536.069-9.651-14.3 9.881-14.231 9.651 14.3Z" transform="translate(-637.562 -444.5)"/></g></g><g id="_Group_221" data-name="&lt;Group&gt;"><g id="_Group_222" data-name="&lt;Group&gt;"><path id="_Path_159" data-name="&lt;Path&gt;" class="cls-1" d="m935.46 664.56-19.531-.1-9.88 14.139 19.531.1Z" transform="translate(-637.562 -444.5)"/></g></g><g id="_Group_223" data-name="&lt;Group&gt;"><g id="_Group_224" data-name="&lt;Group&gt;"><path id="_Path_160" data-name="&lt;Path&gt;" class="cls-1" d="m906.28 650.048-9.88 14.139 9.65 14.389 9.88-14.139Z" transform="translate(-637.562 -444.5)"/></g></g><g id="_Group_225" data-name="&lt;Group&gt;"><g id="_Group_226" data-name="&lt;Group&gt;"><path id="_Path_161" data-name="&lt;Path&gt;" class="cls-1" d="m929.22 712.953-3.87-5.771-4.033 5.771h7.9Z" transform="translate(-637.562 -444.5)"/></g></g><g id="_Group_227" data-name="&lt;Group&gt;"><g id="_Group_228" data-name="&lt;Group&gt;"><path id="_Path_162" data-name="&lt;Path&gt;" class="cls-1" d="m935.692 635.991-19.532-.081-9.88 14.138 19.531.1Z" transform="translate(-637.562 -444.5)"/></g><g id="_Group_229" data-name="&lt;Group&gt;"><path id="_Path_163" data-name="&lt;Path&gt;" class="cls-1" d="m925.811 650.149-19.531-.1 9.649 14.389 19.532.1Z" transform="translate(-637.562 -444.5)"/></g></g><g id="_Group_230" data-name="&lt;Group&gt;"><g id="_Group_231" data-name="&lt;Group&gt;"><g id="_Group_232" data-name="&lt;Group&gt;"><path id="_Path_164" data-name="&lt;Path&gt;" class="cls-1" d="m906.511 621.477-9.881 14.138L906.28 650l9.88-14.138Z" transform="translate(-637.562 -444.5)"/></g></g><g id="_Group_233" data-name="&lt;Group&gt;"><g id="_Group_234" data-name="&lt;Group&gt;"><path id="_Path_165" data-name="&lt;Path&gt;" class="cls-1" d="m935.923 607.439-19.532-.1-9.88 14.139 19.531.1Z" transform="translate(-637.562 -444.5)"/></g><g id="_Group_235" data-name="&lt;Group&gt;"><path id="_Path_166" data-name="&lt;Path&gt;" class="cls-1" d="m916.391 607.338-9.88 14.139 19.531.1Z" transform="translate(-637.562 -444.5)"/></g><g id="_Group_236" data-name="&lt;Group&gt;"><path id="_Path_167" data-name="&lt;Path&gt;" class="cls-1" d="m926.042 621.577-19.531-.1 9.649 14.389Z" transform="translate(-637.562 -444.5)"/></g><g id="_Group_237" data-name="&lt;Group&gt;"><path id="_Path_168" data-name="&lt;Path&gt;" class="cls-1" d="m926.042 621.577-9.882 14.289 19.532.125Z" transform="translate(-637.562 -444.5)"/></g></g></g><g id="_Group_238" data-name="&lt;Group&gt;"><g id="_Group_239" data-name="&lt;Group&gt;"><path id="_Path_169" data-name="&lt;Path&gt;" class="cls-1" d="m906.741 592.971-9.88 14.138 9.65 14.39 9.88-14.139Z" transform="translate(-637.562 -444.5)"/></g></g><g id="_Group_240" data-name="&lt;Group&gt;"><g id="_Group_241" data-name="&lt;Group&gt;"><path id="_Path_170" data-name="&lt;Path&gt;" class="cls-1" d="m936.153 578.933-19.531-.1-9.881 14.138 19.532.1Z" transform="translate(-637.562 -444.5)"/></g><g id="_Group_242" data-name="&lt;Group&gt;"><path id="_Path_171" data-name="&lt;Path&gt;" class="cls-1" d="m926.273 593.071-19.532-.1 9.65 14.389 19.531.1Z" transform="translate(-637.562 -444.5)"/></g></g><g id="_Group_243" data-name="&lt;Group&gt;"><g id="_Group_244" data-name="&lt;Group&gt;"><g id="_Group_245" data-name="&lt;Group&gt;"><path id="_Path_172" data-name="&lt;Path&gt;" class="cls-1" d="m915.7 692.908-9.651-14.3 19.532.065Z" transform="translate(-637.562 -444.5)"/></g></g><g id="_Group_246" data-name="&lt;Group&gt;"><g id="_Group_247" data-name="&lt;Group&gt;"><path id="_Path_173" data-name="&lt;Path&gt;" class="cls-1" d="m925.35 707.2-9.651-14.3 19.53.215Z" transform="translate(-637.562 -444.5)"/></g><g id="_Group_248" data-name="&lt;Group&gt;"><path id="_Path_174" data-name="&lt;Path&gt;" class="cls-1" d="m935.229 693.123-19.53-.215 9.881-14.232Z" transform="translate(-637.562 -444.5)"/></g></g></g><g id="_Group_249" data-name="&lt;Group&gt;"><g id="_Group_250" data-name="&lt;Group&gt;"><path id="_Path_175" data-name="&lt;Path&gt;" class="cls-1" d="m921.343 712.953 4.007-5.771-9.651-14.3-9.881 14.231 3.939 5.836h11.586Z" transform="translate(-637.562 -444.5)"/></g></g><g id="_Group_251" data-name="&lt;Group&gt;"><g id="_Group_252" data-name="&lt;Group&gt;"><path id="_Path_176" data-name="&lt;Path&gt;" class="cls-1" d="m909.819 712.953-4-5.964-4.168 5.964h8.167Z" transform="translate(-637.562 -444.5)"/></g></g><g id="_Group_253" data-name="&lt;Group&gt;"><g id="_Group_254" data-name="&lt;Group&gt;"><path id="_Path_177" data-name="&lt;Path&gt;" class="cls-1" d="m927.193 479.229 9.651 14.3-9.881 14.232-9.651-14.3Z" transform="translate(-637.562 -444.5)"/></g></g><g id="_Group_255" data-name="&lt;Group&gt;"><g id="_Group_256" data-name="&lt;Group&gt;"><g id="_Group_257" data-name="&lt;Group&gt;"><path id="_Path_178" data-name="&lt;Path&gt;" class="cls-1" d="m907.2 535.987 9.881-14.139-9.65-14.389-9.88 14.138Z" transform="translate(-637.562 -444.5)"/></g></g><g id="_Group_258" data-name="&lt;Group&gt;"><g id="_Group_259" data-name="&lt;Group&gt;"><path id="_Path_179" data-name="&lt;Path&gt;" class="cls-1" d="m877.79 550.025 9.881-14.139-9.65-14.414-9.88 14.163Z" transform="translate(-637.562 -444.5)"/></g><g id="_Group_260" data-name="&lt;Group&gt;"><path id="_Path_180" data-name="&lt;Path&gt;" class="cls-1" d="m877.79 550.025 19.532.1 9.88-14.138-19.531-.1Z" transform="translate(-637.562 -444.5)"/></g><g id="_Group_261" data-name="&lt;Group&gt;"><path id="_Path_181" data-name="&lt;Path&gt;" class="cls-1" d="m897.322 550.125 9.88-14.138-19.531-.1Z" transform="translate(-637.562 -444.5)"/></g><g id="_Group_262" data-name="&lt;Group&gt;"><path id="_Path_182" data-name="&lt;Path&gt;" class="cls-1" d="m887.671 535.886 19.531.1-9.649-14.39Z" transform="translate(-637.562 -444.5)"/></g><g id="_Group_263" data-name="&lt;Group&gt;"><path id="_Path_183" data-name="&lt;Path&gt;" class="cls-1" d="m887.671 535.886 9.882-14.289-19.532-.125Z" transform="translate(-637.562 -444.5)"/></g></g></g><g id="_Group_264" data-name="&lt;Group&gt;"><g id="_Group_265" data-name="&lt;Group&gt;"><path id="_Path_184" data-name="&lt;Path&gt;" class="cls-1" d="m810.24 449.592 9.651 14.3-9.881 14.228-9.651-14.3Z" transform="translate(-637.562 -444.5)"/></g><g id="_Group_266" data-name="&lt;Group&gt;"><path id="_Path_185" data-name="&lt;Path&gt;" class="cls-1" d="m810.24 449.592 19.531.216 9.65 14.3-19.53-.215Z" transform="translate(-637.562 -444.5)"/></g><g id="_Group_267" data-name="&lt;Group&gt;"><path id="_Path_186" data-name="&lt;Path&gt;" class="cls-1" d="m819.891 463.889 19.53.215-9.881 14.231-19.53-.215Z" transform="translate(-637.562 -444.5)"/></g></g><g id="_Group_268" data-name="&lt;Group&gt;"><g id="_Group_269" data-name="&lt;Group&gt;"><path id="_Path_187" data-name="&lt;Path&gt;" class="cls-1" d="m774.448 444.624-3.27 4.71 9.65 14.3 9.881-14.231-3.223-4.775h-13.038Z" transform="translate(-637.562 -444.5)"/></g><g id="_Group_270" data-name="&lt;Group&gt;"><path id="_Path_188" data-name="&lt;Path&gt;" class="cls-1" d="m787.486 444.624 3.223 4.775 19.531.215-3.368-4.99h-19.386Z" transform="translate(-637.562 -444.5)"/></g><g id="_Group_271" data-name="&lt;Group&gt;"><path id="_Path_189" data-name="&lt;Path&gt;" class="cls-1" d="m790.709 449.4 19.531.215-9.881 14.232-19.531-.216Z" transform="translate(-637.562 -444.5)"/></g></g><g id="_Group_272" data-name="&lt;Group&gt;"><g id="_Group_273" data-name="&lt;Group&gt;"><path id="_Path_190" data-name="&lt;Path&gt;" class="cls-1" d="m748.614 444.624 3.033 4.5 3.121-4.5h-6.154Z" transform="translate(-637.562 -444.5)"/></g><g id="_Group_274" data-name="&lt;Group&gt;"><path id="_Path_191" data-name="&lt;Path&gt;" class="cls-1" d="m748.614 444.624 3.033 4.5 3.121-4.5h-6.154Z" transform="translate(-637.562 -444.5)"/></g><g id="_Group_275" data-name="&lt;Group&gt;"><path id="_Path_192" data-name="&lt;Path&gt;" class="cls-1" d="m754.768 444.624-3.121 4.5 19.531.215 3.27-4.71h-19.68Z" transform="translate(-637.562 -444.5)"/></g></g><g id="_Group_276" data-name="&lt;Group&gt;"><g id="_Group_277" data-name="&lt;Group&gt;"><g id="_Group_278" data-name="&lt;Group&gt;"><path id="_Path_193" data-name="&lt;Path&gt;" class="cls-1" d="m898.014 464.556 9.651 14.3-19.532-.065Z" transform="translate(-637.562 -444.5)"/></g></g><g id="_Group_279" data-name="&lt;Group&gt;"><g id="_Group_280" data-name="&lt;Group&gt;"><path id="_Path_194" data-name="&lt;Path&gt;" class="cls-1" d="m868.833 450.044 9.651 14.3L868.6 478.6l-9.65-14.321Z" transform="translate(-637.562 -444.5)"/></g><g id="_Group_281" data-name="&lt;Group&gt;"><path id="_Path_195" data-name="&lt;Path&gt;" class="cls-1" d="m868.833 450.044 19.53.216 9.651 14.3-19.53-.215Z" transform="translate(-637.562 -444.5)"/></g><g id="_Group_282" data-name="&lt;Group&gt;"><path id="_Path_196" data-name="&lt;Path&gt;" class="cls-1" d="m888.363 450.26 9.651 14.3-19.53-.215Z" transform="translate(-637.562 -444.5)"/></g><g id="_Group_283" data-name="&lt;Group&gt;"><path id="_Path_197" data-name="&lt;Path&gt;" class="cls-1" d="m878.484 464.341 19.53.215-9.881 14.231Z" transform="translate(-637.562 -444.5)"/></g><g id="_Group_284" data-name="&lt;Group&gt;"><path id="_Path_198" data-name="&lt;Path&gt;" class="cls-1" d="m878.484 464.341 9.649 14.446-19.533-.187Z" transform="translate(-637.562 -444.5)"/></g></g></g><g id="_Group_285" data-name="&lt;Group&gt;"><g id="_Group_286" data-name="&lt;Group&gt;"><path id="_Path_199" data-name="&lt;Path&gt;" class="cls-1" d="m833.354 444.624-3.583 5.162 9.65 14.3 9.881-14.231-3.528-5.227h-12.42Z" transform="translate(-637.562 -444.5)"/></g><g id="_Group_287" data-name="&lt;Group&gt;"><path id="_Path_200" data-name="&lt;Path&gt;" class="cls-1" d="m849.3 449.851-9.881 14.231-9.65-14.3Z" transform="translate(-637.562 -444.5)"/></g><g id="_Group_288" data-name="&lt;Group&gt;"><path id="_Path_201" data-name="&lt;Path&gt;" class="cls-1" d="m845.774 444.624 3.528 5.227 19.531.215-3.674-5.442h-19.385Z" transform="translate(-637.562 -444.5)"/></g><g id="_Group_289" data-name="&lt;Group&gt;"><path id="_Path_202" data-name="&lt;Path&gt;" class="cls-1" d="m849.3 449.851 19.531.215-9.879 14.234Z" transform="translate(-637.562 -444.5)"/></g><g id="_Group_290" data-name="&lt;Group&gt;"><path id="_Path_203" data-name="&lt;Path&gt;" class="cls-1" d="m849.3 449.851 19.531.215-9.879 14.234-19.531-.216Z" transform="translate(-637.562 -444.5)"/></g></g><g id="_Group_291" data-name="&lt;Group&gt;"><g id="_Group_292" data-name="&lt;Group&gt;"><path id="_Path_204" data-name="&lt;Path&gt;" class="cls-1" d="m806.9 444.624 3.339 4.947 3.435-4.947H806.9Z" transform="translate(-637.562 -444.5)"/></g><g id="_Group_293" data-name="&lt;Group&gt;"><path id="_Path_205" data-name="&lt;Path&gt;" class="cls-1" d="m813.675 444.624-3.435 4.947 19.531.215 3.583-5.162h-19.679Z" transform="translate(-637.562 -444.5)"/></g></g><g id="_Group_294" data-name="&lt;Group&gt;"><g id="_Group_295" data-name="&lt;Group&gt;"><path id="_Path_206" data-name="&lt;Path&gt;" class="cls-1" d="m892.291 444.624-3.928 5.657 9.651 14.3 9.881-14.232-3.863-5.722h-11.741Z" transform="translate(-637.562 -444.5)"/></g></g><g id="_Group_296" data-name="&lt;Group&gt;"><g id="_Group_297" data-name="&lt;Group&gt;"><path id="_Path_207" data-name="&lt;Path&gt;" class="cls-1" d="m865.159 444.624 3.674 5.442 3.778-5.442h-7.452Z" transform="translate(-637.562 -444.5)"/></g><g id="_Group_298" data-name="&lt;Group&gt;"><path id="_Path_208" data-name="&lt;Path&gt;" class="cls-1" d="m872.611 444.624-3.778 5.442 19.53.215 3.928-5.657h-19.68Z" transform="translate(-637.562 -444.5)"/></g></g><g id="_Group_299" data-name="&lt;Group&gt;"><g id="_Group_300" data-name="&lt;Group&gt;"><path id="_Path_209" data-name="&lt;Path&gt;" class="cls-1" d="m903.962 444.624 3.932 5.826 4.045-5.826h-7.977Z" transform="translate(-637.562 -444.5)"/></g></g><g id="_Group_301" data-name="&lt;Group&gt;"><g id="_Group_302" data-name="&lt;Group&gt;"><g id="_Group_303" data-name="&lt;Group&gt;"><path id="_Path_210" data-name="&lt;Path&gt;" class="cls-1" d="m911.97 444.624-4.077 5.873 9.651 14.3 9.881-14.232-4.008-5.937H911.97Z" transform="translate(-637.562 -444.5)"/></g></g><g id="_Group_304" data-name="&lt;Group&gt;"><g id="_Group_305" data-name="&lt;Group&gt;"><path id="_Path_211" data-name="&lt;Path&gt;" class="cls-1" d="m927.194 479.089-9.65-14.3 19.531.153Z" transform="translate(-637.562 -444.5)"/></g><g id="_Group_306" data-name="&lt;Group&gt;"><path id="_Path_212" data-name="&lt;Path&gt;" class="cls-1" d="m937.075 464.946-19.531-.153 9.881-14.232Z" transform="translate(-637.562 -444.5)"/></g></g></g><g id="_Group_307" data-name="&lt;Group&gt;"><g id="_Group_308" data-name="&lt;Group&gt;"><path id="_Path_213" data-name="&lt;Path&gt;" class="cls-1" d="M917.312 493.46 907.663 479l9.881-14.232 9.65 14.387Z" transform="translate(-637.562 -444.5)"/></g></g><g id="_Group_309" data-name="&lt;Group&gt;"><g id="_Group_310" data-name="&lt;Group&gt;"><path id="_Path_214" data-name="&lt;Path&gt;" class="cls-1" d="m907.663 479.035-9.65-14.3 9.881-14.232 9.65 14.3Z" transform="translate(-637.562 -444.5)"/></g></g><g id="_Group_311" data-name="&lt;Group&gt;"><g id="_Group_312" data-name="&lt;Group&gt;"><path id="_Path_215" data-name="&lt;Path&gt;" class="cls-1" d="m936.615 521.9-19.532-.1-9.88 14.138 19.531.1Z" transform="translate(-637.562 -444.5)"/></g><g id="_Group_313" data-name="&lt;Group&gt;"><path id="_Path_216" data-name="&lt;Path&gt;" class="cls-1" d="m926.734 536.038-19.531-.1 9.649 14.39 19.532.1Z" transform="translate(-637.562 -444.5)"/></g></g><g id="_Group_314" data-name="&lt;Group&gt;"><g id="_Group_315" data-name="&lt;Group&gt;"><g id="_Group_316" data-name="&lt;Group&gt;"><path id="_Path_217" data-name="&lt;Path&gt;" class="cls-1" d="m917.083 521.848-9.651-14.3 9.881-14.231 9.651 14.3Z" transform="translate(-637.562 -444.5)"/></g><g id="_Group_317" data-name="&lt;Group&gt;"><path id="_Path_218" data-name="&lt;Path&gt;" class="cls-1" d="m907.432 507.552 9.881-14.231 9.651 14.3Z" transform="translate(-637.562 -444.5)"/></g><g id="_Group_318" data-name="&lt;Group&gt;"><path id="_Path_219" data-name="&lt;Path&gt;" class="cls-1" d="m917.083 521.8 9.881-14.232 9.651 14.3Z" transform="translate(-637.562 -444.5)"/></g></g></g></g></svg>