<svg id="_Clip_Group_" data-name="&lt;Clip Group&gt;" xmlns="http://www.w3.org/2000/svg" width="58.531" height="73.688"><defs><style>.cls-1{fill:none;stroke:#4b4d4f;stroke-linejoin:round;stroke-width:1px;fill-rule:evenodd}</style></defs><g id="_Group_" data-name="&lt;Group&gt;"><path id="_Path_" data-name="&lt;Path&gt;" class="cls-1" d="M298.12 146.34c.012-.026.029-.051.041-.077a7.128 7.128 0 0 0 .6-3.321c0-.016 0-.031-.006-.046a7.146 7.146 0 0 0-.118-.91c-.007-.038-.018-.075-.026-.113a7.107 7.107 0 0 0-.214-.781c-.019-.057-.037-.114-.058-.17a7.105 7.105 0 0 0-.364-.842l-.041-.072a7.27 7.27 0 0 0-.442-.717c-.022-.032-.038-.067-.06-.1h-.008a6.91 6.91 0 0 0-2.6-2.212v-.006c-.032-.016-.066-.025-.1-.041a7.169 7.169 0 0 0-.767-.318c-.039-.013-.075-.029-.114-.041a7.157 7.157 0 0 0-.895-.228c-.048-.009-.1-.015-.144-.023a7.148 7.148 0 0 0-.8-.087c-.051 0-.1-.007-.153-.009a7.35 7.35 0 0 0-.915.028h-.016a7.135 7.135 0 0 0-3.238 1.159c-.024.016-.045.036-.068.052a7.111 7.111 0 0 0-.622.48c-.055.047-.111.094-.165.144a7.269 7.269 0 0 0-.642.658 7.294 7.294 0 0 0-.54.742c-.04.063-.077.125-.115.189a7.024 7.024 0 0 0-.367.689c-.012.027-.029.052-.041.078a7.129 7.129 0 0 0-.6 3.386v.027a7.116 7.116 0 0 0 .126.907c.01.05.023.1.035.15a7.229 7.229 0 0 0 .22.773c.016.046.029.092.046.138a7.03 7.03 0 0 0 .375.843c.019.037.041.071.061.108a7.112 7.112 0 0 0 .44.7c.021.03.036.063.058.092h.006a6.92 6.92 0 0 0 2.616 2.187v.008c.035.017.073.027.108.043a7.107 7.107 0 0 0 .778.314c.027.009.053.021.08.03a7.081 7.081 0 0 0 .89.217c.06.011.119.019.179.028a7.05 7.05 0 0 0 .806.08c.038 0 .076.006.114.007a7.011 7.011 0 0 0 .917-.037h.047a7.126 7.126 0 0 0 3.173-1.15c.025-.016.046-.038.071-.054a7.185 7.185 0 0 0 .618-.478c.056-.047.111-.094.165-.144a6.434 6.434 0 0 0 1.189-1.408c.04-.062.077-.124.114-.187a7.079 7.079 0 0 0 .366-.685Z" transform="translate(-240.75 -81.313)"/><path id="_Path_2" data-name="&lt;Path&gt;" class="cls-1" d="M260.192 95.426a5.523 5.523 0 0 0-3.386 1.5 2.211 2.211 0 0 0-.906.594c-.082.1-3.751 3.4-6.726 6.426.057.16 4.814 4.2 4.818 4.191l.4-.336-.734 13.212.677-.022-.231 10.546.747.052 6.451.44.981.066.449-3.261 5.339 4.226.57-.489 4.923-4.21.814-.7-7.235-7.106 1.215-.041-.352-6.848c2.361-4.687 3.034-6.191 3.17-6.364-1.63-4.188-3.279-8.826-5.41-10.538a1.469 1.469 0 0 0-.867-.42c-.132-.112-.246-.244-.39-.345Z" transform="translate(-240.75 -81.313)"/><path id="_Path_3" data-name="&lt;Path&gt;" class="cls-1" d="M257.861 91.93c.489.661.5 2.056 2.389 3.124l-.059.594a5.525 5.525 0 0 0-3.386 1.5 2.211 2.211 0 0 0-.906.594c-.082.1-3.751 3.4-6.726 6.426a2.933 2.933 0 0 0 .642.769c-3.129 4.5-3.691 9.719-1.394 16.215a1.236 1.236 0 0 0 .043.166 2.154 2.154 0 0 0 2.466.841c1.177-.239 1.962-1.077 1.753-1.869a.969.969 0 0 1-.039-.163c-1.506-5.334-1.736-8.993.818-12.159.318.242.525.395.529.392l.4-.337-.734 13.212.677-.022-.234 10.549.747.052-.309 2.391-12.415 10.112-.01.006a2.161 2.161 0 0 0-.63.763 1.508 1.508 0 0 0-.243.9 2.969 2.969 0 0 0 .4 1.7 12.724 12.724 0 0 0 2.146 3.434c2.2 2.585 4.808 3.983 5.819 3.122s.044-3.656-2.159-6.241c-.115-.134-.234-.252-.351-.381l12.28-9.287a3.224 3.224 0 0 0 1.392-2.029v-.004c.006-.029.006-.06.011-.09l.516-3.953.981.066.449-3.261 5.339 4.226.57-.488 1.643 1.612.576 16v.011a2.129 2.129 0 0 0 .169.806.049.049 0 0 0 0 .011 2.734 2.734 0 0 0 2.157 1.583 13.141 13.141 0 0 0 3.693.806c3.385.27 6.215-.584 6.321-1.908s-2.554-2.615-5.939-2.886c-.263-.021-.515-.023-.771-.031v-15.763a3.222 3.222 0 0 0-.777-2.334l-.006-.006c-.019-.022-.042-.039-.061-.061l-2.086-2.051.815-.7-7.236-7.106 1.215-.04-.352-6.849a40.7 40.7 0 0 0 7.632 6.436c.3.2.808.547.808.547a2.351 2.351 0 0 0 2.764-3.762 1.8 1.8 0 0 0-.208-.12l.009-.014s-.452-.381-.54-.459a42.554 42.554 0 0 1-7.759-8.506 6.357 6.357 0 0 0 .462-.483c-1.629-4.188-3.279-8.826-5.41-10.538a1.468 1.468 0 0 0-.867-.42c-.132-.112-.246-.244-.39-.345l.04-.431a6 6 0 0 0 3.948-4.522c.055-.243.334-1.44.362-1.694" transform="translate(-240.75 -81.313)"/><path id="_Path_4" data-name="&lt;Path&gt;" class="cls-1" d="M269.725 86.988a4.319 4.319 0 0 0-.754-1.988 5.42 5.42 0 0 0-1.79-2.164 7.2 7.2 0 0 0-5.142-.955c-.379.039-4.379.063-5.492 4.979a7.74 7.74 0 0 0 2.088 7.239 3.743 3.743 0 0 1 .4-1.93 1.325 1.325 0 0 1-.436-.211 2.61 2.61 0 0 1-.9-1.3 1.258 1.258 0 0 1 .851-1.66.843.843 0 0 1 .392.05c-.1 1.523.064 3.106.6 2.308 1.773-2.664 4.569-3.429 7.468-4.43a2.8 2.8 0 0 1 .332.174 4.918 4.918 0 0 0 .737 2.279 7.251 7.251 0 0 1 .842 1.745 6.97 6.97 0 0 0 .804-4.136Z" transform="translate(-240.75 -81.313)"/></g></svg>