<svg id="_Group_" data-name="&lt;Group&gt;" xmlns="http://www.w3.org/2000/svg" width="39.16" height="30.937"><defs><style>.cls-1{fill:none;stroke:#4b4d4f;stroke-width:1px;fill-rule:evenodd}</style></defs><path id="_Path_" data-name="&lt;Path&gt;" class="cls-1" d="m1231.77 83.984-.82-.946a.531.531 0 0 0-.48-.183.838.838 0 0 0-.73-.785l-2.28-.135a.685.685 0 0 0-.26.04.982.982 0 0 0-.32-.818l-2.51-2.092a.676.676 0 0 0-.44-.169.924.924 0 0 0-.29-.606l-2.21-2.036a.673.673 0 0 0-.74-.137 1.163 1.163 0 0 0-.58-.911l-1.83-.949a.825.825 0 0 0-.63-.056c-.08-.308-.17-.611-.26-.912l1.63-.762a.8.8 0 0 0 .31.354l1.85 1.154a.631.631 0 0 0 .35.1.612.612 0 0 0 .18-.032.831.831 0 0 0 .54.692l2.7.852a.641.641 0 0 0 .2.029.677.677 0 0 0 .52-.292.777.777 0 0 0 .73.688.722.722 0 0 0 .12-.014l2.02-.449a.825.825 0 0 0 .59-.746.408.408 0 0 0 .14.031.523.523 0 0 0 .39-.2l1.14-1.42a.737.737 0 0 0-.01-.929.492.492 0 0 0-.78.018l-1.15 1.42a.735.735 0 0 0-.1.2.658.658 0 0 0-.5-.1l-2.01.448a.73.73 0 0 0-.4.266.821.821 0 0 0-.52-.649l-2.71-.851a.609.609 0 0 0-.38.006.882.882 0 0 0-.38-.624l-1.85-1.155a.628.628 0 0 0-.41-.094l-.03-.138a.885.885 0 0 0-1.2-.62l-1.78.832a7.886 7.886 0 0 0-.39-.7l2.04-1.754a.719.719 0 0 0 .37.253l2.03.566a.619.619 0 0 0 .36-.007.854.854 0 0 0 .18-.086.725.725 0 0 0 .66.511l2.79.02a.622.622 0 0 0 .2-.03.76.76 0 0 0 .45-.439.7.7 0 0 0 .85.45.859.859 0 0 0 .12-.051l1.85-1.033a.919.919 0 0 0 .41-.9.512.512 0 0 0 .15-.013.591.591 0 0 0 .34-.312l.81-1.715a.734.734 0 0 0-.21-.9.517.517 0 0 0-.76.25l-.81 1.715a.912.912 0 0 0-.06.23.638.638 0 0 0-.5.05l-1.85 1.033a.777.777 0 0 0-.33.378.738.738 0 0 0-.65-.472l-2.79-.02a.636.636 0 0 0-.37.119.778.778 0 0 0-.5-.491l-2.04-.567a.6.6 0 0 0-.41.03l-.06-.124a.833.833 0 0 0-1.29-.246l-2.27 1.95a3.288 3.288 0 0 0-1.97-.868v.002c-.03 0-.05.006-.08.006s-.05-.006-.08-.006v.013a3.34 3.34 0 0 0-1.98.868l-2.26-1.95a.833.833 0 0 0-1.29.246c-.02.039-.04.082-.06.124a.6.6 0 0 0-.41-.03l-2.04.567a.778.778 0 0 0-.5.491.636.636 0 0 0-.37-.119l-2.79.02a.727.727 0 0 0-.65.472.777.777 0 0 0-.33-.378l-1.86-1.033a.611.611 0 0 0-.49-.05.912.912 0 0 0-.06-.23l-.81-1.715a.517.517 0 0 0-.76-.25.734.734 0 0 0-.21.9l.81 1.715a.591.591 0 0 0 .34.312.475.475 0 0 0 .14.013.925.925 0 0 0 .42.9l1.85 1.033a.859.859 0 0 0 .12.051.7.7 0 0 0 .85-.45.76.76 0 0 0 .45.439.6.6 0 0 0 .19.03l2.8-.02a.725.725 0 0 0 .66-.511.854.854 0 0 0 .18.086.619.619 0 0 0 .36.007l2.03-.566a.719.719 0 0 0 .37-.253l2.04 1.754a7.9 7.9 0 0 0-.39.7l-1.79-.832a.878.878 0 0 0-1.19.62l-.03.138a.628.628 0 0 0-.41.094l-1.85 1.155a.882.882 0 0 0-.38.624.609.609 0 0 0-.38-.006l-2.71.851a.821.821 0 0 0-.52.649.73.73 0 0 0-.4-.266l-2.02-.448a.642.642 0 0 0-.49.1.735.735 0 0 0-.1-.2l-1.15-1.42a.492.492 0 0 0-.78-.018.75.75 0 0 0-.02.929l1.15 1.42a.523.523 0 0 0 .39.2.408.408 0 0 0 .14-.031.825.825 0 0 0 .59.746l2.02.449a.722.722 0 0 0 .12.014.777.777 0 0 0 .73-.688.677.677 0 0 0 .52.292.641.641 0 0 0 .2-.029l2.7-.852a.831.831 0 0 0 .54-.692.612.612 0 0 0 .18.032.631.631 0 0 0 .35-.1l1.85-1.154a.8.8 0 0 0 .31-.354l1.63.762c-.09.3-.18.6-.26.912a.825.825 0 0 0-.63.056l-1.83.949a1.163 1.163 0 0 0-.58.911.673.673 0 0 0-.74.137l-2.21 2.036a.924.924 0 0 0-.29.606.676.676 0 0 0-.44.169l-2.51 2.092a.982.982 0 0 0-.32.818.685.685 0 0 0-.26-.04l-2.28.135a.856.856 0 0 0-.74.785.522.522 0 0 0-.47.183l-.82.946a.792.792 0 0 0-.01.987.542.542 0 0 0 .29.2.529.529 0 0 0 .54-.179l.82-.945a.729.729 0 0 0 .11-.2.809.809 0 0 0 .14.068.665.665 0 0 0 .22.02l2.27-.136a.887.887 0 0 0 .75-.977s-.01-.009-.01-.014c.02.005.03.019.05.023a.678.678 0 0 0 .62-.145l2.51-2.092a.99.99 0 0 0 .32-.633.712.712 0 0 0 .47-.193l2.21-2.036a1.055 1.055 0 0 0 .26-.452 1.018 1.018 0 0 0 .27.135.847.847 0 0 0 .61-.068l1.25-.65c-.03.367-.05.727-.05 1.072l-1.81 1.5a1.207 1.207 0 0 0-.23 1.471.875.875 0 0 0-.23.371l-.81 2.6a.989.989 0 0 0 .18.92.907.907 0 0 0-.37.8l.15 2.639a.945.945 0 0 0 .1.382.749.749 0 0 0-.3.332l-1.36 2.7a.963.963 0 0 0 .12 1.056.465.465 0 0 0-.08-.019.593.593 0 0 0-.54.638V94.4a.548.548 0 1 0 1.08 0v-1.25a.707.707 0 0 0-.14-.412.616.616 0 0 0 .17.027.693.693 0 0 0 .61-.414l1.36-2.7a1 1 0 0 0 0-.877.882.882 0 0 0 .41-.825l-.15-2.639a.916.916 0 0 0-.23-.572.82.82 0 0 0 .33-.448l.81-2.6a.952.952 0 0 0-.01-.6 1.009 1.009 0 0 0 .15-.084l.5-.415-.07.713a8.534 8.534 0 0 0 1.87 5.245 5.727 5.727 0 0 0 3.68 1.749h.16a5.75 5.75 0 0 0 3.68-1.749 8.6 8.6 0 0 0 1.87-5.245l-.07-.713.5.415c.05.038.1.058.14.084a1.029 1.029 0 0 0 0 .6l.81 2.6a.776.776 0 0 0 .33.448.916.916 0 0 0-.23.572l-.15 2.639a.882.882 0 0 0 .41.825 1 1 0 0 0 0 .877l1.36 2.7a.693.693 0 0 0 .61.414.616.616 0 0 0 .17-.027.707.707 0 0 0-.14.412v1.25a.548.548 0 1 0 1.08 0v-1.25a.593.593 0 0 0-.54-.638.465.465 0 0 0-.08.019.963.963 0 0 0 .12-1.056l-1.36-2.7a.749.749 0 0 0-.3-.332.945.945 0 0 0 .1-.382l.15-2.639a.891.891 0 0 0-.38-.8.965.965 0 0 0 .19-.92l-.81-2.6a.875.875 0 0 0-.23-.371 1.207 1.207 0 0 0-.23-1.471l-1.81-1.5c0-.345-.02-.7-.05-1.072l1.25.65a.847.847 0 0 0 .61.068 1.018 1.018 0 0 0 .27-.135 1.055 1.055 0 0 0 .26.452l2.21 2.036a.712.712 0 0 0 .47.193.99.99 0 0 0 .32.633l2.51 2.092a.678.678 0 0 0 .62.145c.02 0 .03-.018.05-.023 0 0-.01.009-.01.014a.887.887 0 0 0 .75.977l2.27.136a.582.582 0 0 0 .21-.02.637.637 0 0 0 .15-.068.729.729 0 0 0 .11.2l.82.945a.529.529 0 0 0 .54.179.542.542 0 0 0 .29-.2.792.792 0 0 0-.01-.978Z" transform="translate(-1193.28 -64.594)"/><path id="_Path_2" data-name="&lt;Path&gt;" class="cls-1" d="M1215.92 70.156a5.418 5.418 0 0 0-1.56-1.547 1.077 1.077 0 0 0 .18-.6 1.039 1.039 0 0 0-.22-.659c0-.017.01-.034.01-.052l-.31-1.232a.489.489 0 0 0-.44-.523.467.467 0 0 0-.42.4.525.525 0 0 0-.22-.051h-.16a.525.525 0 0 0-.22.051.467.467 0 0 0-.42-.4.483.483 0 0 0-.44.523l-.31 1.232c0 .018.01.034.01.052a1.039 1.039 0 0 0-.22.659 1.077 1.077 0 0 0 .18.6 5.418 5.418 0 0 0-1.56 1.547 4.65 4.65 0 0 0-.11 1v4.938a4.49 4.49 0 0 0 1.02 2.906 2.551 2.551 0 0 0 4.3 0 4.484 4.484 0 0 0 1.01-2.906v-4.94a4.652 4.652 0 0 0-.1-.998Z" transform="translate(-1193.28 -64.594)"/></svg>