<svg id="_Group_" data-name="&lt;Group&gt;" xmlns="http://www.w3.org/2000/svg" width="36.469" height="30.5"><defs><style>.cls-2{stroke:#4b4d4f;stroke-width:1px;fill-rule:evenodd;fill:none}</style></defs><g id="_Group_2" data-name="&lt;Group&gt;"><path id="_Compound_Path_" data-name="&lt;Compound Path&gt;" d="M982.672 91.451h4.539a2.9 2.9 0 0 0 2.9-2.9V70.5a2.9 2.9 0 0 0-2.9-2.9h-6.035v-1.813a3.869 3.869 0 0 0-3.864-3.865h-9.85a3.869 3.869 0 0 0-3.864 3.865V67.6h-6.036a2.9 2.9 0 0 0-2.9 2.9v18.05a2.9 2.9 0 0 0 2.9 2.9h25.11ZM966.5 65.787a.966.966 0 0 1 .964-.964h9.85a.966.966 0 0 1 .964.964V67.6H966.5v-1.813Z" transform="translate(-954.156 -61.438)" style="stroke:#4b4d4f;stroke-width:1px;fill-rule:evenodd;fill:#fff"/></g><path id="_Path_" data-name="&lt;Path&gt;" class="cls-2" d="M954.662 73.368V74.5a4.974 4.974 0 0 0 4.975 4.974h25.5a4.974 4.974 0 0 0 4.974-4.974v-.687" transform="translate(-954.156 -61.438)"/><path id="_Rectangle_" data-name="&lt;Rectangle&gt;" class="cls-2" d="M971 75.923h2.889a1.222 1.222 0 0 1 1.222 1.222v5.222a1.222 1.222 0 0 1-1.222 1.222H971a1.222 1.222 0 0 1-1.222-1.222v-5.222A1.222 1.222 0 0 1 971 75.923Z" transform="translate(-954.156 -61.438)"/></svg>