<svg id="_Group_" data-name="&lt;Group&gt;" xmlns="http://www.w3.org/2000/svg" width="43.094" height="39.469"><defs><style>.cls-1{fill:none;stroke:#4b4d4f;stroke-linejoin:round;stroke-width:1px;fill-rule:evenodd}</style></defs><g id="_Group_2" data-name="&lt;Group&gt;"><path id="_Path_" data-name="&lt;Path&gt;" class="cls-1" d="M40.558 72.905h.27a2.05 2.05 0 0 0 2.05-2.05v-.2a2.05 2.05 0 0 0-2.05-2.049h-2.11" transform="translate(-.281 -52.281)"/><path id="_Path_2" data-name="&lt;Path&gt;" class="cls-1" d="M12.4 87.162v2.048a2.049 2.049 0 0 1-2.049 2.05H7.713a2.05 2.05 0 0 1-2.05-2.05v-2.048" transform="translate(-.281 -52.281)"/><path id="_Path_3" data-name="&lt;Path&gt;" class="cls-1" d="M3.2 72.905h-.357a2.05 2.05 0 0 1-2.05-2.05v-.2a2.05 2.05 0 0 1 2.05-2.049h2.222" transform="translate(-.281 -52.281)"/><path id="_Path_4" data-name="&lt;Path&gt;" class="cls-1" d="M31.274 87.162v2.048a2.05 2.05 0 0 0 2.05 2.05h2.634a2.049 2.049 0 0 0 2.049-2.05v-2.048" transform="translate(-.281 -52.281)"/><g id="_Group_3" data-name="&lt;Group&gt;"><path id="_Path_5" data-name="&lt;Path&gt;" class="cls-1" d="M41.374 78.245a17.358 17.358 0 0 0-.9-5.34 23.824 23.824 0 0 0-.817-2.149H4.019A18.976 18.976 0 0 0 2.3 78.245v2.864h39.074v-2.864Z" transform="translate(-.281 -52.281)"/><path id="_Path_6" data-name="&lt;Path&gt;" class="cls-1" d="M33.561 61.439a5.03 5.03 0 0 0-3.783-1.739H13.893a5.03 5.03 0 0 0-3.784 1.742 37.4 37.4 0 0 0-6.091 9.318h35.634a28.676 28.676 0 0 0-1.046-2.149 39.715 39.715 0 0 0-5.045-7.172Z" transform="translate(-.281 -52.281)"/><path id="_Path_7" data-name="&lt;Path&gt;" class="cls-1" d="M24.983 84.968h-6.3a3.367 3.367 0 0 0-1.838.546l-2.525 1.648h15.03l-2.529-1.648a3.367 3.367 0 0 0-1.838-.546Z" transform="translate(-.281 -52.281)"/><path id="_Path_8" data-name="&lt;Path&gt;" class="cls-1" d="M2.3 81.109V83.8a3.367 3.367 0 0 0 3.367 3.367h8.653l2.529-1.648a3.367 3.367 0 0 1 1.838-.546h6.3a3.367 3.367 0 0 1 1.838.546l2.529 1.648h8.657a3.367 3.367 0 0 0 3.363-3.367v-2.691H2.3Z" transform="translate(-.281 -52.281)"/></g><path id="_Rectangle_" data-name="&lt;Rectangle&gt;" class="cls-1" d="M7.347 74.249H12.4a1.683 1.683 0 1 1 0 3.367H7.347a1.683 1.683 0 1 1 0-3.367Z" transform="translate(-.281 -52.281)"/><path id="_Rectangle_2" data-name="&lt;Rectangle&gt;" class="cls-1" d="M31.235 74.249h5.128a1.644 1.644 0 0 1 1.644 1.644 1.722 1.722 0 0 1-1.722 1.722h-5.05a1.644 1.644 0 0 1-1.644-1.644v-.077a1.644 1.644 0 0 1 1.644-1.645Z" transform="translate(-.281 -52.281)"/><path id="_Path_9" data-name="&lt;Path&gt;" class="cls-1" d="M14.08 75.932h15.511" transform="translate(-.281 -52.281)"/></g><path id="_Path_10" data-name="&lt;Path&gt;" d="m41.927 68.285-7.193 4.66a1.72 1.72 0 0 1-1.87 0l-7.193-4.66a1.72 1.72 0 0 1-.785-1.444V54.008a1.72 1.72 0 0 1 1.72-1.72h14.386a1.72 1.72 0 0 1 1.72 1.72v12.833a1.72 1.72 0 0 1-.785 1.444Z" transform="translate(-.281 -52.281)" style="fill:#fff;fill-rule:evenodd"/><path id="_Path_11" data-name="&lt;Path&gt;" class="cls-1" d="m40.181 67.1-5.648 3.659a1.35 1.35 0 0 1-1.469 0L27.417 67.1a1.35 1.35 0 0 1-.616-1.133v-10.08a1.351 1.351 0 0 1 1.351-1.351h11.3a1.351 1.351 0 0 1 1.348 1.351v10.076a1.351 1.351 0 0 1-.619 1.137Z" transform="translate(-.281 -52.281)"/><path id="_Path_12" data-name="&lt;Path&gt;" d="m30.8 62.754 1.787 1.787 5.171-5.171" transform="translate(-.281 -52.281)" style="stroke-linecap:round;fill-rule:evenodd;fill:none;stroke:#4b4d4f;stroke-linejoin:round;stroke-width:1px"/></svg>