<svg data-name="&lt;Group&gt;" xmlns="http://www.w3.org/2000/svg" width="43.094" height="31.625"><path data-name="&lt;Path&gt;" d="M630.661 96.457a6.133 6.133 0 0 0-3.34-3.484 4.054 4.054 0 0 0-.821-.345 42.884 42.884 0 0 1-2.726-.723 1.187 1.187 0 0 1-.841-.293 13.716 13.716 0 0 1-1.992-.847.873.873 0 0 1-.578-.268c-.114-.031-.209-.1-.323-.137a1.423 1.423 0 0 1-.8-.51c-.125-.082-.257-.155-.375-.249a.505.505 0 0 1-.281-.364c-.053-.237-.125-.471-.19-.706a4.79 4.79 0 0 1-.138-.727.314.314 0 0 0-.212-.292.6.6 0 0 0-.419.025.337.337 0 0 1-.474-.321c-.031-.213-.089-.425-.1-.635a1.348 1.348 0 0 1 .354-1.307 18.365 18.365 0 0 0 1.225-3.31.539.539 0 0 1 .532-.482.478.478 0 0 0 .437-.37 12.745 12.745 0 0 1 .7-1.972 8.587 8.587 0 0 0 .344-1.366c0-.1.021-.191.011-.287a.241.241 0 0 0-.054-.1.467.467 0 0 1-.051-.037c.009-.2.024-.409.017-.613a.585.585 0 0 0-.425-.6.349.349 0 0 1-.29-.438c.06-.9.11-1.8.164-2.7a.086.086 0 0 0-.01-.084.05.05 0 0 0 0-.054c-.026-.272-.05-.545-.081-.817a4.58 4.58 0 0 0-.485-1.886 6.553 6.553 0 0 0-2.724-2.553 11.862 11.862 0 0 0-3.092-.956 6.626 6.626 0 0 0-5.894 1.517.324.324 0 0 1 .013.046 1.315 1.315 0 0 0-.456.492 3.914 3.914 0 0 1-.815.986 2.213 2.213 0 0 0-.795 1.949.282.282 0 0 0-.064.037.4.4 0 0 0-.069.1 9.019 9.019 0 0 0 .034 1.922 8.32 8.32 0 0 1 .206 1.656.516.516 0 0 1-.356.615.877.877 0 0 0-.572.8 2.774 2.774 0 0 0 .04 1.132c.146.528.3 1.055.469 1.575a4.227 4.227 0 0 1 .536 1.424.73.73 0 0 0 .489.622.615.615 0 0 1 .417.489c.084.385.229.751.346 1.125a2.323 2.323 0 0 1 .363.93.342.342 0 0 0 .026.107 3.72 3.72 0 0 1 .573 3.347c-.222.236-.441-.011-.664-.015s-.406-.025-.461.247c-.167.531-.258 1.081-.426 1.612a.981.981 0 0 1-.515.641 10.51 10.51 0 0 1-1.871.769 5.809 5.809 0 0 1-1.443.581c-.944.348-1.934.546-2.906.808a9.276 9.276 0 0 0-3.338 1.475 6.078 6.078 0 0 0-1.422 1.938c0 .346.02.693-.006 1.037-.02.268.057.331.328.331q17.61-.01 35.21-.003a.368.368 0 0 0 .061-.484Z" transform="translate(-594.562 -65.813)" style="fill:none;stroke:#4b4d4f;stroke-linejoin:round;stroke-width:1px;fill-rule:evenodd"/><path data-name="&lt;Path&gt;" d="M618.686 66.5s6.374-1.774 8.686 5.72c.766 2.485.641 7.258 1.552 9.34a14.116 14.116 0 0 0 2.521 3.723l-6.094 1.325a3.436 3.436 0 0 0-.359 1.23 1.432 1.432 0 0 0 1.27 1.609c2.171.5 9.333 1.341 10.752 4.89a5.247 5.247 0 0 1 0 2.6h-3.058" transform="translate(-594.562 -65.813)" style="stroke-linecap:round;fill:none;stroke:#4b4d4f;stroke-linejoin:round;stroke-width:1px;fill-rule:evenodd"/></svg>