<svg id="_Group_" data-name="&lt;Group&gt;" xmlns="http://www.w3.org/2000/svg" width="40.094" height="34.156"><defs><style>.cls-1,.cls-2{fill:none;stroke:#4b4d4f;stroke-linejoin:round;stroke-width:1px;fill-rule:evenodd}.cls-2{fill:#fff}</style></defs><g id="_Group_2" data-name="&lt;Group&gt;"><path id="_Path_" data-name="&lt;Path&gt;" class="cls-1" d="M506.861 90.846a1.028 1.028 0 0 0 1.029-1.028V78.826h2.71a1.786 1.786 0 0 0 1.116-3.18l-3.493-3.03v-5.04a1.067 1.067 0 0 0-1.066-1.068h-2.209a1.068 1.068 0 0 0-1.068 1.068v1.27l-6.21-5.392a1.784 1.784 0 0 0-2.34 0l-14.1 12.238a1.785 1.785 0 0 0 1.169 3.134h2.7v10.993a1.028 1.028 0 0 0 1.029 1.028h20.733Z" transform="translate(-476.344 -62.531)"/><path id="_Rectangle_" data-name="&lt;Rectangle&gt;" class="cls-1" d="M493.071 79.985h6.85v10.861h-6.85V79.985Z" transform="translate(-476.344 -62.531)"/><path id="_Ellipse_" data-name="&lt;Ellipse&gt;" class="cls-1" d="M494.934 85.555a.188.188 0 1 1-.188.188.188.188 0 0 1 .188-.188Z" transform="translate(-476.344 -62.531)"/></g><path id="_Path_2" data-name="&lt;Path&gt;" class="cls-2" d="m477.045 88.029 1.826-2.373a.271.271 0 0 1 .475 0l1.826 2.373a1.258 1.258 0 0 1 .2.735V95.3a.785.785 0 0 1-.437.876h-3.652a.785.785 0 0 1-.437-.876v-6.535a1.265 1.265 0 0 1 .199-.736Z" transform="translate(-476.344 -62.531)"/><path id="_Path_3" data-name="&lt;Path&gt;" class="cls-2" d="m481.571 88.029 1.826-2.373a.271.271 0 0 1 .475 0l1.826 2.373a1.265 1.265 0 0 1 .2.735V95.3a.784.784 0 0 1-.436.876h-3.653a.784.784 0 0 1-.436-.876v-6.535a1.265 1.265 0 0 1 .198-.736Z" transform="translate(-476.344 -62.531)"/><path id="_Path_4" data-name="&lt;Path&gt;" class="cls-2" d="m486.1 88.029 1.826-2.373a.271.271 0 0 1 .475 0l1.826 2.373a1.265 1.265 0 0 1 .2.735V95.3a.784.784 0 0 1-.437.876h-3.652a.785.785 0 0 1-.438-.876v-6.535a1.258 1.258 0 0 1 .2-.736Z" transform="translate(-476.344 -62.531)"/><path id="_Path_5" data-name="&lt;Path&gt;" class="cls-2" d="m502.564 88.029 1.826-2.373a.271.271 0 0 1 .475 0l1.826 2.373a1.258 1.258 0 0 1 .2.735V95.3a.785.785 0 0 1-.437.876H502.8a.785.785 0 0 1-.437-.876v-6.535a1.265 1.265 0 0 1 .201-.736Z" transform="translate(-476.344 -62.531)"/><path id="_Path_6" data-name="&lt;Path&gt;" class="cls-2" d="m507.09 88.029 1.826-2.373a.271.271 0 0 1 .475 0l1.826 2.373a1.265 1.265 0 0 1 .2.735V95.3a.784.784 0 0 1-.436.876h-3.653a.784.784 0 0 1-.436-.876v-6.535a1.265 1.265 0 0 1 .198-.736Z" transform="translate(-476.344 -62.531)"/><path id="_Path_7" data-name="&lt;Path&gt;" class="cls-2" d="m511.616 88.029 1.826-2.373a.271.271 0 0 1 .475 0l1.826 2.373a1.265 1.265 0 0 1 .2.735V95.3a.785.785 0 0 1-.437.876h-3.652a.785.785 0 0 1-.437-.876v-6.535a1.258 1.258 0 0 1 .199-.736Z" transform="translate(-476.344 -62.531)"/></svg>