<svg id="Группа_1" data-name="Группа 1" xmlns="http://www.w3.org/2000/svg" width="32.688" height="34.656"><defs><style>.cls-2{stroke:#4b4d4f;stroke-linejoin:round;stroke-width:1px;stroke-linecap:round;fill-rule:evenodd;fill:#fff}</style></defs><path id="_Path_" data-name="&lt;Path&gt;" d="M860.644 75.962a5.419 5.419 0 1 0-10.837 0" transform="translate(-841.562 -62.438)" style="fill-rule:evenodd;stroke-linecap:round;stroke:#4b4d4f;stroke-linejoin:round;stroke-width:1px;fill:none"/><path id="_Path_2" data-name="&lt;Path&gt;" class="cls-2" d="M855.3 63s-13.108.12-3.589 15.56c3.872 6.28 10.389 9.067 14.426 11.286 1.842.708 0 3.612 0 3.612s-1.7 4.392-4.392 2.763-20.4-10.908-18.77-22.1S853.412 62.692 855.3 63Z" transform="translate(-841.562 -62.438)"/><path id="_Path_3" data-name="&lt;Path&gt;" class="cls-2" d="M853.714 63s13.108.12 3.589 15.56c-3.872 6.28-10.389 9.067-14.426 11.286-1.842.708 0 3.612 0 3.612s1.7 4.392 4.391 2.763 20.4-10.908 18.771-22.1S855.6 62.692 853.714 63Z" transform="translate(-841.562 -62.438)"/><circle id="_Ellipse_" data-name="&lt;Ellipse&gt;" cx="24.578" cy="22.828" r="7.61" style="fill:#fff;stroke-linecap:round;stroke:#4b4d4f;stroke-linejoin:round;stroke-width:1px"/><path id="_Compound_Path_" data-name="&lt;Compound Path&gt;" d="M864.661 90.049h2.967a.379.379 0 0 0 .379-.379v-2.544h2.544a.378.378 0 0 0 .378-.379v-2.966a.379.379 0 0 0-.378-.38h-2.544v-2.543a.379.379 0 0 0-.379-.379h-2.967a.379.379 0 0 0-.379.379V83.4h-2.543a.38.38 0 0 0-.379.38v2.966a.379.379 0 0 0 .379.379h2.543v2.545a.379.379 0 0 0 .379.379Z" transform="translate(-841.562 -62.438)" style="fill-rule:evenodd;stroke:#4b4d4f;stroke-linejoin:round;stroke-width:1px;fill:none"/></svg>