<svg data-name="&lt;Group&gt;" xmlns="http://www.w3.org/2000/svg" width="23.87" height="33.844"><g data-name="&lt;Group&gt;"><path data-name="&lt;Compound Path&gt;" d="M1084.57 60.952a1.457 1.457 0 0 0-1.38 1.522V92.25a1.457 1.457 0 0 0 1.38 1.521h20.11a1.457 1.457 0 0 0 1.38-1.521V62.474a1.457 1.457 0 0 0-1.38-1.522h-20.11Zm10.06 31.648a1.568 1.568 0 1 1 1.42-1.561 1.491 1.491 0 0 1-1.42 1.561Zm9.15-3.91h-18.3V64.665h18.3v24.029Z" transform="translate(-1082.69 -60.438)" style="fill:none;stroke:#4b4d4f;stroke-width:1px;fill-rule:evenodd"/></g><path data-name="&lt;Compound Path&gt;" d="M1092.76 83.378h3.73a.482.482 0 0 0 .48-.477V79.7h3.2a.473.473 0 0 0 .47-.477V75.5a.474.474 0 0 0-.47-.477h-3.2v-3.2a.482.482 0 0 0-.48-.477h-3.73a.482.482 0 0 0-.48.477v3.2h-3.19a.476.476 0 0 0-.48.477v3.729a.475.475 0 0 0 .48.477h3.19v3.2a.482.482 0 0 0 .48.472Z" transform="translate(-1082.69 -60.438)" style="stroke-linejoin:round;fill:none;stroke:#4b4d4f;stroke-width:1px;fill-rule:evenodd"/></svg>