<svg id="_Group_" data-name="&lt;Group&gt;" xmlns="http://www.w3.org/2000/svg" width="33.157" height="36.844"><defs><style>.cls-1,.cls-2{fill:none;stroke:#4b4d4f;stroke-linejoin:round;stroke-width:1px;fill-rule:evenodd}.cls-2{stroke-linecap:round}</style></defs><g id="_Group_2" data-name="&lt;Group&gt;"><g id="_Group_3" data-name="&lt;Group&gt;"><path id="_Path_" data-name="&lt;Path&gt;" class="cls-1" d="M266.669 90.576h.806V88.8h.8V72.534h-.8v-1.815h-4.946v1.815h-.8V88.8h.8v1.778h4.14Z" transform="translate(-243.281 -58.531)"/><path id="_Path_2" data-name="&lt;Path&gt;" class="cls-1" d="M253.054 90.576h4.14V88.8h.8V72.534h-.8v-1.815h-4.946v1.815h-.8V88.8h.8v1.778h.806Z" transform="translate(-243.281 -58.531)"/><path id="_Path_3" data-name="&lt;Path&gt;" class="cls-1" d="M243.783 66.992h32.157l-16.1-8Z" transform="translate(-243.281 -58.531)"/><path id="_Compound_Path_" data-name="&lt;Compound Path&gt;" class="cls-1" d="M252.248 90.576h-6.391v2.149h-2.074v2.148h32.157v-2.148h-2.075v-2.149h-21.617Z" transform="translate(-243.281 -58.531)"/><path id="_Path_4" data-name="&lt;Path&gt;" class="cls-1" d="M252.248 72.534v-1.815h-5.335v1.815h.8V88.8h-.8v1.778h5.335V88.8h-.8V72.534h.8Z" transform="translate(-243.281 -58.531)"/><path id="_Path_5" data-name="&lt;Path&gt;" class="cls-1" d="M272.809 72.534v-1.815h-5.334v1.815h.8V88.8h-.8v1.778h5.334V88.8h-.8V72.534h.8Z" transform="translate(-243.281 -58.531)"/><path id="_Path_6" data-name="&lt;Path&gt;" class="cls-1" d="M262.529 72.534v-1.815h-5.335v1.815h.8V88.8h-.8v1.778h5.335V88.8h-.8V72.534h.8Z" transform="translate(-243.281 -58.531)"/><path id="_Path_7" data-name="&lt;Path&gt;" class="cls-2" d="M275.94 68.839h-32.157" transform="translate(-243.281 -58.531)"/></g><circle id="_Ellipse_" data-name="&lt;Ellipse&gt;" cx="16.579" cy="9.844" r="6.891" style="fill:#fff"/><circle id="_Ellipse_2" data-name="&lt;Ellipse&gt;" cx="16.579" cy="9.844" r="5.891" style="fill:none;stroke:#4b4d4f;stroke-linejoin:round;stroke-width:1px"/><path id="_Compound_Path_2" data-name="&lt;Compound Path&gt;" d="M259.824 69.43h.865a2.166 2.166 0 0 0 2.284-2.274c0-1.283-.819-2.172-2.587-2.172h-2.1v3.476h-.886v.97h.889v2.344h.97V71.1h1.63v-.97h-1.63v-.7h.569Zm-.569-3.476h1.384A1.228 1.228 0 0 1 262 67.217a1.172 1.172 0 0 1-1.3 1.243h-1.445v-2.506Z" transform="translate(-243.281 -58.531)" style="fill:#4b4d4f;fill-rule:evenodd"/></g><path id="_Path_8" data-name="&lt;Path&gt;" class="cls-2" d="M267.475 92.725h-14.581" transform="translate(-243.281 -58.531)"/></svg>