<svg viewBox="0 0 64 64" xml:space="preserve" xmlns="http://www.w3.org/2000/svg"><g fill="#666"><circle cx="18" cy="23" r="1"/><circle cx="28" cy="23" r="1"/><path d="M47 57c5.514 0 10-4.486 10-10s-4.486-10-10-10-10 4.486-10 10 4.486 10 10 10zm0-18c4.411 0 8 3.589 8 8s-3.589 8-8 8-8-3.589-8-8 3.589-8 8-8z"/><path d="M47 53c3.309 0 6-2.691 6-6s-2.691-6-6-6-6 2.691-6 6 2.691 6 6 6zm0-10c2.206 0 4 1.794 4 4s-1.794 4-4 4-4-1.794-4-4 1.794-4 4-4zm8.671-30.257A4.506 4.506 0 0 0 57 9.536 4.541 4.541 0 0 0 52.464 5a4.504 4.504 0 0 0-3.207 1.329L49 6.586l-.257-.257A4.506 4.506 0 0 0 45.536 5 4.541 4.541 0 0 0 41 9.536c0 1.211.472 2.351 1.329 3.207L49 19.414l6.671-6.671zM43 9.536A2.54 2.54 0 0 1 45.536 7a2.52 2.52 0 0 1 1.793.743L49 9.414l1.671-1.671A2.52 2.52 0 0 1 52.464 7 2.54 2.54 0 0 1 55 9.536a2.52 2.52 0 0 1-.743 1.793L49 16.586l-5.257-5.257A2.52 2.52 0 0 1 43 9.536z"/><path d="M51.303 23H60c1.654 0 3-1.346 3-3V4c0-1.654-1.346-3-3-3H38c-1.654 0-3 1.346-3 3v3.038C32.262 3.381 27.909 1 23 1 14.729 1 8 7.729 8 16v3h.031C6.806 19.912 6 21.359 6 23c0 1.627.793 3.061 2 3.974v13.391l-1.804.481A7.009 7.009 0 0 0 1 47.61V59h35.373l1.988 1.988 2.413-1.451c.563.279 1.153.521 1.764.726l.68 2.737h7.563l.681-2.737a14.006 14.006 0 0 0 1.764-.726l2.413 1.451 5.348-5.348-1.451-2.413c.279-.563.521-1.153.726-1.764L63 50.782v-7.563l-2.737-.681a14.006 14.006 0 0 0-.726-1.764l1.451-2.413-5.348-5.348-2.413 1.451a14.006 14.006 0 0 0-1.764-.726L50.782 31h-7.563l-.681 2.737c-.611.205-1.201.447-1.764.726l-2.413-1.451-.361.361v-6.398c1.207-.914 2-2.348 2-3.974h4v4.869L51.303 23zM10 16c0-7.168 5.832-13 13-13s13 5.832 13 13v2.101A4.995 4.995 0 0 0 35 18h-1v-3h-2c0 1.654-1.346 3-3 3a2.959 2.959 0 0 1-2.248-1.038l-.752-.86-.752.861c-1.171 1.338-3.324 1.338-4.495 0L20 16.102l-.752.861A2.961 2.961 0 0 1 17 18c-1.654 0-3-1.346-3-3h-2v3h-1c-.342 0-.677.035-1 .101V16zm21 27.218v.739l-2.316 4.478-4.202-3.502 4.818-4.818 4.873 1.3c-.158.366-.307.738-.436 1.123l-2.737.68zM22.721 53h.559l1.333 4h-3.225l1.333-4zm.779-2h-1l-1.976-2.635L23 46.302l2.476 2.063L23.5 51zm-6.799-10.885 4.818 4.818-4.206 3.505-3.89-7.449 3.278-.874zM28 38.586l-5 5-5-5v-.8c1.502.77 3.199 1.214 5 1.214s3.498-.444 5-1.214v.8zM23 37a8.998 8.998 0 0 1-7.478-4h2.662A2.996 2.996 0 0 0 21 35h4c1.654 0 3-1.346 3-3s-1.346-3-3-3h-4a2.996 2.996 0 0 0-2.816 2h-3.659A8.936 8.936 0 0 1 14 28v-9.002a4.963 4.963 0 0 0 6-.016c1.725 1.311 4.275 1.311 6 0a4.963 4.963 0 0 0 6 .016V28c0 4.962-4.038 9-9 9zm-3-5c0-.551.449-1 1-1h4c.551 0 1 .449 1 1s-.449 1-1 1h-4c-.551 0-1-.449-1-1zm-9-12h1v6h-1c-1.654 0-3-1.346-3-3s1.346-3 3-3zm-1 7.899c.323.066.658.101 1 .101h1c0 1.041.155 2.045.426 3H11c-.551 0-1-.449-1-1v-2.101zm0 4.917c.314.112.648.184 1 .184h2.214A11.075 11.075 0 0 0 16 36.479v1.753l-6 1.6v-7.016zM3 47.61a5.005 5.005 0 0 1 3.712-4.831l4.73-1.262 5.245 10.045 2.298-1.915 1.9 2.534L19.279 57H11v-7H9v7H3v-9.39zM26.721 57l-1.607-4.819 1.9-2.534 2.302 1.918L31 48.31v2.471l2.737.681c.205.611.447 1.201.726 1.764l-1.451 2.413 1.36 1.36h-7.651zm11.948-21.468 2.048 1.231.504-.278c.75-.413 1.567-.75 2.43-1l.552-.161.579-2.324h4.437l.579 2.323.552.161c.862.25 1.68.587 2.43 1l.504.278 2.048-1.231 3.137 3.137-1.231 2.048.278.504c.413.75.75 1.567 1 2.43l.161.552 2.323.58v4.437l-2.323.579-.161.552c-.25.862-.587 1.68-1 2.43l-.278.504 1.231 2.048-3.137 3.137-2.048-1.231-.504.278c-.75.413-1.567.75-2.43 1l-.552.161-.58 2.323h-4.437l-.579-2.323-.552-.161c-.862-.25-1.68-.587-2.43-1l-.504-.278-2.048 1.231-3.137-3.137 1.231-2.048-.278-.504c-.413-.75-.75-1.567-1-2.43l-.161-.552-2.323-.58v-4.437l2.323-.579.161-.552c.25-.862.587-1.68 1-2.43l.278-.504-1.231-2.048 3.138-3.136zM36 35.373l-2.988 2.988.483.804L30 38.232v-1.753c2.441-2.019 4-5.07 4-8.479h1c.342 0 .677-.035 1-.101v7.474zM35 26h-1v-6h1c1.654 0 3 1.346 3 3s-1.346 3-3 3zm4.576-5a5.02 5.02 0 0 0-1.607-2H38v-3c0-1.883-.364-3.679-1-5.34V4c0-.551.449-1 1-1h22c.551 0 1 .449 1 1v16c0 .551-.449 1-1 1h-9.303L46 24.131V21h-6.424z"/></g></svg>